<svg xmlns="http://www.w3.org/2000/svg" width="30" height="30" viewBox="0 0 30 30">
  <g id="ic_file_img" transform="translate(-1386 -1416)">
    <rect id="사각형_31390" data-name="사각형 31390" width="30" height="30" transform="translate(1386 1416)" fill="#fff"/>
    <g id="그룹_32713" data-name="그룹 32713" transform="translate(-148.273 904.179)">
      <g id="그룹_32709" data-name="그룹 32709" transform="translate(1539.273 513.821)">
        <g id="그룹_32707" data-name="그룹 32707" transform="translate(0 0)">
          <path id="패스_10836" data-name="패스 10836" d="M1557.038,538.727h-15.2a2.572,2.572,0,0,1-2.568-2.569V516.39a2.571,2.571,0,0,1,2.568-2.569h12.276a.37.37,0,0,1,0,.739h-12.276a1.831,1.831,0,0,0-1.83,1.829v19.768a1.832,1.832,0,0,0,1.83,1.83h15.2a1.832,1.832,0,0,0,1.83-1.83V519.31a.369.369,0,1,1,.739,0v16.848A2.572,2.572,0,0,1,1557.038,538.727Z" transform="translate(-1539.273 -513.821)" fill="#00071a"/>
        </g>
        <g id="그룹_32708" data-name="그룹 32708" transform="translate(14.475 0)">
          <path id="패스_10837" data-name="패스 10837" d="M1707.358,519.684h-5.12a.369.369,0,0,1-.369-.37V514.2a.369.369,0,0,1,.63-.261l5.12,5.119a.37.37,0,0,1-.261.631Zm-4.75-.739h3.858l-3.858-3.858Z" transform="translate(-1701.869 -513.826)" fill="#00071a"/>
        </g>
      </g>
      <g id="그룹_32712" data-name="그룹 32712" transform="translate(1541.303 520.095)">
        <g id="그룹_32710" data-name="그룹 32710" transform="translate(0 2.405)">
          <path id="패스_10838" data-name="패스 10838" d="M1577.641,621.261h-14.857a.69.69,0,0,1-.6-.367.825.825,0,0,1,.015-.834l3.411-5.562a.738.738,0,0,1,1.242,0l1.614,2.631,3.363-5.482a.738.738,0,0,1,1.241,0l5.16,8.412a.826.826,0,0,1,.015.834A.69.69,0,0,1,1577.641,621.261Zm-11.421-6.377-3.393,5.562a.091.091,0,0,0,0,.092l14.8-.016c-.024,0-.015-.045-.034-.076l-5.161-8.412L1568.794,618a.322.322,0,0,1-.032.053l-.362.593a.369.369,0,0,1-.63-.386l.261-.426Z" transform="translate(-1562.076 -611.308)" fill="#00071a"/>
        </g>
        <g id="그룹_32711" data-name="그룹 32711" transform="translate(3.895 0)">
          <path id="패스_10839" data-name="패스 10839" d="M1607.616,587.88a1.791,1.791,0,1,1,1.79-1.791A1.793,1.793,0,0,1,1607.616,587.88Zm0-2.843a1.052,1.052,0,1,0,1.052,1.052A1.053,1.053,0,0,0,1607.616,585.037Z" transform="translate(-1605.825 -584.298)" fill="#00071a"/>
        </g>
      </g>
    </g>
  </g>
</svg>
