<svg xmlns="http://www.w3.org/2000/svg" xmlns:xlink="http://www.w3.org/1999/xlink" width="26" height="26" viewBox="0 0 26 26">
  <defs>
    <clipPath id="clip-path">
      <rect id="사각형_4504" data-name="사각형 4504" width="26" height="26" transform="translate(0 0)" fill="none"/>
    </clipPath>
  </defs>
  <g id="마스크_그룹_278" data-name="마스크 그룹 278" clip-path="url(#clip-path)">
    <path id="패스_7885" data-name="패스 7885" d="M18.148,7.85a5.215,5.215,0,0,0-2.492,4.387,5.077,5.077,0,0,0,3.09,4.656,12.076,12.076,0,0,1-1.582,3.268C16.179,21.579,15.15,23,13.584,23s-1.969-.91-3.777-.91c-1.762,0-2.388.94-3.82.94S3.555,21.713,2.406,20.1A14.1,14.1,0,0,1,0,12.476C0,8,2.911,5.626,5.775,5.626c1.522,0,2.791,1,3.747,1,.91,0,2.328-1.059,4.06-1.059A5.429,5.429,0,0,1,18.148,7.85ZM12.76,3.671A5.142,5.142,0,0,0,13.982.463,2.211,2.211,0,0,0,13.939,0a5.15,5.15,0,0,0-3.387,1.745,5.006,5.006,0,0,0-1.269,3.12,2.114,2.114,0,0,0,.044.417,1.8,1.8,0,0,0,.313.03A4.463,4.463,0,0,0,12.76,3.671Z" transform="translate(3.829 1.318)"/>
  </g>
</svg>
