<svg xmlns="http://www.w3.org/2000/svg" width="80" height="80" viewBox="0 0 80 80">
  <g id="그룹_24208" data-name="그룹 24208" transform="translate(-767 -684)">
    <rect id="사각형_27458" data-name="사각형 27458" width="80" height="80" transform="translate(767 684)" fill="rgba(255,200,200,0)"/>
    <g id="그룹_24198" data-name="그룹 24198" transform="translate(662.04 363.58)">
      <path id="패스_7934" data-name="패스 7934" d="M154.464,331.42H121.276v.271c-.135.018-.27.032-.408.061-1.792.375-3.062,1.551-2.837,2.626s1.861,1.643,3.654,1.267a5.259,5.259,0,0,0,1.176-.395H152.8Z" fill="#fc53d1"/>
      <line id="선_315" data-name="선 315" x1="35.104" transform="translate(122.239 331.42)" fill="none" stroke="#000" stroke-linecap="round" stroke-miterlimit="10" stroke-width="1.5"/>
      <path id="패스_7935" data-name="패스 7935" d="M166.72,389.209H129.691a4.912,4.912,0,0,1-5.1-4.7V336.7" fill="none" stroke="#000" stroke-linecap="round" stroke-miterlimit="10" stroke-width="1.5"/>
      <path id="패스_7936" data-name="패스 7936" d="M122.239,331.42h0a4.278,4.278,0,0,0-4.279,4.278h35.105a4.278,4.278,0,0,1,4.278-4.278h0a4.278,4.278,0,0,1,4.279,4.278" fill="none" stroke="#000" stroke-linecap="round" stroke-miterlimit="10" stroke-width="1.5"/>
      <path id="패스_7937" data-name="패스 7937" d="M161.621,335.25v49.258a4.912,4.912,0,0,0,5.1,4.7h0a4.912,4.912,0,0,0,5.1-4.7h0v-3.4h-10.2" stroke="#000" stroke-miterlimit="10" stroke-width="1.5"/>
      <g id="패스_7938" data-name="패스 7938" fill="#fc53d1" stroke-linejoin="round">
        <path d="M 150.8508453369141 359.5224914550781 L 134.7604522705078 359.5224914550781 L 136.4395599365234 348.84521484375 L 149.1717376708984 348.84521484375 L 150.8508453369141 359.5224914550781 Z" stroke="none"/>
        <path d="M 149.9736785888672 358.7724914550781 L 148.5304565429688 349.59521484375 L 137.0808410644531 349.59521484375 L 135.6376190185547 358.7724914550781 L 149.9736785888672 358.7724914550781 M 151.7279968261719 360.2724914550781 L 133.88330078125 360.2724914550781 L 135.7982940673828 348.09521484375 L 149.8130035400391 348.09521484375 L 151.7279968261719 360.2724914550781 Z" stroke="none" fill="#000"/>
      </g>
      <path id="패스_7939" data-name="패스 7939" d="M146.6,351.165v-3.389a3.792,3.792,0,0,0-3.792-3.791h0a3.791,3.791,0,0,0-3.79,3.791v3.389" fill="none" stroke="#000" stroke-linejoin="round" stroke-width="1.5"/>
      <g id="그룹_24195" data-name="그룹 24195">
        <line id="선_316" data-name="선 316" x2="17.402" transform="translate(136.504 366.719)" fill="none" stroke="#000" stroke-miterlimit="10" stroke-width="1.5"/>
        <g id="패스_7940" data-name="패스 7940" fill="none" stroke-miterlimit="10">
          <path d="M133.884,366.719a1.339,1.339,0,1,1-1.338-1.339A1.339,1.339,0,0,1,133.884,366.719Z" stroke="none"/>
          <path d="M 132.5460052490234 365.3800048828125 C 133.2850036621094 365.3800048828125 133.8840026855469 365.9800109863281 133.8840026855469 366.718994140625 C 133.8840026855469 367.4580078125 133.2850036621094 368.0580139160156 132.5460052490234 368.0580139160156 C 131.8070068359375 368.0580139160156 131.2070007324219 367.4580078125 131.2070007324219 366.718994140625 C 131.2070007324219 365.9800109863281 131.8070068359375 365.3800048828125 132.5460052490234 365.3800048828125 Z" stroke="none" fill="#000"/>
        </g>
      </g>
      <g id="그룹_24196" data-name="그룹 24196">
        <line id="선_317" data-name="선 317" x2="17.402" transform="translate(136.504 373.036)" fill="none" stroke="#000" stroke-miterlimit="10" stroke-width="1.5"/>
        <g id="패스_7941" data-name="패스 7941" fill="none" stroke-miterlimit="10">
          <path d="M133.884,373.036a1.339,1.339,0,1,1-1.338-1.339A1.338,1.338,0,0,1,133.884,373.036Z" stroke="none"/>
          <path d="M 132.5460052490234 374.3739929199219 C 131.8070068359375 374.3739929199219 131.2070007324219 373.7749938964844 131.2070007324219 373.0360107421875 C 131.2070007324219 372.2969970703125 131.8070068359375 371.6969909667969 132.5460052490234 371.6969909667969 C 133.2850036621094 371.6969909667969 133.8840026855469 372.2969970703125 133.8840026855469 373.0360107421875 C 133.8840026855469 373.7749938964844 133.2850036621094 374.3739929199219 132.5460052490234 374.3739929199219 Z" stroke="none" fill="#000"/>
        </g>
      </g>
      <g id="그룹_24197" data-name="그룹 24197">
        <line id="선_318" data-name="선 318" x2="17.402" transform="translate(136.504 379.353)" fill="none" stroke="#000" stroke-miterlimit="10" stroke-width="1.5"/>
        <g id="패스_7942" data-name="패스 7942" fill="none" stroke-miterlimit="10">
          <path d="M133.884,379.353a1.339,1.339,0,1,1-1.338-1.338A1.338,1.338,0,0,1,133.884,379.353Z" stroke="none"/>
          <path d="M 132.5460052490234 378.0150146484375 C 133.2850036621094 378.0150146484375 133.8840026855469 378.614013671875 133.8840026855469 379.3529968261719 C 133.8840026855469 380.0929870605469 133.2850036621094 380.6919860839844 132.5460052490234 380.6919860839844 C 131.8070068359375 380.6919860839844 131.2070007324219 380.0929870605469 131.2070007324219 379.3529968261719 C 131.2070007324219 378.614013671875 131.8070068359375 378.0150146484375 132.5460052490234 378.0150146484375 Z" stroke="none" fill="#000"/>
        </g>
      </g>
    </g>
  </g>
</svg>
