<svg xmlns="http://www.w3.org/2000/svg" width="80" height="80" viewBox="0 0 80 80">
  <defs>
    <style>
      .cls-1 {
        fill: rgba(255,156,156,0);
      }

      .cls-2 {
        fill: #e7ff5e;
      }

      .cls-2, .cls-3 {
        stroke-linejoin: round;
      }

      .cls-3 {
        fill: none;
        stroke: #212228;
        stroke-width: 1.5px;
      }

      .cls-4, .cls-5 {
        stroke: none;
      }

      .cls-5 {
        fill: #212228;
      }
    </style>
  </defs>
  <g id="그룹_31111" data-name="그룹 31111" transform="translate(-709 -1230)">
    <rect id="사각형_30916" data-name="사각형 30916" class="cls-1" width="80" height="80" transform="translate(709 1230)"/>
    <g id="그룹_30518" data-name="그룹 30518" transform="translate(-2 -2)">
      <g id="그룹_30517" data-name="그룹 30517" transform="translate(719 1240)">
        <g id="패스_10552" data-name="패스 10552" class="cls-2" transform="translate(-1873.743 -1826.857)">
          <path class="cls-4" d="M 1915.368408203125 1870.29150390625 L 1906.112915039062 1864.70849609375 L 1905.7255859375 1864.474853515625 L 1905.338256835938 1864.70849609375 L 1896.082763671875 1870.29150390625 L 1898.30517578125 1859.686767578125 L 1898.39404296875 1859.263305664062 L 1898.071655273438 1858.974487304688 L 1890.131713867188 1851.858642578125 L 1900.698364257812 1850.803100585938 L 1901.131958007812 1850.759765625 L 1901.30908203125 1850.361572265625 L 1905.7255859375 1840.431518554688 L 1910.142211914062 1850.361572265625 L 1910.3193359375 1850.759765625 L 1910.7529296875 1850.803100585938 L 1921.319458007812 1851.858642578125 L 1913.379516601562 1858.974487304688 L 1913.057373046875 1859.263305664062 L 1913.146118164062 1859.686767578125 L 1915.368408203125 1870.29150390625 Z"/>
          <path class="cls-5" d="M 1905.7255859375 1842.276977539062 L 1901.994384765625 1850.666381835938 C 1901.775390625 1851.15869140625 1901.30908203125 1851.495727539062 1900.772827148438 1851.54931640625 L 1891.8994140625 1852.435791015625 L 1898.572265625 1858.415893554688 C 1898.97119140625 1858.773315429688 1899.149169921875 1859.31640625 1899.039306640625 1859.840576171875 L 1897.170043945312 1868.759765625 L 1904.950805664062 1864.066284179688 C 1905.427368164062 1863.778930664062 1906.023803710938 1863.778930664062 1906.500366210938 1864.066284179688 L 1914.281127929688 1868.759765625 L 1912.411987304688 1859.840576171875 C 1912.302124023438 1859.31640625 1912.480102539062 1858.7734375 1912.879028320312 1858.415893554688 L 1919.5517578125 1852.435791015625 L 1910.678466796875 1851.54931640625 C 1910.142211914062 1851.495727539062 1909.675903320312 1851.15869140625 1909.456909179688 1850.666381835938 L 1905.7255859375 1842.276977539062 M 1905.7255859375 1838.5859375 L 1910.827514648438 1850.056762695312 L 1923.087158203125 1851.281494140625 L 1913.880126953125 1859.532958984375 L 1916.455688476562 1871.8232421875 L 1905.7255859375 1865.350708007812 L 1894.995483398438 1871.8232421875 L 1897.571166992188 1859.532958984375 L 1888.363891601562 1851.281494140625 L 1900.623779296875 1850.056762695312 L 1905.7255859375 1838.5859375 Z"/>
        </g>
        <line id="선_360" data-name="선 360" class="cls-3" y1="5.75" transform="translate(31.982)"/>
        <line id="선_361" data-name="선 361" class="cls-3" x1="5.447" y1="1.734" transform="translate(3.504 20.996)"/>
        <line id="선_362" data-name="선 362" class="cls-3" x1="3.385" y2="4.631" transform="translate(14.283 49.645)"/>
        <line id="선_363" data-name="선 363" class="cls-3" x2="3.312" y2="4.684" transform="translate(45.989 49.869)"/>
        <line id="선_364" data-name="선 364" class="cls-3" y1="1.784" x2="5.431" transform="translate(54.946 20.735)"/>
        <line id="선_365" data-name="선 365" class="cls-3" y2="13.528" transform="translate(31.982 50.472)"/>
        <line id="선_366" data-name="선 366" class="cls-3" x2="12.762" y2="4.245" transform="translate(51.237 36.466)"/>
        <line id="선_367" data-name="선 367" class="cls-3" y1="10.846" x2="8.033" transform="translate(44.102 2.851)"/>
        <line id="선_368" data-name="선 368" class="cls-3" x1="8.075" y1="10.815" transform="translate(11.724 2.93)"/>
        <line id="선_369" data-name="선 369" class="cls-3" x1="12.748" y2="4.288" transform="translate(0 36.53)"/>
      </g>
    </g>
  </g>
</svg>
