<svg id="ic_bag" xmlns="http://www.w3.org/2000/svg" xmlns:xlink="http://www.w3.org/1999/xlink" width="30" height="30" viewBox="0 0 30 30">
  <defs>
    <style>
      .cls-1, .cls-3 {
        fill: none;
      }

      .cls-1 {
        stroke: #fff;
        stroke-width: 1.5px;
      }

      .cls-2 {
        fill: rgba(255,133,133,0);
        opacity: 0.36;
      }

      .cls-4 {
        clip-path: url(#clip-path);
      }

      .cls-5, .cls-6 {
        stroke: none;
      }

      .cls-6 {
        fill: #fff;
      }
    </style>
    <clipPath id="clip-path">
      <rect id="사각형_26355" data-name="사각형 26355" class="cls-1" width="10" height="9"/>
    </clipPath>
  </defs>
  <rect id="사각형_26362" data-name="사각형 26362" class="cls-2" width="30" height="30"/>
  <g id="그룹_28765" data-name="그룹 28765">
    <rect id="사각형_26360" data-name="사각형 26360" class="cls-2" width="22" height="22" transform="translate(4 4)"/>
    <g id="그룹_28759" data-name="그룹 28759" transform="translate(-470 -634)">
      <g id="패스_4395" data-name="패스 4395" class="cls-3" transform="translate(475 643.04)">
        <path class="cls-5" d="M1.667,0H18.333L20,16H0Z"/>
        <path class="cls-6" d="M 2.748161315917969 1.199999809265137 L 1.331491470336914 14.80000019073486 L 18.66850852966309 14.80000019073486 L 17.25183868408203 1.199999809265137 L 2.748161315917969 1.199999809265137 M 1.666669845581055 0 L 18.33333015441895 0 L 20 16 L 0 16 L 1.666669845581055 0 Z"/>
      </g>
      <g id="마스크_그룹_84" data-name="마스크 그룹 84" class="cls-4" transform="translate(480.04 638)">
        <g id="패스_4396" data-name="패스 4396" class="cls-3">
          <path class="cls-5" d="M5,0a5,5,0,0,1,5,5V9A5,5,0,0,1,0,9V5A5,5,0,0,1,5,0Z"/>
          <path class="cls-6" d="M 5 1.199999809265137 C 2.904669761657715 1.199999809265137 1.199999809265137 2.904669761657715 1.199999809265137 5 L 1.199999809265137 9 C 1.199999809265137 11.09533023834229 2.904669761657715 12.80000019073486 5 12.80000019073486 C 7.095330238342285 12.80000019073486 8.800000190734863 11.09533023834229 8.800000190734863 9 L 8.800000190734863 5 C 8.800000190734863 2.904669761657715 7.095330238342285 1.199999809265137 5 1.199999809265137 M 5 0 C 7.761420249938965 0 10 2.238579750061035 10 5 L 10 9 C 10 11.76142024993896 7.761420249938965 14 5 14 C 2.238580226898193 14 0 11.76142024993896 0 9 L 0 5 C 0 2.238579750061035 2.238580226898193 0 5 0 Z"/>
        </g>
      </g>
    </g>
  </g>
</svg>
