<svg xmlns="http://www.w3.org/2000/svg" xmlns:xlink="http://www.w3.org/1999/xlink" width="100" height="100" viewBox="0 0 100 100">
  <defs>
    <clipPath id="clip-path">
      <rect id="사각형_31052" data-name="사각형 31052" width="100" height="100" transform="translate(232 1049)" fill="#e7ff5e" stroke="#e7ff5e" stroke-width="1"/>
    </clipPath>
  </defs>
  <g id="deco" transform="translate(-232 -1049)" clip-path="url(#clip-path)">
    <g id="그룹_31110" data-name="그룹 31110" transform="translate(236.167 1053.167)">
      <g id="그룹_31109" data-name="그룹 31109" transform="translate(0 0)">
        <path id="패스_10785" data-name="패스 10785" d="M155.659,264.417a4.936,4.936,0,0,1-1.02,1.805,3.612,3.612,0,0,1-5.446.443,3.846,3.846,0,0,1-.548-5.7,4.147,4.147,0,0,1,1.436-1.193l.473.705a3.638,3.638,0,0,0-1.243.995,2.872,2.872,0,0,0,.528,4.355,2.808,2.808,0,0,0,4.288-.3,3.976,3.976,0,0,0,.791-1.457Z" transform="translate(-137.616 -245.362)" fill="#e7ff5e" stroke="#e7ff5e" stroke-width="1"/>
        <path id="패스_10786" data-name="패스 10786" d="M156.341,264.151l-4.977-5.9.831-.7,4.409,1.391a21.966,21.966,0,0,1,2.677,1.024l.009-.023c-.734-.729-1.357-1.432-2.132-2.352l-2.082-2.469.718-.605,4.977,5.9-.771.65-4.4-1.415a24.405,24.405,0,0,1-2.765-1.04l-.019.031c.671.707,1.286,1.4,2.114,2.382l2.127,2.522Z" transform="translate(-137.461 -245.582)" fill="#e7ff5e" stroke="#e7ff5e" stroke-width="1"/>
        <path id="패스_10787" data-name="패스 10787" d="M159.52,253.138l-2.022,1.2-.431-.73,4.92-2.909.432.73-2.031,1.2,3.5,5.917-.868.512Z" transform="translate(-137.223 -245.741)" fill="#e7ff5e" stroke="#e7ff5e" stroke-width="1"/>
        <path id="패스_10788" data-name="패스 10788" d="M166.983,249.537l-2.216.779-.281-.8,5.393-1.9.281.8-2.226.783,2.28,6.483-.951.335Z" transform="translate(-136.914 -245.869)" fill="#e7ff5e" stroke="#e7ff5e" stroke-width="1"/>
        <path id="패스_10789" data-name="패스 10789" d="M172.051,247.1l1.771,7.522-.971.228-1.771-7.522Z" transform="translate(-136.639 -245.891)" fill="#e7ff5e" stroke="#e7ff5e" stroke-width="1"/>
        <path id="패스_10790" data-name="패스 10790" d="M181.276,250.312c-.143-1.07-.315-2.355-.379-3.316l-.034,0c-.191.924-.434,1.908-.738,3l-1.061,3.844-.754.06-1.538-3.568c-.452-1.056-.84-2.025-1.13-2.922l-.023,0c.054.96.1,2.256.124,3.416l.057,3.318-.948.076-.078-7.743,1.269-.1,1.61,3.619c.395.924.726,1.748.983,2.531l.034,0c.132-.793.34-1.659.6-2.658l1.074-3.833,1.269-.1,1.094,7.66-.971.078Z" transform="translate(-136.485 -245.939)" fill="#e7ff5e" stroke="#e7ff5e" stroke-width="1"/>
        <path id="패스_10791" data-name="패스 10791" d="M187.9,250.619l-2.983-.32-.3,2.767,3.325.356-.089.83-4.316-.461.821-7.674,4.145.444-.09.831-3.153-.338-.26,2.425,2.983.32Z" transform="translate(-136.12 -245.932)" fill="#e7ff5e" stroke="#e7ff5e" stroke-width="1"/>
        <path id="패스_10792" data-name="패스 10792" d="M193.342,247.665a14.187,14.187,0,0,1,2.052.551,4.422,4.422,0,0,1,2.632,1.945,3.553,3.553,0,0,1,.108,2.976,4.078,4.078,0,0,1-2.043,2.464,4.75,4.75,0,0,1-3.59-.082,16.266,16.266,0,0,1-1.678-.686Zm-1.323,6.773a6.271,6.271,0,0,0,.932.389,2.969,2.969,0,0,0,4.189-2c.615-1.714.025-3.148-1.965-3.846a5.678,5.678,0,0,0-1.136-.291Z" transform="translate(-135.817 -245.867)" fill="#e7ff5e" stroke="#e7ff5e" stroke-width="1"/>
        <path id="패스_10793" data-name="패스 10793" d="M202.628,256.112,200,254.658l-1.348,2.435,2.927,1.62-.405.732-3.8-2.1,3.74-6.755,3.649,2.019-.405.732-2.777-1.537-1.181,2.135,2.626,1.453Z" transform="translate(-135.544 -245.745)" fill="#e7ff5e" stroke="#e7ff5e" stroke-width="1"/>
        <path id="패스_10794" data-name="패스 10794" d="M204.344,258.668l-2.132,1.415-.811-.636,6.835-4.454.947.744-2.7,7.7-.839-.658.852-2.421Zm2.473.951.779-2.216c.176-.5.369-.934.554-1.357l-.018-.014c-.373.29-.763.581-1.17.858l-1.975,1.292Z" transform="translate(-135.376 -245.562)" fill="#e7ff5e" stroke="#e7ff5e" stroke-width="1"/>
        <path id="패스_10795" data-name="패스 10795" d="M212.447,258.673l.679.73-5.042,4.684,2.245,2.416-.611.57-2.924-3.146Z" transform="translate(-135.151 -245.408)" fill="#e7ff5e" stroke="#e7ff5e" stroke-width="1"/>
        <path id="패스_10796" data-name="패스 10796" d="M216.058,277.91a4.962,4.962,0,0,1-1.154-1.723,3.61,3.61,0,0,1,2.051-5.064,3.844,3.844,0,0,1,5.334,2.07,4.149,4.149,0,0,1,.421,1.819l-.842.105a3.649,3.649,0,0,0-.331-1.557,2.873,2.873,0,0,0-4.128-1.484,2.808,2.808,0,0,0-1.655,3.966,4,4,0,0,0,.946,1.362Z" transform="translate(-134.829 -244.906)" fill="#e7ff5e" stroke="#e7ff5e" stroke-width="1"/>
        <path id="패스_10797" data-name="패스 10797" d="M216.053,278.634l7.513-1.77.249,1.058-3.233,3.3a21.732,21.732,0,0,1-2.123,1.923l.017.02c.982-.325,1.891-.562,3.06-.839l3.144-.741.216.914-7.513,1.771-.231-.981,3.25-3.283a24.575,24.575,0,0,1,2.176-2l-.019-.03c-.934.279-1.831.514-3.08.808l-3.209.756Z" transform="translate(-134.765 -244.65)" fill="#e7ff5e" stroke="#e7ff5e" stroke-width="1"/>
        <path id="패스_10798" data-name="패스 10798" d="M224.414,286.434l-.151-2.345.847-.054.368,5.708-.847.054-.152-2.356-6.865.442-.065-1.006Z" transform="translate(-134.703 -244.352)" fill="#e7ff5e" stroke="#e7ff5e" stroke-width="1"/>
        <path id="패스_10799" data-name="패스 10799" d="M224.25,294.7l.3-2.33.842.108-.727,5.674-.841-.108.3-2.342-6.823-.875.128-1Z" transform="translate(-134.714 -244.004)" fill="#e7ff5e" stroke="#e7ff5e" stroke-width="1"/>
        <path id="패스_10800" data-name="패스 10800" d="M224.057,300.35l-7.508-1.8.232-.97,7.507,1.8Z" transform="translate(-134.745 -243.787)" fill="#e7ff5e" stroke="#e7ff5e" stroke-width="1"/>
        <path id="패스_10801" data-name="패스 10801" d="M217.135,307.238c1.019.354,2.243.781,3.129,1.156l.014-.031c-.739-.586-1.507-1.249-2.347-2.014l-2.952-2.68.286-.7,3.877.235c1.147.073,2.186.165,3.118.309l.007-.021c-.881-.386-2.058-.929-3.1-1.43l-2.986-1.445.36-.88,6.944,3.422-.48,1.177-3.957-.195c-1-.062-1.886-.14-2.7-.263l-.014.031c.648.476,1.329,1.051,2.1,1.739l2.937,2.686-.481,1.177-7.331-2.478.369-.9Z" transform="translate(-134.87 -243.697)" fill="#e7ff5e" stroke="#e7ff5e" stroke-width="1"/>
        <path id="패스_10802" data-name="패스 10802" d="M213.826,312.994l1.633-2.519-2.336-1.514-1.821,2.806-.7-.455,2.363-3.644,6.479,4.2-2.269,3.5-.7-.456,1.727-2.663-2.048-1.328-1.633,2.519Z" transform="translate(-134.993 -243.367)" fill="#e7ff5e" stroke="#e7ff5e" stroke-width="1"/>
        <path id="패스_10803" data-name="패스 10803" d="M214.016,319.151a14.322,14.322,0,0,1-1.418,1.584,4.428,4.428,0,0,1-2.922,1.474,3.557,3.557,0,0,1-2.705-1.246,4.086,4.086,0,0,1-1.279-2.934,4.754,4.754,0,0,1,1.692-3.167,16.287,16.287,0,0,1,1.369-1.187Zm-5.45-4.232a6.257,6.257,0,0,0-.767.657,2.967,2.967,0,0,0-.1,4.641c1.253,1.321,2.8,1.441,4.319-.02a5.644,5.644,0,0,0,.771-.884Z" transform="translate(-135.197 -243.117)" fill="#e7ff5e" stroke="#e7ff5e" stroke-width="1"/>
        <path id="패스_10804" data-name="패스 10804" d="M202.3,323.64l2.478-1.695-1.571-2.3-2.762,1.888-.472-.691,3.585-2.45,4.357,6.375-3.443,2.353-.472-.691,2.62-1.791-1.376-2.015-2.479,1.694Z" transform="translate(-135.435 -242.92)" fill="#e7ff5e" stroke="#e7ff5e" stroke-width="1"/>
        <path id="패스_10805" data-name="패스 10805" d="M199.258,323.976l-.305-2.54.933-.438.9,8.105-1.09.51-5.665-5.872.965-.453,1.778,1.85Zm-1.961,1.78,1.628,1.692c.37.383.668.75.961,1.105l.021-.009c-.092-.464-.177-.943-.242-1.431l-.264-2.343Z" transform="translate(-135.683 -242.811)" fill="#e7ff5e" stroke="#e7ff5e" stroke-width="1"/>
        <path id="패스_10806" data-name="패스 10806" d="M195.551,331.237l-.958.276-1.9-6.621-3.173.913-.23-.805,4.13-1.186Z" transform="translate(-135.881 -242.694)" fill="#e7ff5e" stroke="#e7ff5e" stroke-width="1"/>
        <path id="패스_10807" data-name="패스 10807" d="M176.68,325.752a4.923,4.923,0,0,1,2.056-.254,3.609,3.609,0,0,1,3.6,4.113,3.844,3.844,0,0,1-4.252,3.831A4.135,4.135,0,0,1,176.27,333l.284-.8a3.631,3.631,0,0,0,1.54.406,2.873,2.873,0,0,0,3.185-3.017,2.809,2.809,0,0,0-2.795-3.266,3.987,3.987,0,0,0-1.643.231Z" transform="translate(-136.423 -242.624)" fill="#e7ff5e" stroke="#e7ff5e" stroke-width="1"/>
        <path id="패스_10808" data-name="패스 10808" d="M176.114,325.422l-1.8,7.508-1.057-.253-1.5-4.375A22.008,22.008,0,0,1,171,325.54l-.025.006c-.151,1.024-.347,1.943-.627,3.112l-.752,3.141-.914-.218,1.8-7.508.981.234,1.471,4.38a24.562,24.562,0,0,1,.8,2.842l.035,0c.171-.96.366-1.868.664-3.116l.768-3.207Z" transform="translate(-136.739 -242.683)" fill="#e7ff5e" stroke="#e7ff5e" stroke-width="1"/>
        <path id="패스_10809" data-name="패스 10809" d="M165.353,329.355l2.161.922-.332.78-5.261-2.245.332-.779,2.172.926,2.7-6.326.927.4Z" transform="translate(-137.021 -242.743)" fill="#e7ff5e" stroke="#e7ff5e" stroke-width="1"/>
        <path id="패스_10810" data-name="패스 10810" d="M158.063,325.451l1.942,1.32-.477.7-4.726-3.215.477-.7,1.951,1.327,3.865-5.683.833.568Z" transform="translate(-137.318 -242.886)" fill="#e7ff5e" stroke="#e7ff5e" stroke-width="1"/>
        <path id="패스_10811" data-name="패스 10811" d="M153.014,322.71l5-5.883.759.645-5,5.883Z" transform="translate(-137.392 -242.985)" fill="#e7ff5e" stroke="#e7ff5e" stroke-width="1"/>
        <path id="패스_10812" data-name="패스 10812" d="M150.23,313.549c-.776.751-1.707,1.653-2.441,2.276l.023.026c.855-.4,1.793-.785,2.852-1.192l3.722-1.432.5.57-1.954,3.358c-.58.992-1.129,1.88-1.677,2.647l.015.017c.742-.615,1.755-1.422,2.674-2.13l2.633-2.02.625.717-6.18,4.668-.834-.959,1.951-3.449c.506-.866.974-1.622,1.451-2.3l-.023-.026c-.716.366-1.536.715-2.5,1.1l-3.72,1.416-.836-.959,5.509-5.436.641.735Z" transform="translate(-137.663 -243.251)" fill="#e7ff5e" stroke="#e7ff5e" stroke-width="1"/>
        <path id="패스_10813" data-name="패스 10813" d="M146.482,307.927,148,310.52l2.4-1.406-1.689-2.889.722-.422,2.192,3.749-6.667,3.9-2.105-3.6.722-.422,1.6,2.741,2.107-1.233-1.516-2.591Z" transform="translate(-137.815 -243.445)" fill="#e7ff5e" stroke="#e7ff5e" stroke-width="1"/>
        <path id="패스_10814" data-name="패스 10814" d="M140.887,305.343a14.27,14.27,0,0,1-.774-1.979,4.416,4.416,0,0,1,0-3.272,3.556,3.556,0,0,1,2.331-1.853,4.083,4.083,0,0,1,3.195.183,4.755,4.755,0,0,1,2.063,2.938,15.916,15.916,0,0,1,.443,1.757Zm6.235-2.954a6.371,6.371,0,0,0-.241-.98,2.968,2.968,0,0,0-4.1-2.183c-1.745.523-2.549,1.848-1.931,3.862a5.665,5.665,0,0,0,.441,1.088Z" transform="translate(-137.942 -243.77)" fill="#e7ff5e" stroke="#e7ff5e" stroke-width="1"/>
        <path id="패스_10815" data-name="패스 10815" d="M142.19,292.836l.389,2.975,2.759-.36-.432-3.317.829-.108.561,4.305-7.654,1L138.1,293.2l.829-.107.411,3.146,2.419-.316-.389-2.976Z" transform="translate(-138.013 -244.019)" fill="#e7ff5e" stroke="#e7ff5e" stroke-width="1"/>
        <path id="패스_10816" data-name="패스 10816" d="M143.282,289.955l2.4.874-.03,1.03-7.636-2.853.036-1.2,7.794-2.4-.032,1.065-2.451.751Zm-.7-2.553-2.243.689c-.509.156-.971.257-1.421.358v.023c.455.128.921.268,1.385.431l2.209.823Z" transform="translate(-138.017 -244.295)" fill="#e7ff5e" stroke="#e7ff5e" stroke-width="1"/>
        <path id="패스_10817" data-name="패스 10817" d="M138.434,283.34l.184-.98,6.77,1.277.612-3.244.822.155-.8,4.224Z" transform="translate(-138 -244.503)" fill="#e7ff5e" stroke="#e7ff5e" stroke-width="1"/>
      </g>
    </g>
  </g>
</svg>
