<svg xmlns="http://www.w3.org/2000/svg" xmlns:xlink="http://www.w3.org/1999/xlink" width="217.999" height="169.776" viewBox="0 0 217.999 169.776">
  <defs>
    <filter id="타원_160" x="89.357" y="41.134" width="128.642" height="128.642" filterUnits="userSpaceOnUse">
      <feOffset dx="3" dy="3" input="SourceAlpha"/>
      <feGaussianBlur result="blur"/>
      <feFlood flood-opacity="0.102"/>
      <feComposite operator="in" in2="blur"/>
      <feComposite in="SourceGraphic"/>
    </filter>
    <clipPath id="clip-path">
      <rect id="사각형_26957" data-name="사각형 26957" width="58.045" height="31.925" transform="translate(0 0)" fill="none" stroke="#000" stroke-width="1"/>
    </clipPath>
    <clipPath id="clip-path-2">
      <rect id="사각형_26961" data-name="사각형 26961" width="78" height="66" transform="translate(0 0.487)" fill="#fff" stroke="#707070" stroke-width="1"/>
    </clipPath>
    <filter id="타원_160-2" x="0.457" y="-9.765" width="85.405" height="85.405" filterUnits="userSpaceOnUse">
      <feOffset dx="3" dy="3" input="SourceAlpha"/>
      <feGaussianBlur result="blur-2"/>
      <feFlood flood-opacity="0.102"/>
      <feComposite operator="in" in2="blur-2"/>
      <feComposite in="SourceGraphic"/>
    </filter>
    <clipPath id="clip-path-3">
      <rect id="사각형_26957-2" data-name="사각형 26957" width="35.01" height="19.256" fill="none" stroke="#e7ff5e" stroke-width="1"/>
    </clipPath>
  </defs>
  <g id="deco" transform="translate(-1353 -5854)">
    <g id="그룹_23033" data-name="그룹 23033" transform="translate(1470.356 5895.135) rotate(16)">
      <g id="그룹_22845" data-name="그룹 22845" transform="translate(0 0)">
        <g transform="matrix(0.96, -0.28, 0.28, 0.96, -124.15, -7.19)" filter="url(#타원_160)">
          <g id="타원_160-3" data-name="타원 160" transform="translate(117.36 41.13) rotate(16)" fill="rgba(0,0,0,0)" stroke="#000" stroke-width="2">
            <circle cx="50.789" cy="50.789" r="50.789" stroke="none"/>
            <circle cx="50.789" cy="50.789" r="49.789" fill="none"/>
          </g>
        </g>
      </g>
      <g id="그룹_23032" data-name="그룹 23032" transform="translate(21.767 29.022)">
        <rect id="사각형_26955" data-name="사각형 26955" width="5.804" height="14.511" rx="2" transform="translate(11.609 0)"/>
        <rect id="사각형_26956" data-name="사각형 26956" width="5.804" height="14.511" rx="2" transform="translate(39.18 0)"/>
        <g id="마스크_그룹_167" data-name="마스크 그룹 167" transform="translate(0 18.865)" clip-path="url(#clip-path)">
          <g id="패스_4492" data-name="패스 4492" transform="translate(0 -26.12)" fill="none">
            <path d="M29.023,0A29.022,29.022,0,1,1,0,29.022,29.022,29.022,0,0,1,29.023,0Z" stroke="none"/>
            <path d="M 29.02256965637207 -5.7220458984375e-05 L 29.02256965637207 1.999942779541016 C 25.3736686706543 1.999950408935547 21.83496856689453 2.714141845703125 18.50477981567383 4.122703552246094 C 15.28718185424805 5.483623504638672 12.39707183837891 7.432323455810547 9.914710998535156 9.914661407470703 C 7.432361602783203 12.39700317382812 5.483650207519531 15.28710174560547 4.122711181640625 18.50468063354492 C 2.714160919189453 21.8348503112793 1.999961853027344 25.3735237121582 1.999950408935547 29.02240180969238 C 1.99993896484375 32.67127990722656 2.714130401611328 36.2099609375 4.122669219970703 39.54012298583984 C 5.483589172363281 42.7576904296875 7.432289123535156 45.64777374267578 9.914630889892578 48.13010406494141 C 12.39698028564453 50.61244201660156 15.28709030151367 52.56112289428711 18.50466918945312 53.92203140258789 C 21.83486175537109 55.33057403564453 25.37356185913086 56.04476165771484 29.02247047424316 56.04475402832031 C 32.67137145996094 56.04474258422852 36.21006774902344 55.33055114746094 39.54026031494141 53.92200088500977 C 42.75785827636719 52.56107330322266 45.64797210693359 50.61237335205078 48.13032913208008 48.13003158569336 C 50.61268997192383 45.6476936340332 52.5613899230957 42.75759124755859 53.92232894897461 39.54002380371094 C 55.33087921142578 36.20985412597656 56.04507827758789 32.67118072509766 56.04508972167969 29.02230262756348 C 56.04510116577148 25.3734130859375 55.33090972900391 21.83474349975586 53.92237091064453 18.50458145141602 C 52.56145095825195 15.28701400756836 50.61275100708008 12.39692306518555 48.13040924072266 9.914592742919922 C 45.6480598449707 7.432262420654297 42.75794982910156 5.483573913574219 39.54037094116211 4.122661590576172 C 36.21018218994141 2.714122772216797 32.67147827148438 1.999942779541016 29.02256965637207 1.999942779541016 L 29.02256965637207 -5.7220458984375e-05 M 29.02256965637207 -5.7220458984375e-05 C 45.05130004882812 -7.62939453125e-05 58.04512023925781 12.9936637878418 58.04508972167969 29.02230262756348 C 58.04505920410156 45.05093383789062 45.05118942260742 58.04472351074219 29.02247047424316 58.04475402832031 C 12.99374008178711 58.04478073120117 -8.0108642578125e-05 45.05103302001953 -4.9591064453125e-05 29.02240180969238 C -1.9073486328125e-05 12.99377059936523 12.99385070800781 -2.6702880859375e-05 29.02256965637207 -5.7220458984375e-05 Z" stroke="none" fill="#000"/>
          </g>
        </g>
      </g>
    </g>
    <g id="마스크_그룹_176" data-name="마스크 그룹 176" transform="translate(1353 5853.514)" clip-path="url(#clip-path-2)">
      <g id="그룹_23034" data-name="그룹 23034" transform="matrix(0.891, -0.454, 0.454, 0.891, 0.457, 18.537)">
        <g id="그룹_22845-2" data-name="그룹 22845" transform="translate(0)">
          <g transform="matrix(0.89, 0.45, -0.45, 0.89, 7.79, -16.29)" filter="url(#타원_160-2)">
            <circle id="타원_160-4" data-name="타원 160" cx="30.634" cy="30.634" r="30.634" transform="matrix(0.89, -0.45, 0.45, 0.89, 0.46, 18.05)"/>
          </g>
        </g>
        <g id="그룹_23032-2" data-name="그룹 23032" transform="translate(13.129 17.505)">
          <rect id="사각형_26955-2" data-name="사각형 26955" width="3.501" height="8.752" rx="1.751" transform="translate(7.002 0)" fill="#e7ff5e"/>
          <rect id="사각형_26956-2" data-name="사각형 26956" width="3.501" height="8.752" rx="1.751" transform="translate(23.632 0)" fill="#e7ff5e"/>
          <g id="마스크_그룹_167-2" data-name="마스크 그룹 167" transform="translate(0 11.378)" clip-path="url(#clip-path-3)">
            <g id="패스_4492-2" data-name="패스 4492" transform="translate(0 -15.754)" fill="none">
              <path d="M17.505,0A17.5,17.5,0,1,1,0,17.5,17.505,17.505,0,0,1,17.505,0Z" stroke="none"/>
              <path d="M 17.50496864318848 2.000049591064453 L 17.50497817993164 2.000049591064453 C 13.36379814147949 2.000049591064453 9.470258712768555 3.612918853759766 6.541599273681641 6.541547775268555 C 3.61292839050293 9.470197677612305 2.000038146972656 13.36374855041504 2.000049591064453 17.50495910644531 C 2.000057220458984 21.64648818969727 3.612878799438477 25.54013824462891 6.541408538818359 28.46864891052246 C 9.469938278198242 31.39715766906738 13.36361885070801 33.00997924804688 17.50517845153809 33.00998687744141 C 21.64635848999023 33.00998687744141 25.53988838195801 31.39711761474609 28.46855926513672 28.46847915649414 C 31.39724922180176 25.53982925415039 33.01013946533203 21.64627838134766 33.01012802124023 17.50507736206055 C 33.0101203918457 13.36354827880859 31.39729881286621 9.469898223876953 28.46876907348633 6.541387557983398 C 25.54022979736328 3.612878799438477 21.64654922485352 2.000057220458984 17.50496864318848 2.000049591064453 M 17.50498390197754 4.9591064453125e-05 C 17.50557327270508 4.9591064453125e-05 17.50444793701172 4.9591064453125e-05 17.50503921508789 4.9591064453125e-05 C 27.17279815673828 8.0108642578125e-05 35.01009750366211 7.837337493896484 35.01012802124023 17.50506782531738 C 35.01015853881836 27.17219924926758 27.17212295532227 35.00998687744141 17.50517654418945 35.00998687744141 C 17.50458526611328 35.00998687744141 17.50572967529297 35.00998687744141 17.5051383972168 35.00998687744141 C 7.837368011474609 35.00995635986328 8.0108642578125e-05 27.17269897460938 4.9591064453125e-05 17.50496864318848 C 1.9073486328125e-05 7.837827682495117 7.83802604675293 4.9591064453125e-05 17.50498390197754 4.9591064453125e-05 Z" stroke="none" fill="#e7ff5e"/>
            </g>
          </g>
        </g>
      </g>
    </g>
  </g>
</svg>
