<svg id="ic_heart" xmlns="http://www.w3.org/2000/svg" width="36" height="36" viewBox="0 0 36 36">
  <g id="그룹_28805" data-name="그룹 28805" transform="translate(-480 -643)">
    <rect id="사각형_26362" data-name="사각형 26362" width="36" height="36" transform="translate(480 643)" fill="rgba(255,133,133,0)" opacity="0.36"/>
    <rect id="사각형_26360" data-name="사각형 26360" width="30" height="30" transform="translate(483 646)" fill="rgba(255,133,133,0)" opacity="0.36"/>
  </g>
  <g id="패스_10415" data-name="패스 10415" transform="translate(7 8)" fill="none">
    <path d="M11,20S1.983,12.374.711,9.333C-2.7,1.185,7.038-2.711,11,2.1c3.962-4.81,13.7-.913,10.289,7.235C20.017,12.374,11,20,11,20Z" stroke="none"/>
    <path d="M 11.00004196166992 18.01861381530762 C 11.87296104431152 17.25620651245117 13.23145580291748 16.04851531982422 14.63561153411865 14.7180004119873 C 18.78424263000488 10.786940574646 19.70270156860352 9.237871170043945 19.90495109558105 8.754490852355957 C 20.73688125610352 6.765491008758545 20.69651222229004 4.992920875549316 19.78818130493164 3.628420829772949 C 18.91423225402832 2.315560817718506 17.30893135070801 1.500000834465027 15.59874153137207 1.500000834465027 C 14.20438194274902 1.500000834465027 12.9823522567749 2.051270961761475 12.15775203704834 3.052250862121582 L 11.00000190734863 4.45767068862915 L 9.842242240905762 3.052250862121582 C 9.017662048339844 2.051270961761475 7.795631885528564 1.500000834465027 6.401261806488037 1.500000834465027 C 4.691271781921387 1.500000834465027 3.086061954498291 2.315630912780762 2.212041854858398 3.628590822219849 C 1.303651928901672 4.993180751800537 1.263191938400269 6.765690803527832 2.094971895217896 8.754321098327637 C 2.297041893005371 9.23728084564209 3.214082002639771 10.78429126739502 7.354772090911865 14.70888042449951 C 8.76102352142334 16.04174423217773 10.1245584487915 17.25393867492676 11.00004196166992 18.01861381530762 M 11.00000190734863 20 C 11.00000190734863 20 1.983381867408752 12.37378120422363 0.7112119197845459 9.333300590515137 C -2.696857690811157 1.185181617736816 7.037620544433594 -2.711499691009521 11.00000190734863 2.098520755767822 C 14.96238040924072 -2.711499452590942 24.69685935974121 1.185181498527527 21.28878211975098 9.333300590515137 C 20.01662254333496 12.37378120422363 11.00000190734863 20 11.00000190734863 20 Z" stroke="none" fill="#fff"/>
  </g>
</svg>
