<svg id="ic_home" xmlns="http://www.w3.org/2000/svg" width="36" height="36" viewBox="0 0 36 36">
  <g id="그룹_28806" data-name="그룹 28806" transform="translate(-431 -345)">
    <rect id="사각형_26362" data-name="사각형 26362" width="36" height="36" transform="translate(431 345)" fill="rgba(255,133,133,0)" opacity="0.36"/>
    <rect id="사각형_26360" data-name="사각형 26360" width="30" height="30" transform="translate(434 348)" fill="rgba(255,133,133,0)" opacity="0.36"/>
  </g>
  <g id="합치기_133" data-name="합치기 133" transform="translate(6703.557 -27.416)" fill="rgba(255,255,255,0)">
    <path d="M -6688.68896484375 55.16627502441406 L -6694.806640625 55.16627502441406 L -6694.806640625 44.88722610473633 L -6685.5576171875 35.95872497558594 L -6676.30712890625 44.88864517211914 L -6676.30712890625 55.16484069824219 L -6682.42626953125 55.16611862182617 L -6682.42626953125 51.18940353393555 L -6682.42626953125 50.43940353393555 L -6683.17626953125 50.43940353393555 L -6687.93896484375 50.43940353393555 L -6688.68896484375 50.43940353393555 L -6688.68896484375 51.18940353393555 L -6688.68896484375 55.16627502441406 Z" stroke="none"/>
    <path d="M -6689.43896484375 54.41627502441406 L -6689.43896484375 49.68940353393555 L -6681.67626953125 49.68940353393555 L -6681.67626953125 54.41596221923828 L -6677.05712890625 54.41499710083008 L -6677.05712890625 45.20707321166992 L -6685.5576171875 37.00116348266602 L -6694.056640625 45.20565414428711 L -6694.056640625 54.41627502441406 L -6689.43896484375 54.41627502441406 M -6683.17626953125 55.91627502441406 L -6683.17626953125 51.18940353393555 L -6687.93896484375 51.18940353393555 L -6687.9404296875 55.91627502441406 L -6695.556640625 55.91627502441406 L -6695.55810546875 44.57020568847656 L -6685.5576171875 34.91627502441406 L -6675.55712890625 44.57020568847656 L -6675.55712890625 55.9146842956543 L -6683.17626953125 55.91627502441406 Z" stroke="none" fill="#fff"/>
  </g>
</svg>
