<svg xmlns="http://www.w3.org/2000/svg" width="339.076" height="31.845" viewBox="0 0 339.076 31.845">
  <g id="그룹_31110" data-name="그룹 31110" transform="translate(20853.922 15869.139)">
    <path id="패스_10785" data-name="패스 10785" d="M27.357-18.909H8.943v1.518H27.885v3.828H3.927V-27.918H27.72v3.828H8.943v1.452H27.357ZM29.6-8.019H2.079v-4.026H29.6ZM27.72,2.706H22.7v-4.95H3.762V-6.27H27.72ZM37.884-27.918v3.564h5.544v-3.564h4.818v2.277H52.9v-2.607h5.016V-12.87H52.9v-2.607H48.246v2.046H33.066V-27.918Zm10.362,6.237v2.244H52.9v-2.244ZM37.884-17.358h5.544v-3.1H37.884ZM57.915-2.706H39.8v1.485h18.48V2.541h-23.5V-6.435H52.9V-7.953H34.782v-3.828H57.915ZM79.332-26.1v3.96H61.743V-26.1h6.369v-3.036h5.049V-26.1ZM67.386-14.553a2.315,2.315,0,0,0,.759,1.716,3.49,3.49,0,0,0,2.409.825A3.578,3.578,0,0,0,73-12.837a2.315,2.315,0,0,0,.759-1.716A2.335,2.335,0,0,0,73-16.3a3.564,3.564,0,0,0-2.442-.792,3.476,3.476,0,0,0-2.409.792A2.335,2.335,0,0,0,67.386-14.553Zm-4.785,0a5.643,5.643,0,0,1,2.145-4.62,9.166,9.166,0,0,1,5.808-1.782A9.2,9.2,0,0,1,76.4-19.173a5.643,5.643,0,0,1,2.145,4.62A5.643,5.643,0,0,1,76.4-9.933a9.4,9.4,0,0,1-5.841,1.782,9.367,9.367,0,0,1-5.808-1.782A5.643,5.643,0,0,1,62.6-14.553Zm19.536-13.7h5.016v8.217h4.191v4.323H87.153V-5.94H82.137ZM64.317-7.062h5.049v5.247H87.648V2.376H64.317ZM113.949-20.2c-2.541,2.508-7.392,4.554-12.87,4.983v-4.224c5.742-.693,10.362-3,10.362-7.26v-1.386h5.016V-26.7c0,4.257,4.554,6.567,10.3,7.26v4.224C121.275-15.642,116.424-17.688,113.949-20.2ZM111.9-9.24H100.221v-4.191h27.522V-9.24H116.886v5.181H111.9ZM102.069-6.9h5.049v5.082H126.39V2.376H102.069Zm38.874-16.8h-10.1v-4.224h15.114v2.838c0,9.669-5.082,14.652-15.84,15.675v-4.224C137.412-14.52,140.91-18.018,140.943-23.694Zm9.306-4.554h5.016v7.821h4.191V-16.1h-4.191v9.24h-5.016ZM132.429-8.514h5.049v6.7H155.76V2.376H132.429ZM160.908.066h5.115V-4.653h-5.115Zm.429-7.788h4.224l.462-14.322v-3.993h-5.115v3.993Zm41.151-11.187H184.074v1.518h18.942v3.828H179.058V-27.918h23.793v3.828H184.074v1.452h18.414Zm2.244,10.89H177.21v-4.026h27.522ZM202.851,2.706h-5.016v-4.95H178.893V-6.27h23.958Zm10.164-30.624v3.564h5.544v-3.564h4.818v2.277h4.653v-2.607h5.016V-12.87H228.03v-2.607h-4.653v2.046H208.2V-27.918Zm10.362,6.237v2.244h4.653v-2.244Zm-10.362,4.323h5.544v-3.1h-5.544ZM233.046-2.706H214.929v1.485h18.48V2.541h-23.5V-6.435H228.03V-7.953H209.913v-3.828h23.133Zm21.417-23.4v3.96H236.874V-26.1h6.369v-3.036h5.049V-26.1Zm-11.946,11.55a2.315,2.315,0,0,0,.759,1.716,3.49,3.49,0,0,0,2.409.825,3.578,3.578,0,0,0,2.442-.825,2.316,2.316,0,0,0,.759-1.716,2.335,2.335,0,0,0-.759-1.749,3.564,3.564,0,0,0-2.442-.792,3.476,3.476,0,0,0-2.409.792A2.335,2.335,0,0,0,242.517-14.553Zm-4.785,0a5.643,5.643,0,0,1,2.145-4.62,9.166,9.166,0,0,1,5.808-1.782,9.2,9.2,0,0,1,5.841,1.782,5.643,5.643,0,0,1,2.145,4.62,5.643,5.643,0,0,1-2.145,4.62,9.4,9.4,0,0,1-5.841,1.782,9.367,9.367,0,0,1-5.808-1.782A5.643,5.643,0,0,1,237.732-14.553Zm19.536-13.7h5.016v8.217h4.191v4.323h-4.191V-5.94h-5.016ZM239.448-7.062H244.5v5.247h18.282V2.376H239.448Zm47.091-13.761V-23.5h-10.23V-27.72h15.246v6.3c0,12.045-4.488,19.47-15.444,22.044V-3.96C283.437-6.072,286.539-11.814,286.539-20.823Zm8.811-7.425h5.016v11.913h4.455v4.323h-4.455V2.211H295.35Zm20.856,4.554h-9.867v-4.224h14.85v2.739h4.983v-3.069h5.016v17.754h-5.016v-3.465h-5.94v-4.158h5.94v-2.9h-5.379c-1.386,6.633-6.5,9.867-15.18,10.659v-4.257C312.576-15.279,316.173-18.513,316.206-23.694ZM307.692-4.917V-9.141h23.5V2.706h-5.016V-4.917ZM336.039.066h5.115V-4.653h-5.115Zm.429-7.788h4.224l.462-14.322v-3.993h-5.115v3.993Z" transform="translate(-20856 -15840)" fill="#fff"/>
  </g>
</svg>
