<svg xmlns="http://www.w3.org/2000/svg" width="352.195" height="45.285" viewBox="0 0 352.195 45.285">
  <g id="그룹_31113" data-name="그룹 31113" transform="translate(14171.195 15551.5)">
    <path id="패스_10789" data-name="패스 10789" d="M18.975-13.761c0,5.643-.561,9.735-2.508,12.078A6.82,6.82,0,0,1,10.89.66,6.953,6.953,0,0,1,5.313-1.683C3.366-4.026,2.805-8.118,2.805-13.761c0-5.61.561-9.7,2.508-12.045a6.9,6.9,0,0,1,5.577-2.409,6.768,6.768,0,0,1,5.577,2.409C18.414-23.463,18.975-19.371,18.975-13.761Zm-11.187,0c0,4.785.264,7.92,1.188,9.273a2.288,2.288,0,0,0,1.914.957,2.348,2.348,0,0,0,1.947-.957c.924-1.353,1.188-4.488,1.188-9.273,0-4.752-.264-7.887-1.188-9.24a2.378,2.378,0,0,0-1.947-.99A2.317,2.317,0,0,0,8.976-23C8.052-21.648,7.788-18.513,7.788-13.761ZM22.836-28.248h5.016V2.211H22.836Zm18.282,4.719V-27.72H53.559v4.191H49.731v8.976c0,7.062,1.452,9.207,4.125,10.527V.3a10.776,10.776,0,0,1-6.534-4.422A10.8,10.8,0,0,1,40.821.3V-4.026c2.805-1.386,4.158-3.465,4.158-10.527v-8.976ZM55.44-12.573H51.612v-4.29H55.44v-11.22h4.62V1.947H55.44ZM66.4-28.248V2.211H61.677V-28.248Zm25.443,7.623H96.36V-16.6H71.544v-4.026H75.7v-3.267H72.039v-4.026H95.832v4.026H92.169v1.452A4.563,4.563,0,0,1,91.839-20.625Zm-4.587-3.267h-6.6v3.267h6.3a4.056,4.056,0,0,0,.3-1.551Zm-5.808,13.1H70.191v-4.125H97.713v4.125H86.427V-8.58h9.4V2.541H72.039V-8.58h9.4ZM77.055-1.452H90.849V-4.521H77.055Zm28.974-3.861h-5.412V.066h2.739c0,1.518-.957,2.31-2.739,2.376V4.785c3.663-.1,5.412-2.046,5.412-4.719Zm11.913-18.381v-4.224h16.1v4.224h-5.61v1.353c0,5.214,2.244,7.326,6.171,8.118v4.29c-3.564-.495-6.8-2.046-8.547-4.356A13.515,13.515,0,0,1,117.348-9.6v-4.29c3.894-.792,6.138-3.135,6.138-8.448v-1.353Zm24.849-4.554V-6.864h-5.016V-28.248Zm.495,26.433V2.376H119.658V-8.481h5.016v6.666Zm7.92-13.431c-3.234,0-4.62,2.475-4.62,6.072l4.62-.033c0-1.188.495-1.749,1.353-1.749,1.584,0,2.475,2.013,5.643,2.013,3.234,0,4.62-2.475,4.62-6.072l-4.62.033c-.033,1.188-.5,1.749-1.353,1.749C155.232-13.233,154.374-15.246,151.206-15.246Zm13.959-8.25V-27.72h18.48V-23.5h-2.838v11.088c0,5.412.858,6.963,3,8.316V.264A9.463,9.463,0,0,1,178.332-3.6,11.572,11.572,0,0,1,174.4.264,11.014,11.014,0,0,1,170.478-3.6,9.22,9.22,0,0,1,165,.264V-4.092c2.145-1.353,2.97-2.9,2.97-8.316V-23.5Zm10.824,0h-3.2V-12.54c0,4.257.627,6.237,1.617,7.59.957-1.353,1.584-3.3,1.584-7.59Zm9.438-4.752h4.983v11.913H194.4v4.323H190.41V2.211h-4.983Zm18.15,4.455v-4.125h16.17v4.125H214.17c.3,4.026,2.508,5.643,6.138,6.237v4.191c-3.6-.4-6.8-1.749-8.58-3.96A13.3,13.3,0,0,1,203.016-13v-4.191c3.531-.66,5.841-2.475,6.138-6.6Zm19.4-4.455H228V-22.9h4.191v4.323H228v5.247h-5.016ZM228-2.871h-17.82v1.617H228.36v3.8h-23.2V-6.6h17.853V-8.316H205.161v-3.8H228Zm27.159,3.1H242.022V-27.918h4.95V-3.96h8.976c2.442,0,4.092-.4,5.115-1.221V-28.248h5.016v11.913h4.455v4.323h-4.455V2.211h-5.016V-1.155C260.007-.2,257.928.231,255.156.231Zm27.126-21.054V-23.5h-10.23V-27.72H287.3v6.3c0,12.045-4.488,19.47-15.444,22.044V-3.96C279.18-6.072,282.282-11.814,282.282-20.823Zm8.811-7.425h5.016v11.913h4.455v4.323h-4.455V2.211h-5.016Zm31.515,9.5a4.193,4.193,0,0,0-1.584-3.465c-1.386-1.089-3.531-1.551-6.105-1.551-2.607,0-4.752.462-6.1,1.551a4.129,4.129,0,0,0-1.617,3.465,4.129,4.129,0,0,0,1.617,3.465c1.353,1.089,3.5,1.584,6.1,1.584,2.574,0,4.719-.495,6.105-1.584A4.193,4.193,0,0,0,322.608-18.744Zm5.049,0a8.14,8.14,0,0,1-3.1,6.666,11.243,11.243,0,0,1-1.617,1.023V-3.3h5.544V.957H301.29V-3.3H307v-7.689a11.262,11.262,0,0,1-1.749-1.089,8.115,8.115,0,0,1-3.069-6.666,8.071,8.071,0,0,1,3.069-6.666c2.244-1.782,5.643-2.673,9.669-2.673,3.993,0,7.392.891,9.636,2.673A8.1,8.1,0,0,1,327.657-18.744Zm-9.7,9.108a22.347,22.347,0,0,1-3.036.2,27.633,27.633,0,0,1-2.937-.165v6.3h5.973Z" transform="translate(-14174 -15511)"/>
    <g id="ic_t_best" transform="translate(-13840 -15551.5)">
      <rect id="사각형_27086" data-name="사각형 27086" width="18" height="28" transform="translate(3 3.5)" fill="none"/>
      <g id="합치기_11" data-name="합치기 11" transform="translate(3 6.5)" fill="none">
        <path d="M0,22.834-.023,10.84H2.39A6.7,6.7,0,0,0,4.5,5.587C4.342,2.207,4.758.041,7.205,0c2.275-.038,4.247,2.83,3.929,7.569h3.246a3.1,3.1,0,0,1,3.063,3.125l-1.256,8.974a3.1,3.1,0,0,1-3.063,3.125H10.707l0,.041Z" stroke="none"/>
        <path d="M 8.616169929504395 20.83389663696289 L 8.614290237426758 20.79250717163086 L 13.12470054626465 20.79250717163086 C 13.71067047119141 20.79250717163086 14.18740081787109 20.28791618347168 14.18740081787109 19.66769790649414 L 14.18740081787109 19.52836608886719 L 15.43912696838379 10.58786296844482 C 15.38850593566895 10.01715278625488 14.93330860137939 9.568997383117676 14.38110065460205 9.568997383117676 L 8.996060371398926 9.568997383117676 L 9.139180183410645 7.435146808624268 C 9.314590454101562 4.820026874542236 8.662750244140625 3.124397039413452 7.994240283966064 2.409537076950073 C 7.819350242614746 2.222537040710449 7.548380374908447 1.999616980552673 7.250590324401855 1.999616980552673 L 7.239230632781982 1.999706983566284 C 7.025540351867676 2.003326892852783 6.881560325622559 2.039506912231445 6.849770545959473 2.073386907577515 C 6.73529052734375 2.195367097854614 6.371530532836914 2.802556991577148 6.496910572052002 5.493556976318359 C 6.580540657043457 7.277976989746094 6.134810447692871 9.018827438354492 5.207900524139404 10.52791690826416 C 4.52146053314209 11.64550685882568 3.800840377807617 12.26875686645508 3.663360357284546 12.38234710693359 L 3.10882043838501 12.84049701690674 L 1.981410145759583 12.84049701690674 L 1.997005939483643 20.83389663696289 L 8.616169929504395 20.83389663696289 M 10.7091007232666 22.83389663696289 L 0.0009004440507851541 22.83389663696289 L -0.02249955572187901 10.84049701690674 L 2.389500379562378 10.84049701690674 C 2.389500379562378 10.84049701690674 4.657500267028809 8.966696739196777 4.499100208282471 5.587196826934814 C 4.34160041809082 2.206796884536743 4.758300304412842 0.04139698669314384 7.205400466918945 -3.014526328115608e-06 C 9.480243682861328 -0.03848268836736679 11.4525899887085 2.829726934432983 11.13470077514648 7.568996906280518 L 14.38110065460205 7.568996906280518 C 16.07220077514648 7.568996906280518 17.44379997253418 8.968497276306152 17.44379997253418 10.69379711151123 L 16.18740081787109 19.66769790649414 C 16.18740081787109 21.39299774169922 14.81580066680908 22.79250717163086 13.12470054626465 22.79250717163086 L 10.70719051361084 22.79250717163086 C 10.70843029022217 22.8198070526123 10.7091007232666 22.83389663696289 10.7091007232666 22.83389663696289 Z" stroke="none" fill="#000"/>
      </g>
      <rect id="사각형_27196" data-name="사각형 27196" width="2" height="12" transform="translate(0 17.299)"/>
      <line id="선_7" data-name="선 7" x2="3" y2="3" transform="translate(4.5 2)" fill="none" stroke="#000" stroke-width="2"/>
      <line id="선_9" data-name="선 9" x1="3" y2="3" transform="translate(13.5 2)" fill="none" stroke="#000" stroke-width="2"/>
      <line id="선_8" data-name="선 8" y2="4" transform="translate(10.5)" fill="none" stroke="#000" stroke-width="2"/>
    </g>
  </g>
</svg>
