<svg xmlns="http://www.w3.org/2000/svg" width="386.396" height="31.746" viewBox="0 0 386.396 31.746">
  <g id="그룹_31112" data-name="그룹 31112" transform="translate(14310.921 15838.139)">
    <path id="패스_10788" data-name="패스 10788" d="M2.64-21.582v-4.191H8.217v-3.366H13.2v3.366h5.61v4.191H13.3c.462,3.828,2.607,5.577,6.039,6.237v4.29c-3.564-.462-6.831-1.98-8.58-4.29a13.465,13.465,0,0,1-8.679,4.653v-4.29c3.432-.693,5.577-2.64,6.039-6.6Zm19.437-6.666h5.016v6.567h4.191v4.29H27.093v6.534H22.077ZM15.642-.726C13.266,1.32,9.108,2.508,3.432,2.541V-1.584c5.247-.1,9.009-1.254,9.6-3.762H4.257V-9.5H27.093v4.158H18.249c.594,2.475,4.323,3.63,9.6,3.762V2.541C22.044,2.475,17.919,1.353,15.642-.726Zm37.95-17.853a4.451,4.451,0,0,0-1.65-3.663A10.242,10.242,0,0,0,45.9-23.76a10.286,10.286,0,0,0-6.072,1.518,4.451,4.451,0,0,0-1.65,3.663,4.451,4.451,0,0,0,1.65,3.663A10.039,10.039,0,0,0,45.9-13.365a10,10,0,0,0,6.039-1.551A4.451,4.451,0,0,0,53.592-18.579Zm-20.427,0A8.571,8.571,0,0,1,36.63-25.74c2.244-1.65,5.412-2.343,9.273-2.343,3.828,0,7,.693,9.24,2.343a8.6,8.6,0,0,1,3.5,7.161,8.615,8.615,0,0,1-3.5,7.194c-2.244,1.617-5.412,2.31-9.24,2.31-3.861,0-7.029-.693-9.273-2.31A8.589,8.589,0,0,1,33.165-18.579ZM59.466.957H32.274v-4.29H59.466ZM70.884-5.808C69.333-2.937,65.769-.561,62.073.3V-4.125c3.531-1.584,6.3-4.224,6.3-12.771V-27.918h5.016V-16.9c0,8.547,2.739,11.154,6.336,12.771V.3A14.114,14.114,0,0,1,70.884-5.808ZM82.9-28.248h5.016V2.211H82.9Zm11.121.165h5.016v6.963h18.942v4.191H94.017ZM119.691-9.834H92.169v-4.224h27.522ZM94.017-7.722h5.049v5.907h19.272V2.376H94.017Zm47.19-16.17h-10v-4.026H146.19v2.64c0,8.58-5.313,13.035-15.708,13.992v-4.059c4.026-.429,6.864-1.254,8.613-2.838a31.9,31.9,0,0,1-4.323.264h-3.564v-3.993h3.729a28.293,28.293,0,0,0,6.171-.429A11.494,11.494,0,0,0,141.207-23.892Zm14.85-4.356v16.236h-5.016v-6.039h-4.587v-4.29h4.587v-5.907ZM137.94-7.953h13.134v-3h4.983v13.5H132.924v-13.5h5.016Zm13.134,6.435v-2.31H137.94v2.31Zm58.311-12.243c0,1.155-.033,2.244-.066,3.267h3.927v-7.26h-3.993C209.352-16.533,209.385-15.18,209.385-13.761Zm-.561,7.524a10.349,10.349,0,0,1-1.947,4.554A6.82,6.82,0,0,1,201.3.66a6.953,6.953,0,0,1-5.577-2.343c-1.947-2.343-2.508-6.435-2.508-12.078,0-5.61.561-9.7,2.508-12.045a6.9,6.9,0,0,1,5.577-2.409,6.768,6.768,0,0,1,5.577,2.409,9.486,9.486,0,0,1,1.749,3.762h4.62v-6.2h5.016V2.211h-5.016V-6.237ZM198.2-13.761c0,4.785.264,7.92,1.188,9.273a2.288,2.288,0,0,0,1.914.957,2.348,2.348,0,0,0,1.947-.957c.924-1.353,1.188-4.488,1.188-9.273,0-4.752-.264-7.887-1.188-9.24a2.378,2.378,0,0,0-1.947-.99,2.317,2.317,0,0,0-1.914.99C198.462-21.648,198.2-18.513,198.2-13.761Zm35.607-7.062V-23.5H223.641V-27.72h15.147v6.3c0,12.111-4.455,19.47-15.312,22.044V-3.96C230.736-6.072,233.805-11.814,233.805-20.823Zm9.471-7.425h5.016V2.211h-5.016Zm9.8,8.085a8.036,8.036,0,0,1,2.805-6.633,8.564,8.564,0,0,1,5.379-1.65,8.6,8.6,0,0,1,5.412,1.65c1.782,1.386,2.772,3.663,2.772,6.633s-.99,5.214-2.772,6.633a8.789,8.789,0,0,1-5.412,1.617,8.756,8.756,0,0,1-5.379-1.617A8.08,8.08,0,0,1,253.077-20.163Zm4.851,0a4.382,4.382,0,0,0,1.155,3.3,3.2,3.2,0,0,0,2.178.792,3.082,3.082,0,0,0,2.178-.792,4.267,4.267,0,0,0,1.188-3.3,4.346,4.346,0,0,0-1.188-3.333,2.926,2.926,0,0,0-2.178-.759,3.029,3.029,0,0,0-2.178.759A4.464,4.464,0,0,0,257.928-20.163Zm20.427-8.085v17.061h-5.016V-28.248ZM266.9,2.574a10.148,10.148,0,0,1-5.313-3.8,12.42,12.42,0,0,1-7.458,3.828V-1.584c3.168-1.122,4.884-3.168,4.884-7.392V-9.9h4.95v.957c0,3.564,1.188,5.643,2.937,6.9,1.749-1.254,2.9-3.333,2.9-6.9V-9.9h4.983v.924c0,4.224,1.683,6.27,4.851,7.392V2.574a12.581,12.581,0,0,1-7.425-3.8A10.07,10.07,0,0,1,266.9,2.574Zm29.4-23.694c-2.772,2.541-7.821,4.323-12.87,4.62v-4.158c5.412-.528,10.362-2.574,10.362-6.831v-.594h5.016v.594c0,4.224,4.752,6.237,10.3,6.831V-16.5C304-16.83,299.145-18.579,296.307-21.12ZM310.1-11.253H282.579v-4.125H310.1ZM284.427,2.541V-9.8h5.016v2.31h13.794V-9.8h4.983V2.541Zm5.016-3.993h13.794V-3.465H289.443ZM327.426.231h-13.7V-27.918h4.983V-3.96h9.5c2.475,0,4.158-.4,5.148-1.287v-23h5.016V2.211h-5.016V-1.221C332.343-.2,330.3.231,327.426.231Zm29.3,0H343.6V-27.72h15.147V-23.5h-10.2V-3.96h8.976c2.442,0,4.092-.4,5.115-1.221V-28.248h5.016v11.913h4.455v4.323h-4.455V2.211h-5.016V-1.155C361.581-.2,359.5.231,356.73.231Zm20.13-15.477c-3.234,0-4.62,2.475-4.62,6.072l4.62-.033c0-1.188.5-1.749,1.353-1.749,1.584,0,2.475,2.013,5.643,2.013,3.234,0,4.62-2.475,4.62-6.072l-4.62.033c-.033,1.188-.495,1.749-1.353,1.749C380.886-13.233,380.028-15.246,376.86-15.246Z" transform="translate(-14313 -15809)"/>
    <g id="그룹_23703" data-name="그룹 23703" transform="translate(-14152 -15836.326)">
      <g id="그룹_23704" data-name="그룹 23704">
        <g id="그룹_23058" data-name="그룹 23058" transform="translate(0.856 5.325)">
          <g id="패스_4495" data-name="패스 4495" transform="translate(0)" fill="none">
            <path d="M0,0H20L17.669,24H2.331Z" stroke="none"/>
            <path d="M 2.203672409057617 2 L 4.146288871765137 22 L 15.85371208190918 22 L 17.79632759094238 2 L 2.203672409057617 2 M 0 0 L 20 0 L 17.66885948181152 24 L 2.331140518188477 24 L 0 0 Z" stroke="none" fill="#000"/>
          </g>
        </g>
        <rect id="사각형_27048" data-name="사각형 27048" width="22" height="2" transform="translate(0 5.326)"/>
        <path id="패스_4623" data-name="패스 4623" d="M-4777.113-8617.576l1.081-6.749h4.775" transform="translate(4791.238 8624.325)" fill="none" stroke="#000" stroke-width="2"/>
      </g>
    </g>
  </g>
</svg>
