<svg xmlns="http://www.w3.org/2000/svg" xmlns:xlink="http://www.w3.org/1999/xlink" width="155" height="36.527" viewBox="0 0 155 36.527">
  <defs>
    <clipPath id="clip-path">
      <rect id="사각형_27101" data-name="사각형 27101" width="12" height="17" transform="translate(82 0.489)" fill="#fff" stroke="#707070" stroke-width="1"/>
    </clipPath>
  </defs>
  <g id="그룹_31116" data-name="그룹 31116" transform="translate(18621.613 24852)">
    <path id="패스_10795" data-name="패스 10795" d="M1.386-13c0,3.894.561,7.425,2.508,10C5.577-.759,8.085.528,11.913.528c6.2,0,9.9-3.63,10.23-9.372H16.731c-.2,3-1.848,4.818-4.818,4.818A4.217,4.217,0,0,1,8.151-5.841c-.924-1.353-1.32-3.3-1.32-7.161,0-3.828.4-5.775,1.32-7.128a4.217,4.217,0,0,1,3.762-1.815c2.97,0,4.62,1.815,4.818,4.818h5.412c-.33-5.742-4.026-9.372-10.23-9.372-3.828,0-6.336,1.287-8.019,3.531C1.947-20.394,1.386-16.863,1.386-13ZM37.422.066h5.511v-26.1H37.488V-9.273L29.205-26.037H23.727V.066h5.412V-16.665Zm6.237-21.582h6.9V.066H56V-21.516h6.93v-4.521H43.659Zm20.262,3.333H68.31v-7.854H63.921ZM70.059-5.346c0,3.333,2.772,5.874,7.722,5.874C82.6.528,85.5-1.98,85.5-5.346s-1.749-5.082-5.94-5.874l-1.848-.33c-1.782-.33-2.475-.891-2.475-1.98s.759-1.815,2.178-1.815c1.485,0,2.211.792,2.211,1.848v.363h5.115v-.33c0-3.234-2.574-5.577-7.326-5.577-4.62,0-7.359,2.409-7.359,5.709,0,3.234,2.046,4.983,6.039,5.709l1.815.33c1.881.33,2.508.957,2.508,2.145,0,1.155-.99,1.98-2.607,1.98-1.65,0-2.64-.792-2.64-2.013v-.495H70.059Zm35.376-3.861c5.445,0,8.58-3.036,8.58-8.415,0-5.346-3.135-8.415-8.58-8.415H94.908V.066h5.412V-9.207Zm-5.115-4.521v-7.788h4.389c2.574,0,3.861,1.32,3.861,3.894s-1.287,3.894-3.861,3.894Zm14.652-7.821h5.148v-4.488h-5.148Zm0,21.615h5.148V-18.579h-5.148Zm6.435-9.339c0,6.039,2.772,9.8,8.712,9.8,5.049,0,8.118-2.574,8.415-6.93h-5.115a2.978,2.978,0,0,1-3.3,2.937c-2.574,0-3.564-1.881-3.564-5.808,0-3.894.99-5.775,3.564-5.775a2.978,2.978,0,0,1,3.3,2.937h5.115c-.3-4.356-3.366-6.93-8.415-6.93C124.179-19.041,121.407-15.279,121.407-9.273ZM139.557.066h5.181V-7.722h1.452L150.876.066h5.511l-6.039-9.7,5.247-8.943H150.15l-3.927,7.029h-1.485V-26.037h-5.181Z" transform="translate(-18623 -24816)"/>
    <path id="패스_10796" data-name="패스 10796" d="M0,0H7V13H0Z" transform="translate(-18508.5 -24845)" fill="#fff"/>
    <g id="마스크_그룹_228" data-name="마스크 그룹 228" transform="translate(-18591 -24852.488)" clip-path="url(#clip-path)">
      <path id="패스_4639" data-name="패스 4639" d="M4.934,0,9.324,6.159,0,15.59Z" transform="translate(83.166 1.298) rotate(-8)"/>
    </g>
  </g>
</svg>
