<svg xmlns="http://www.w3.org/2000/svg" xmlns:xlink="http://www.w3.org/1999/xlink" width="282.579" height="42.706" viewBox="0 0 282.579 42.706">
  <defs>
    <clipPath id="clip-path">
      <rect id="사각형_26988" data-name="사각형 26988" width="16" height="10" transform="translate(48.968 5339.312)" fill="none"/>
    </clipPath>
  </defs>
  <g id="그룹_31114" data-name="그룹 31114" transform="translate(14246.921 15247)">
    <path id="패스_10791" data-name="패스 10791" d="M27.72-27.918v4.026H20.592v3.564h7.293V-16.3h-9.6v2.508H29.6v4.158H2.079v-4.158H13.3V-16.3H3.927V-27.918H14.685v4.026H8.877v3.564h6.864v-7.59Zm0,30.624H22.7V-3.4H3.762V-7.524H27.72ZM57.75-27.918v4.026H50.622v3.564h7.293V-16.3h-9.6v2.508H59.631v4.158H32.109v-4.158h11.22V-16.3H33.957V-27.918H44.715v4.026H38.907v3.564h6.864v-7.59Zm0,30.624H52.734V-3.4H33.792V-7.524H57.75ZM79.4-20.889H61.974v-4.257h6.2v-3.993h5.016v3.993h6.2ZM68.013-9.306c0,2.574.33,4.29,1.122,5.214a2.063,2.063,0,0,0,1.683.726A2.107,2.107,0,0,0,72.5-4.092c.792-.924,1.089-2.64,1.089-5.214s-.3-4.257-1.089-5.181a2.107,2.107,0,0,0-1.683-.726,2.063,2.063,0,0,0-1.683.726C68.343-13.563,68.013-11.88,68.013-9.306Zm-4.917,0c0-3.729.825-6.633,2.673-8.349a6.949,6.949,0,0,1,5.049-1.815,7,7,0,0,1,5.049,1.815c1.848,1.716,2.673,4.62,2.673,8.349,0,3.762-.825,6.633-2.673,8.382A7.13,7.13,0,0,1,70.818.858,7.074,7.074,0,0,1,65.769-.924C63.921-2.673,63.1-5.544,63.1-9.306ZM82.137-28.248h5.016v11.913h4.455v4.323H87.153V2.211H82.137Zm30.855,12.276v-7.491H93.654V-27.72h24.354v10.791a54.511,54.511,0,0,1-.825,9.768h-5.016A49.628,49.628,0,0,0,112.992-15.972ZM100.848-3.3V-16.632H105.9V-3.3h13.629V.957H92.334V-3.3Zm45.474-8.646H130.845V-27.918h15.477Zm-4.851-4.125v-7.656h-5.808v7.656Zm8.778-12.177h5.016v7.128h4.191v4.29h-4.191v7.755h-5.016ZM144.012-2.112C141.5.3,137.346,2.244,131.7,2.574V-1.584c6.336-.825,9.8-3.4,9.8-7.392v-.99h5.016v.99c0,3.993,3.5,6.6,9.8,7.392V2.574C150.546,2.244,146.454.3,144.012-2.112Zm16.8-18.051a8.036,8.036,0,0,1,2.805-6.633,8.564,8.564,0,0,1,5.379-1.65A8.6,8.6,0,0,1,174.4-26.8c1.782,1.386,2.772,3.663,2.772,6.633s-.99,5.214-2.772,6.633a8.789,8.789,0,0,1-5.412,1.617,8.756,8.756,0,0,1-5.379-1.617A8.08,8.08,0,0,1,160.809-20.163Zm4.851,0a4.382,4.382,0,0,0,1.155,3.3,3.2,3.2,0,0,0,2.178.792,3.082,3.082,0,0,0,2.178-.792,4.267,4.267,0,0,0,1.188-3.3,4.346,4.346,0,0,0-1.188-3.333,2.927,2.927,0,0,0-2.178-.759,3.029,3.029,0,0,0-2.178.759A4.464,4.464,0,0,0,165.66-20.163Zm20.427-8.085v17.061h-5.016V-28.248ZM174.636,2.574a10.147,10.147,0,0,1-5.313-3.8,12.42,12.42,0,0,1-7.458,3.828V-1.584c3.168-1.122,4.884-3.168,4.884-7.392V-9.9h4.95v.957c0,3.564,1.188,5.643,2.937,6.9,1.749-1.254,2.9-3.333,2.9-6.9V-9.9h4.983v.924c0,4.224,1.683,6.27,4.851,7.392V2.574a12.58,12.58,0,0,1-7.425-3.8A10.07,10.07,0,0,1,174.636,2.574Zm17.523-30.657h5.016v6.963h18.942v4.191H192.159ZM217.833-9.834H190.311v-4.224h27.522ZM192.159-7.722h5.049v5.907H216.48V2.376H192.159Zm57.057-12.639v-3.267H229.878v-4.29h24.354v7a43.071,43.071,0,0,1-.627,8.151h-5.016A40.168,40.168,0,0,0,249.216-20.361Zm-9.6,13.926H228.558v-4.257H255.75v4.257H244.629V2.706h-5.016ZM271.326-27.72V.231H259.38V-27.72ZM263.967-3.861h2.805V-23.6h-2.805Zm20.691-24.387V2.211h-4.719V-12.408H277.86V1.947h-4.653v-30.03h4.653v11.418h2.079V-28.248Z" transform="translate(-14249 -15207)"/>
    <g id="마스크_그룹_186" data-name="마스크 그룹 186" transform="translate(-14245.968 -20586.313)" clip-path="url(#clip-path)">
      <path id="패스_4504" data-name="패스 4504" d="M571.679,5330l1.075,6.02" transform="translate(-520.45 10.328)" fill="none" stroke="#000" stroke-width="2"/>
      <path id="패스_4505" data-name="패스 4505" d="M577.647,5330.261l-2.361,5.791" transform="translate(-519.266 10.413)" fill="none" stroke="#000" stroke-width="2"/>
      <path id="패스_4506" data-name="패스 4506" d="M582.367,5333.246,577.6,5337.3" transform="translate(-518.507 11.393)" fill="none" stroke="#000" stroke-width="2"/>
    </g>
  </g>
</svg>
