<svg xmlns="http://www.w3.org/2000/svg" width="331.724" height="34.706" viewBox="0 0 331.724 34.706">
  <g id="그룹_31115" data-name="그룹 31115" transform="translate(14179.723 15065)">
    <path id="패스_10790" data-name="패스 10790" d="M2.277-20.922a7.035,7.035,0,0,1,2.871-5.907,8.792,8.792,0,0,1,5.346-1.617,8.792,8.792,0,0,1,5.346,1.617,7.035,7.035,0,0,1,2.871,5.907,7.249,7.249,0,0,1-2.871,5.973,9,9,0,0,1-5.346,1.584,9,9,0,0,1-5.346-1.584A7.249,7.249,0,0,1,2.277-20.922Zm4.851,0A3.642,3.642,0,0,0,8.25-18.15a3.356,3.356,0,0,0,2.244.759,3.3,3.3,0,0,0,2.244-.759,3.642,3.642,0,0,0,1.122-2.772,3.618,3.618,0,0,0-1.122-2.739,3.313,3.313,0,0,0-2.244-.792,3.375,3.375,0,0,0-2.244.792A3.618,3.618,0,0,0,7.128-20.922Zm14.949-7.326h5.016V-22.9h4.191v4.323H27.093v5.247H22.077ZM27.093-2.871H9.273v1.617H27.456v3.8H4.257V-6.6H22.11V-8.316H4.257v-3.8H27.093Zm5.577-18.48v-4.191h5.577v-3.6H43.23v3.6h5.61v4.191H43.23c.165,4.818,2.343,6.8,6.138,7.524V-9.5c-3.564-.462-6.831-2.046-8.58-4.323a13.646,13.646,0,0,1-8.679,4.686v-4.323c3.729-.726,5.973-2.97,6.138-7.887Zm19.437-6.9h5.016v7.854h4.191v4.323H57.123v9.306H52.107ZM34.287-8.118h5.049v6.3H57.618V2.376H34.287Zm52.8-5.643c0,5.643-.561,9.735-2.508,12.078A6.82,6.82,0,0,1,79,.66a6.953,6.953,0,0,1-5.577-2.343c-1.947-2.343-2.508-6.435-2.508-12.078,0-5.61.561-9.7,2.508-12.045A6.9,6.9,0,0,1,79-28.215a6.768,6.768,0,0,1,5.577,2.409C86.526-23.463,87.087-19.371,87.087-13.761Zm-11.187,0c0,4.785.264,7.92,1.188,9.273A2.288,2.288,0,0,0,79-3.531a2.348,2.348,0,0,0,1.947-.957c.924-1.353,1.188-4.488,1.188-9.273,0-4.752-.264-7.887-1.188-9.24A2.378,2.378,0,0,0,79-23.991a2.317,2.317,0,0,0-1.914.99C76.164-21.648,75.9-18.513,75.9-13.761ZM90.948-28.248h5.016V2.211H90.948Zm14.454.33v5.313h3.366v-5.313h4.389v6.567H115.5v-6.732h4.521V-7.161H115.5v-9.933h-2.343v7.161H100.98V-27.918Zm0,13.893h3.366v-4.488H105.4Zm21.054,7.392H121.77V-28.248h4.686Zm.495,4.818V2.376H103.059V-8.085h5.016v6.27ZM156.09-27.72V-23.5H136.95v3.729h18.777v4.191H136.95v3.762h19.5v4.29H131.9v-20.2ZM157.608.957H130.416v-4.29h27.192Zm13.86-21.78V-23.5h-10.23V-27.72h15.246v6.3C176.484-9.372,172-1.947,161.04.627V-3.96C168.366-6.072,171.468-11.814,171.468-20.823Zm8.811-7.425h5.016v11.913h4.455v4.323h-4.455V2.211h-5.016Zm29.271,7.425V-23.5H199.32V-27.72h15.246v6.3c0,12.045-4.488,19.47-15.444,22.044V-3.96C206.448-6.072,209.55-11.814,209.55-20.823Zm8.811-7.425h5.016v11.913h4.455v4.323h-4.455V2.211h-5.016Zm14.223,13c-3.234,0-4.62,2.475-4.62,6.072l4.62-.033c0-1.188.495-1.749,1.353-1.749,1.584,0,2.475,2.013,5.643,2.013,3.234,0,4.62-2.475,4.62-6.072l-4.62.033c-.033,1.188-.5,1.749-1.353,1.749C236.61-13.233,235.752-15.246,232.584-15.246ZM271.92-27.918v4.026H253.143v3.531h18.942v4.026H248.127V-27.918ZM273.8-9.933H246.279v-4.125H273.8ZM271.92,2.706H266.9V-3.4H247.962V-7.524H271.92ZM290.1-25.113v4.224h-13.53v-4.224h4.455v-4.026h4.851v4.026ZM281.82-9.339c0,3.3.231,5.082.858,5.808a1.169,1.169,0,0,0,.858.33,1.169,1.169,0,0,0,.858-.33c.627-.726.858-2.508.858-5.808,0-3.267-.231-5.082-.858-5.775a1.08,1.08,0,0,0-.858-.363,1.08,1.08,0,0,0-.858.363C282.051-14.421,281.82-12.606,281.82-9.339Zm-4.653,0c0-4.554.858-7.623,2.8-9.141a5.8,5.8,0,0,1,3.564-1.089A5.8,5.8,0,0,1,287.1-18.48c1.947,1.518,2.8,4.587,2.8,9.141s-.858,7.623-2.8,9.141A5.583,5.583,0,0,1,283.536.858,5.583,5.583,0,0,1,279.972-.2C278.025-1.716,277.167-4.785,277.167-9.339Zm25.377-18.909V2.211h-4.587V-12.408h-1.749V1.947h-4.521v-30.03h4.521v11.418h1.749V-28.248Z" transform="translate(-14182 -15033)"/>
    <g id="ic_t_event" transform="translate(-13874 -15065)">
      <circle id="타원_190" data-name="타원 190" cx="3" cy="3" r="3" transform="translate(20.001 0.001)"/>
      <g id="빼기_11" data-name="빼기 11" transform="translate(0.001 0.003)" fill="none">
        <path d="M10.5,21A10.5,10.5,0,0,1,3.074,3.073a10.5,10.5,0,0,1,14.537-.3L14.172,9.122l6.759.183A10.661,10.661,0,0,1,21,10.5,10.5,10.5,0,0,1,10.5,21Z" stroke="none"/>
        <path d="M 10.49849987030029 18.99880027770996 C 12.76978969573975 18.99880027770996 14.90460014343262 18.11490058898926 16.50967025756836 16.50992965698242 C 17.93581962585449 15.08385181427002 18.79269218444824 13.2393970489502 18.9660587310791 11.25262832641602 L 10.86242961883545 11.03372001647949 L 15.04444217681885 3.313167810440063 C 13.69430065155029 2.457431793212891 12.12391662597656 1.997299790382385 10.49849987030029 1.997299790382385 C 8.22815990447998 1.997299790382385 6.093790054321289 2.881439685821533 4.488580226898193 4.486839771270752 C 2.883209943771362 6.092399597167969 1.999099969863892 8.22737979888916 1.999099969863892 10.49849987030029 C 1.999099969863892 12.76982975006104 2.883169889450073 14.90472984313965 4.488450050354004 16.50992012023926 C 6.093530178070068 18.11490058898926 8.227939605712891 18.99880027770996 10.49849987030029 18.99880027770996 M 10.49849987030029 20.99880027770996 C 7.693749904632568 20.99880027770996 5.057109832763672 19.90687942504883 3.074280023574829 17.92417907714844 C 1.091220021247864 15.94122982025146 -0.000899995444342494 13.30406951904297 -0.000899995444342494 10.49849987030029 C -0.000899995444342494 7.693209648132324 1.091220021247864 5.056009769439697 3.074280023574829 3.072709798812866 C 5.057260036468506 1.089499711990356 7.693900108337402 -0.002700263867154717 10.49849987030029 -0.002700263867154717 C 13.14262008666992 -0.002700263867154717 15.66876983642578 0.9830697178840637 17.61160087585449 2.773009777069092 L 14.17230033874512 9.12239933013916 L 20.93173027038574 9.304999351501465 C 20.97656059265137 9.701529502868652 20.99880027770996 10.10277938842773 20.99880027770996 10.49849987030029 C 20.99880027770996 13.30420970916748 19.90675926208496 15.94137001037598 17.9238395690918 17.92417907714844 C 15.94102001190186 19.90687942504883 13.30397987365723 20.99880027770996 10.49849987030029 20.99880027770996 Z" stroke="none" fill="#000"/>
      </g>
      <circle id="타원_165" data-name="타원 165" cx="1.773" cy="1.773" r="1.773" transform="translate(5.959 5.171)"/>
    </g>
  </g>
</svg>
