<svg xmlns="http://www.w3.org/2000/svg" width="371.756" height="45.938" viewBox="0 0 371.756 45.938">
  <g id="그룹_31117" data-name="그룹 31117" transform="translate(18093.756 24852)">
    <path id="패스_10794" data-name="패스 10794" d="M22.9-20.361v-3.267H3.564v-4.29H27.918v7a43.072,43.072,0,0,1-.627,8.151H22.275A40.168,40.168,0,0,0,22.9-20.361ZM13.3-6.435H2.244v-4.257H29.436v4.257H18.315V2.706H13.3ZM45.012-27.72V.231H33.066V-27.72ZM37.653-3.861h2.805V-23.6H37.653ZM58.344-28.248V2.211H53.625V-12.408H51.546V1.947H46.893v-30.03h4.653v11.418h2.079V-28.248ZM76.131-26.5v3.894H62.3V-26.5h4.653v-2.64h4.752v2.64Zm-8.91,10.593a2.14,2.14,0,0,0,.627,1.551,1.991,1.991,0,0,0,1.452.561,1.991,1.991,0,0,0,1.452-.561,2.14,2.14,0,0,0,.627-1.551,2.2,2.2,0,0,0-.627-1.551,1.991,1.991,0,0,0-1.452-.561,1.991,1.991,0,0,0-1.452.561A2.2,2.2,0,0,0,67.221-15.906Zm-4.422,0a5.626,5.626,0,0,1,2.013-4.422A7.15,7.15,0,0,1,69.3-21.747a7.218,7.218,0,0,1,4.488,1.419A5.626,5.626,0,0,1,75.8-15.906a5.578,5.578,0,0,1-2.013,4.422A7.037,7.037,0,0,1,69.3-10.032a6.971,6.971,0,0,1-4.488-1.452A5.578,5.578,0,0,1,62.8-15.906ZM88.374-28.248V-9.834H83.688V-16.9H81.576V-10H77.055V-28.083h4.521v6.9h2.112v-7.062ZM76.362,2.574a10.869,10.869,0,0,1-5.313-3.6,12.745,12.745,0,0,1-7.656,3.6V-1.584a6.507,6.507,0,0,0,5.082-6.8v-.264h4.983v.264c0,3.366,1.254,5.313,2.9,6.369,1.683-1.155,2.871-3.1,2.871-6.369v-.264h4.95v.264a6.581,6.581,0,0,0,5.115,6.8V2.574a13.033,13.033,0,0,1-7.689-3.6A10.213,10.213,0,0,1,76.362,2.574Zm29.5-13.464H93.126V-27.918h15.312v4.224H98.043v8.646h8.019a20.789,20.789,0,0,0,4.686-.363v3.96A15.9,15.9,0,0,1,105.864-10.89Zm7.1-6.468h-7.887v-4.257h7.887v-6.633h5.016V-6.864h-5.016ZM118.47-1.815V2.376H94.842V-8.481h5.016v6.666Zm17.556-26.268h5.016v3.564c0,5.28,2.409,7.59,6.2,8.679v4.323a14,14,0,0,1-8.679-4.521c-1.683,2.376-5.049,4.224-8.745,4.884v-4.323c3.96-1.155,6.2-3.927,6.2-9.042Zm14.223-.165h5.016v6.4h4.191v4.323h-4.191v6.633h-5.016ZM132.066-3.8a5.213,5.213,0,0,1,2.178-4.356c2.145-1.716,5.742-2.376,9.8-2.376,4.026,0,7.623.66,9.768,2.376A5.213,5.213,0,0,1,155.991-3.8,5.274,5.274,0,0,1,153.813.594c-2.145,1.683-5.742,2.343-9.768,2.343-4.059,0-7.656-.66-9.8-2.343A5.274,5.274,0,0,1,132.066-3.8Zm5.016,0a1.8,1.8,0,0,0,.858,1.518c1.122.792,3.267,1.023,6.1,1.023,2.805,0,4.95-.231,6.072-1.023a1.83,1.83,0,0,0,.891-1.518,1.83,1.83,0,0,0-.891-1.518c-1.122-.759-3.267-1.023-6.072-1.023-2.838,0-4.983.264-6.1,1.023A1.8,1.8,0,0,0,137.082-3.8Zm44.847-16.83h4.521V-16.6H161.634v-4.026h4.158v-3.267h-3.663v-4.026h23.793v4.026h-3.663v1.452A4.563,4.563,0,0,1,181.929-20.625Zm-4.587-3.267h-6.6v3.267h6.3a4.056,4.056,0,0,0,.3-1.551Zm-5.808,13.1H160.281v-4.125H187.8v4.125H176.517V-8.58h9.4V2.541H162.129V-8.58h9.4Zm-4.389,9.339h13.794V-4.521H167.145ZM191.664-23.2a3.644,3.644,0,0,1,1.485-3.1c1.914-1.452,5.643-1.947,10.956-1.947s9.009.5,10.923,1.947a3.67,3.67,0,0,1,1.518,3.1,3.738,3.738,0,0,1-1.518,3.069c-1.914,1.452-5.61,1.98-10.923,1.98s-9.042-.528-10.956-1.98A3.708,3.708,0,0,1,191.664-23.2Zm4.983,0a.838.838,0,0,0,.4.594c.891.528,3.2.627,7.062.627,3.828,0,6.138-.1,7.029-.627a.678.678,0,0,0,.4-.594.733.733,0,0,0-.4-.66c-.891-.5-3.2-.627-7.029-.627-3.861,0-6.171.132-7.062.627A.892.892,0,0,0,196.647-23.2ZM217.833-12.87H190.311v-3.96h27.522Zm-1.881,10.4H197.175v1.287h19.437V2.541H192.159V-6.2h18.81V-7.557h-18.81v-3.762h23.793Zm38.28-25.245v17.358h-9.537V-3.3H255.75V.957H228.558V-3.3h11.121v-7.062h-9.636V-27.72Zm-19.14,13.1h14.124v-8.844H235.092Zm23.529-5.544a8.112,8.112,0,0,1,2.673-6.567,8.559,8.559,0,0,1,5.544-1.716,8.343,8.343,0,0,1,5.511,1.716c1.749,1.419,2.706,3.63,2.706,6.567s-.957,5.148-2.706,6.534a8.527,8.527,0,0,1-5.511,1.716,8.751,8.751,0,0,1-5.544-1.716C259.578-15.015,258.621-17.226,258.621-20.163Zm4.851,0a4.532,4.532,0,0,0,1.122,3.267,3.236,3.236,0,0,0,2.244.825,3.179,3.179,0,0,0,2.244-.825,4.394,4.394,0,0,0,1.122-3.267,4.478,4.478,0,0,0-1.122-3.3,3.159,3.159,0,0,0-2.244-.792,3.215,3.215,0,0,0-2.244.792A4.619,4.619,0,0,0,263.472-20.163Zm14.949-8.085h5.016v6.4h4.191v4.323h-4.191v6.336h-5.016Zm-6.27,30.822a10.278,10.278,0,0,1-5.313-3.8,12.216,12.216,0,0,1-7.359,3.828V-1.584c3.168-1.122,4.785-3.168,4.785-7.392V-9.9h5.016v.957c0,3.564,1.089,5.643,2.871,6.9,1.716-1.254,2.838-3.333,2.838-6.9V-9.9h4.983v.924c0,4.224,1.65,6.27,4.818,7.392V2.574a12.563,12.563,0,0,1-7.392-3.8A9.953,9.953,0,0,1,272.151,2.574Zm33.2-14.949c-.1,4.917-.726,8.547-2.508,10.692A6.82,6.82,0,0,1,297.264.66a6.953,6.953,0,0,1-5.577-2.343c-1.947-2.343-2.508-6.435-2.508-12.078,0-5.61.561-9.7,2.508-12.045a6.9,6.9,0,0,1,5.577-2.409,6.768,6.768,0,0,1,5.577,2.409c1.584,1.914,2.277,5.016,2.442,9.174h3.927V-28.248h5.016V2.211H309.21V-12.375Zm-11.187-1.386c0,4.785.264,7.92,1.188,9.273a2.288,2.288,0,0,0,1.914.957,2.348,2.348,0,0,0,1.947-.957c.924-1.353,1.188-4.488,1.188-9.273,0-4.752-.264-7.887-1.188-9.24a2.378,2.378,0,0,0-1.947-.99,2.317,2.317,0,0,0-1.914.99C294.426-21.648,294.162-18.513,294.162-13.761Zm45.8-4.983a4.193,4.193,0,0,0-1.584-3.465C337-23.3,334.851-23.76,332.277-23.76c-2.607,0-4.752.462-6.1,1.551a4.129,4.129,0,0,0-1.617,3.465,4.129,4.129,0,0,0,1.617,3.465c1.353,1.089,3.5,1.584,6.1,1.584,2.574,0,4.719-.495,6.105-1.584A4.193,4.193,0,0,0,339.966-18.744Zm5.049,0a8.14,8.14,0,0,1-3.1,6.666,11.243,11.243,0,0,1-1.617,1.023V-3.3h5.544V.957H318.648V-3.3h5.709v-7.689a11.262,11.262,0,0,1-1.749-1.089,8.115,8.115,0,0,1-3.069-6.666,8.071,8.071,0,0,1,3.069-6.666c2.244-1.782,5.643-2.673,9.669-2.673,3.993,0,7.392.891,9.636,2.673A8.1,8.1,0,0,1,345.015-18.744Zm-9.7,9.108a22.347,22.347,0,0,1-3.036.2A27.633,27.633,0,0,1,329.34-9.6v6.3h5.973Z" transform="translate(-18096 -24809)"/>
    <g id="ic_t_freqbuy" transform="translate(-17745 -24852)">
      <g id="그룹_23362" data-name="그룹 23362" transform="translate(-1 4.623)">
        <g id="그룹_23364" data-name="그룹 23364" transform="translate(1 1.107)">
          <g id="사각형_27090" data-name="사각형 27090" transform="translate(0 2.847)" fill="none" stroke="#000" stroke-width="2">
            <rect width="23" height="19" stroke="none"/>
            <rect x="1" y="1" width="21" height="17" fill="none"/>
          </g>
          <g id="사각형_27091" data-name="사각형 27091" transform="translate(9.855 2.845)" fill="#fff" stroke="#000" stroke-width="2">
            <rect width="3" height="19" stroke="none"/>
            <rect x="1" y="1" width="1" height="17" fill="none"/>
          </g>
          <g id="그룹_23725" data-name="그룹 23725" transform="translate(0.635 1)">
            <g id="패스_4691" data-name="패스 4691" transform="matrix(0.966, 0.259, -0.259, 0.966, -1.133, -5.1)" fill="none">
              <path d="M14.589,6.082l-5.231-9-4.769,6.4Z" stroke="none"/>
              <path d="M 14.589111328125 6.082030773162842 L 4.589111328125 3.482160806655884 L 9.357891082763672 -2.917969226837158 L 14.589111328125 6.082030773162842 Z" stroke="none" fill="#000"/>
            </g>
            <g id="패스_4692" data-name="패스 4692" transform="matrix(0.966, -0.259, 0.259, 0.966, 4.048, -0.136)" fill="none">
              <path d="M4.589,6.082l5.231-9,4.769,6.4Z" stroke="none"/>
              <path d="M 4.589111328125 6.08203125 L 9.820331573486328 -2.91796875 L 14.589111328125 3.482161283493042 L 4.589111328125 6.08203125 Z" stroke="none" fill="#000"/>
            </g>
          </g>
        </g>
        <g id="사각형_27199" data-name="사각형 27199" transform="translate(22.854 11.953) rotate(90)" fill="#fff" stroke="#000" stroke-width="2">
          <rect width="3" height="21" stroke="none"/>
          <rect x="1" y="1" width="1" height="19" fill="none"/>
        </g>
      </g>
    </g>
  </g>
</svg>
