<svg xmlns="http://www.w3.org/2000/svg" width="282.744" height="46.301" viewBox="0 0 282.744 46.301">
  <g id="그룹_31111" data-name="그룹 31111" transform="translate(14230.964 16209.76)">
    <path id="패스_10786" data-name="패스 10786" d="M7.854-27.918v3.993h5.775v-3.993h4.785v15.543H3.036V-27.918Zm0,11.451h5.775v-3.366H7.854ZM27.885-28.248v17.556H22.869V-28.248ZM16.269-.528c-2.31,1.98-6.534,3-12.342,3.069V-1.551c4.686-.066,8.316-.924,9.471-2.871H4.752V-8.514h9.009v-2.541h5.016v2.541h9.108v4.092H19.14C20.3-2.475,23.925-1.65,28.611-1.551V2.541C22.737,2.475,18.546,1.452,16.269-.528ZM46.2.231H33.066V-27.918h4.95V-3.96h8.976c2.442,0,4.092-.4,5.115-1.221V-28.248h5.016v11.913h4.455v4.323H57.123V2.211H52.107V-1.155C51.051-.2,48.972.231,46.2.231ZM63.987-28.083H69v6.963H87.945v4.191H63.987ZM89.661-9.834H62.139v-4.224H89.661ZM63.987-7.722h5.049v5.907H88.308V2.376H63.987Zm42.933-20v5.676h14.124V-27.72h5.016V-8.58H101.871V-27.72Zm0,14.85h14.124v-4.884H106.92ZM127.578.957H100.386v-4.29h27.192ZM135.663-16.7v3.267h5.247a6.969,6.969,0,0,0,4.257-1.023V-28.083h4.521v7.689H151.8v-7.854h4.686V-6.039H151.8V-16.071h-2.112v9.5h-4.521v-4.059c-.924.792-2.409,1.188-5.313,1.188H131.01V-20.691h7.161v-3.234H131.01v-3.993h11.847V-16.7ZM156.981-1.815V2.376H133.089V-7.59h5.016v5.775ZM186.12-27.72v4.257H166.98v9.141h19.437V-10H161.931V-27.72ZM187.638.957H160.446v-4.29h27.192ZM199.32-23.727v-4.191h16.1v4.191h-5.61c.132,4.818,2.409,6.732,6.171,7.425v4.29c-3.564-.495-6.8-1.98-8.547-4.323a13.562,13.562,0,0,1-8.712,4.686v-4.29c3.729-.726,6.039-2.9,6.171-7.788Zm24.849-4.521v16.2h-5.016v-16.2Zm-18.117,20.3h13.134v-3h4.983v13.5H201.036v-13.5h5.016Zm13.134,6.435v-2.31H206.052v2.31Zm26.4-24.981v3.894H228V-26.5h6.369v-2.64h5.049v2.64ZM233.607-16.368a1.4,1.4,0,0,0,.627,1.188,4.624,4.624,0,0,0,2.574.627,4.746,4.746,0,0,0,2.607-.627,1.487,1.487,0,0,0,.627-1.188,1.428,1.428,0,0,0-.627-1.155,4.478,4.478,0,0,0-2.607-.627,4.364,4.364,0,0,0-2.574.627A1.347,1.347,0,0,0,233.607-16.368Zm-4.752,0a4.7,4.7,0,0,1,2.079-4.026,10.323,10.323,0,0,1,5.874-1.518,10.364,10.364,0,0,1,5.907,1.518,4.7,4.7,0,0,1,2.079,4.026,4.664,4.664,0,0,1-2.079,4.026,10.364,10.364,0,0,1-5.907,1.518,10.323,10.323,0,0,1-5.874-1.518A4.664,4.664,0,0,1,228.855-16.368Zm19.536-11.88h5.016v6.9H257.6v4.323h-4.191v6.2h-5.016Zm-12.8,20.922h12.837V-9.735h4.983V2.541H230.571V-9.735h5.016Zm12.837,5.94V-3.333H235.587v1.947ZM272.151-16.9c-2.277,3.1-7,6.1-13.035,7.062v-4.29c6.732-1.518,10.527-5.379,10.527-12.045v-1.749h5.016v1.749c0,6.633,3.7,10.494,10.527,12.045v4.29C279.213-10.791,274.4-13.794,272.151-16.9ZM269.643-3.3v-8.349h4.983V-3.3H285.78V.957H258.588V-3.3Z" transform="translate(-14234 -16166)"/>
    <g id="ic_t_brand" transform="translate(-14152 -16209.76)">
      <g id="패스_4693" data-name="패스 4693" transform="translate(-172.033 -225.699)" fill="none" stroke-miterlimit="10">
        <path d="M184.033,225.7l-2.906,9.118-9.094,2.882,9.094,2.887,2.906,9.113,2.906-9.113,9.094-2.887-9.094-2.882Z" stroke="none"/>
        <path d="M 184.0332489013672 232.2855834960938 L 182.7185363769531 236.4106597900391 L 178.6479034423828 237.7008361816406 L 182.7185211181641 238.9931182861328 L 184.0332489013672 243.1160278320312 L 185.3479156494141 238.9931182861328 L 189.4185638427734 237.7008361816406 L 185.3479156494141 236.4106597900391 L 184.0332489013672 232.2855834960938 M 184.0332946777344 225.69921875 L 186.9391021728516 234.8169250488281 L 196.0332336425781 237.6992797851562 L 186.9391021728516 240.5863342285156 L 184.0332946777344 249.6992340087891 L 181.1273498535156 240.5863342285156 L 172.0332336425781 237.6992797851562 L 181.1273498535156 234.8169250488281 L 184.0332946777344 225.69921875 Z" stroke="none" fill="#1a1818"/>
      </g>
    </g>
  </g>
</svg>
