<svg xmlns="http://www.w3.org/2000/svg" width="286.628" height="45.552" viewBox="0 0 286.628 45.552">
  <g id="그룹_31116" data-name="그룹 31116" transform="translate(14107 14673.615)">
    <path id="패스_10792" data-name="패스 10792" d="M19.272-26.3v3.927H1.683V-26.3H8.052v-2.838H13.1V-26.3ZM7.326-15.411a2.058,2.058,0,0,0,.66,1.452,3.863,3.863,0,0,0,2.508.792A3.737,3.737,0,0,0,13-13.959a1.968,1.968,0,0,0,.693-1.452A1.968,1.968,0,0,0,13-16.863a3.733,3.733,0,0,0-2.508-.759,3.855,3.855,0,0,0-2.508.759A2.058,2.058,0,0,0,7.326-15.411Zm-4.785,0a5.38,5.38,0,0,1,1.848-4.125,9.244,9.244,0,0,1,6.105-1.914,9.277,9.277,0,0,1,6.138,1.914,5.38,5.38,0,0,1,1.848,4.125,5.38,5.38,0,0,1-1.848,4.125,9.1,9.1,0,0,1-6.138,1.914,9.069,9.069,0,0,1-6.105-1.914A5.38,5.38,0,0,1,2.541-15.411ZM22.077-28.248h5.016v7.656h4.191v4.29H27.093v8.25H22.077ZM15.84-1.65C13.266.792,8.778,2.343,3.531,2.574V-1.584c6.072-.66,9.8-2.739,9.8-6.7v-.495h5.016v.495c0,3.96,3.63,6.006,9.8,6.7V2.574C22.836,2.343,18.414.792,15.84-1.65ZM40.26-19.239v-4.653H38.61v8.679h1.353A26.885,26.885,0,0,0,40.26-19.239Zm-6.039,4.026v-8.679H32.637v-4.026H45.969v4.026H44.583V-19.5a21.55,21.55,0,0,1-.363,4.257,5.88,5.88,0,0,0,2.805-.825V-28.083h4.521v6.435h2.112v-6.6h4.686v17.754H53.658v-6.864H51.546v6.7H47.025v-1.65c-1.089.858-2.871,1.122-5.61,1.122H32.274v-4.026Zm.4,10.3V-9.141H58.344V2.706H53.328V-4.917ZM62.9-20.493v-4.224h5.841v-4.422h5.016v4.422h5.874v4.224H73.755v3.8c0,8.481,2.706,11.055,6.138,12.573V.3a14.4,14.4,0,0,1-8.646-6.039A14.415,14.415,0,0,1,62.6.3V-4.125C66-5.61,68.739-8.217,68.739-16.7v-3.8Zm20-7.755h5.016V2.211H82.9v-13.7H76.923v-4.29H82.9Zm22.8,17.325H93.126V-21.45h9.207v-2.508H93.126v-3.96h14.157V-17.49H98.01v2.607H105.9a18.828,18.828,0,0,0,4.653-.4v3.8A15.81,15.81,0,0,1,105.7-10.923Zm12.276-17.325v18.183h-5.016v-7.491h-4.653v-4.323h4.653v-6.369Zm0,30.789H94.842V-8.778h23.133Zm-4.983-4.026V-4.62H99.858v3.135ZM157.608.957H130.416v-4.29h27.192ZM131.9-10V-27.72h10.923v4.257H136.95v9.174h6.93V-27.72h12.21v4.257h-7.227v9.174h7.392V-10Zm39.666-10.824V-23.5H161.4V-27.72H176.55v6.3a44.045,44.045,0,0,1-.264,4.785h4.752V-28.248h5.016V2.211h-5.016V-12.375h-5.577c-1.914,6.8-6.4,11.154-14.223,13V-3.96C168.5-6.072,171.567-11.814,171.567-20.823Zm20.1-.957a5.176,5.176,0,0,1,2.013-4.29c2.244-1.683,6.039-2.178,10.428-2.178s8.151.5,10.4,2.178a5.113,5.113,0,0,1,2.046,4.29,5.074,5.074,0,0,1-2.046,4.224c-2.244,1.683-6.006,2.211-10.4,2.211s-8.184-.528-10.428-2.211A5.137,5.137,0,0,1,191.664-21.78Zm4.983,0a1.537,1.537,0,0,0,.792,1.353c1.089.792,3.333,1.023,6.666,1.023,3.3,0,5.577-.231,6.666-1.023a1.574,1.574,0,0,0,.759-1.353,1.605,1.605,0,0,0-.759-1.419c-1.089-.792-3.366-1.023-6.666-1.023-3.333,0-5.577.231-6.666,1.023A1.567,1.567,0,0,0,196.647-21.78Zm5.346,12.54H190.311v-4.191h27.522V-9.24H206.976v5.181h-4.983ZM192.159-6.9h5.049v5.082H216.48V2.376H192.159Zm42.372-21.186h5.016v4.818c0,5.346,2.376,7.722,6.2,8.811V-10.1a14.048,14.048,0,0,1-8.679-4.587c-1.683,2.343-5.016,4.257-8.745,4.917v-4.29c3.96-1.221,6.2-4.026,6.2-9.207Zm19.668-.165V-6.864h-5.016V-28.248Zm.5,26.433V2.376H231.066V-8.481h5.016v6.666Zm9.5-26.268h5.016v3.564c0,5.28,2.409,7.59,6.2,8.679v4.323a14,14,0,0,1-8.679-4.521c-1.683,2.376-5.049,4.224-8.745,4.884v-4.323c3.96-1.155,6.2-3.927,6.2-9.042Zm14.223-.165h5.016v6.4h4.191v4.323h-4.191v6.633h-5.016ZM260.238-3.8a5.213,5.213,0,0,1,2.178-4.356c2.145-1.716,5.742-2.376,9.8-2.376,4.026,0,7.623.66,9.768,2.376A5.213,5.213,0,0,1,284.163-3.8,5.274,5.274,0,0,1,281.985.594c-2.145,1.683-5.742,2.343-9.768,2.343-4.059,0-7.656-.66-9.8-2.343A5.274,5.274,0,0,1,260.238-3.8Zm5.016,0a1.8,1.8,0,0,0,.858,1.518c1.122.792,3.267,1.023,6.1,1.023,2.805,0,4.95-.231,6.072-1.023A1.83,1.83,0,0,0,279.18-3.8a1.83,1.83,0,0,0-.891-1.518c-1.122-.759-3.267-1.023-6.072-1.023-2.838,0-4.983.264-6.1,1.023A1.8,1.8,0,0,0,265.254-3.8Z" transform="translate(-14108 -14631)"/>
    <g id="그룹_23486" data-name="그룹 23486" transform="translate(-14143 -17919.063)">
      <rect id="사각형_26987" data-name="사각형 26987" width="18.867" height="3.892" transform="translate(36 3257.863)" fill="#fff"/>
      <g id="그룹_23090" data-name="그룹 23090" transform="translate(41.757 3247.063)">
        <g id="그룹_23071" data-name="그룹 23071" transform="translate(0 0)">
          <path id="패스_4529" data-name="패스 4529" d="M342.606,177.5s-3.042,1.168-.566,4.965-.971,5.7-.971,5.7" transform="translate(-341.069 -177.5)" fill="#fff" stroke="#1a1818" stroke-linecap="square" stroke-linejoin="round" stroke-miterlimit="10" stroke-width="2.5"/>
        </g>
        <g id="그룹_23088" data-name="그룹 23088" transform="translate(5.242 2.05)">
          <path id="패스_4529-2" data-name="패스 4529" d="M342.606,177.5s-3.042,1.168-.566,4.965-.971,5.7-.971,5.7" transform="translate(-341.069 -177.5)" fill="#fff" stroke="#1a1818" stroke-linecap="square" stroke-linejoin="round" stroke-miterlimit="10" stroke-width="2.5"/>
        </g>
      </g>
    </g>
  </g>
</svg>
