<svg xmlns="http://www.w3.org/2000/svg" width="288.255" height="31.514" viewBox="0 0 288.255 31.514">
  <g id="그룹_31110" data-name="그룹 31110" transform="translate(14506.921 16428.445)">
    <path id="패스_10785" data-name="패스 10785" d="M27.72-24.09H18.777c1.254,1.65,4.983,2.442,9.24,2.541v3.8c-4.818-.165-9.735-1.254-12.21-3.1-2.442,1.914-7.227,2.937-12.21,3.1v-3.8c4.191-.165,8.019-.858,9.273-2.541H3.927v-3.828H27.72ZM13.3-16.632V-19.14h4.983v2.508H29.6v3.96H2.079v-3.96ZM13.2-9.6V-11.55h5.214V-9.6H28.578v3.564H2.937V-9.6ZM8.349-1.023c0,.132.066.231.3.3.759.33,3.036.363,7.128.363S22.11-.4,22.9-.726q.3-.1.3-.3c0-.165-.1-.264-.3-.33-.792-.33-3.036-.363-7.128-.363s-6.369.033-7.128.363C8.415-1.287,8.349-1.188,8.349-1.023Zm-5.016,0A2.845,2.845,0,0,1,4.719-3.531C6.567-4.752,10.2-5.115,15.774-5.115s9.207.363,11.055,1.584a2.845,2.845,0,0,1,1.386,2.508,2.883,2.883,0,0,1-1.386,2.508c-1.848,1.188-5.478,1.584-11.055,1.584s-9.207-.4-11.055-1.584A2.883,2.883,0,0,1,3.333-1.023ZM33.462-21.78a5.176,5.176,0,0,1,2.013-4.29c2.244-1.683,6.039-2.178,10.428-2.178s8.151.5,10.4,2.178a5.113,5.113,0,0,1,2.046,4.29A5.074,5.074,0,0,1,56.3-17.556c-2.244,1.683-6.006,2.211-10.4,2.211s-8.184-.528-10.428-2.211A5.137,5.137,0,0,1,33.462-21.78Zm4.983,0a1.537,1.537,0,0,0,.792,1.353c1.089.792,3.333,1.023,6.666,1.023,3.3,0,5.577-.231,6.666-1.023a1.574,1.574,0,0,0,.759-1.353,1.605,1.605,0,0,0-.759-1.419c-1.089-.792-3.366-1.023-6.666-1.023-3.333,0-5.577.231-6.666,1.023A1.567,1.567,0,0,0,38.445-21.78Zm21.186,12.8H32.109v-4.191H59.631ZM33.957-6.9h5.049v5.082H58.278V2.376H33.957Zm47.19-16.8h-10v-4.224H86.13v2.838c0,9.669-5.115,14.685-15.708,15.675v-4.224C77.682-14.52,81.081-18.018,81.147-23.694ZM96-28.248V-6.864H90.981V-16.9H86.394v-4.257h4.587v-7.1Zm.5,26.433V2.376H72.864V-8.481H77.88v6.666Zm28.677-11.946c0,1.155-.033,2.244-.066,3.267h3.927v-7.26h-3.993C125.136-16.533,125.169-15.18,125.169-13.761Zm-.561,7.524a10.349,10.349,0,0,1-1.947,4.554A6.82,6.82,0,0,1,117.084.66a6.953,6.953,0,0,1-5.577-2.343C109.56-4.026,109-8.118,109-13.761c0-5.61.561-9.7,2.508-12.045a6.9,6.9,0,0,1,5.577-2.409,6.768,6.768,0,0,1,5.577,2.409,9.486,9.486,0,0,1,1.749,3.762h4.62v-6.2h5.016V2.211H129.03V-6.237Zm-10.626-7.524c0,4.785.264,7.92,1.188,9.273a2.288,2.288,0,0,0,1.914.957,2.348,2.348,0,0,0,1.947-.957c.924-1.353,1.188-4.488,1.188-9.273,0-4.752-.264-7.887-1.188-9.24a2.378,2.378,0,0,0-1.947-.99,2.317,2.317,0,0,0-1.914.99C114.246-21.648,113.982-18.513,113.982-13.761Zm35.607-7.062V-23.5H139.425V-27.72h15.147v6.3c0,12.111-4.455,19.47-15.312,22.044V-3.96C146.52-6.072,149.589-11.814,149.589-20.823Zm9.471-7.425h5.016V2.211H159.06ZM190.476.231H177.342V-27.72h15.147V-23.5h-10.2V-3.96h8.976c2.442,0,4.092-.4,5.115-1.221V-28.248H201.4v11.913h4.455v4.323H201.4V2.211h-5.016V-1.155C195.327-.2,193.248.231,190.476.231Zm24.519-20.394A8.036,8.036,0,0,1,217.8-26.8a8.564,8.564,0,0,1,5.379-1.65,8.6,8.6,0,0,1,5.412,1.65c1.782,1.386,2.772,3.663,2.772,6.633s-.99,5.214-2.772,6.633a8.789,8.789,0,0,1-5.412,1.617A8.756,8.756,0,0,1,217.8-13.53,8.08,8.08,0,0,1,214.995-20.163Zm4.851,0a4.382,4.382,0,0,0,1.155,3.3,3.2,3.2,0,0,0,2.178.792,3.082,3.082,0,0,0,2.178-.792,4.267,4.267,0,0,0,1.188-3.3,4.346,4.346,0,0,0-1.188-3.333,2.927,2.927,0,0,0-2.178-.759A3.029,3.029,0,0,0,221-23.5,4.464,4.464,0,0,0,219.846-20.163Zm20.427-8.085v17.061h-5.016V-28.248ZM228.822,2.574a10.147,10.147,0,0,1-5.313-3.8,12.42,12.42,0,0,1-7.458,3.828V-1.584c3.168-1.122,4.884-3.168,4.884-7.392V-9.9h4.95v.957c0,3.564,1.188,5.643,2.937,6.9,1.749-1.254,2.9-3.333,2.9-6.9V-9.9h4.983v.924c0,4.224,1.683,6.27,4.851,7.392V2.574a12.58,12.58,0,0,1-7.425-3.8A10.07,10.07,0,0,1,228.822,2.574Zm32.571-14.949c-.1,4.917-.726,8.547-2.508,10.692A6.82,6.82,0,0,1,253.308.66a6.953,6.953,0,0,1-5.577-2.343c-1.947-2.343-2.508-6.435-2.508-12.078,0-5.61.561-9.7,2.508-12.045a6.9,6.9,0,0,1,5.577-2.409,6.768,6.768,0,0,1,5.577,2.409c1.584,1.914,2.277,5.016,2.442,9.174h3.927V-28.248h5.016V2.211h-5.016V-12.375Zm-11.187-1.386c0,4.785.264,7.92,1.188,9.273a2.288,2.288,0,0,0,1.914.957,2.348,2.348,0,0,0,1.947-.957c.924-1.353,1.188-4.488,1.188-9.273,0-4.752-.264-7.887-1.188-9.24a2.378,2.378,0,0,0-1.947-.99,2.317,2.317,0,0,0-1.914.99C250.47-21.648,250.206-18.513,250.206-13.761Zm28.512-1.485c-3.234,0-4.62,2.475-4.62,6.072l4.62-.033c0-1.188.5-1.749,1.353-1.749,1.584,0,2.475,2.013,5.643,2.013,3.234,0,4.62-2.475,4.62-6.072l-4.62.033c-.033,1.188-.495,1.749-1.353,1.749C282.744-13.233,281.886-15.246,278.718-15.246Z" transform="translate(-14509 -16400)"/>
  </g>
</svg>
