<svg xmlns="http://www.w3.org/2000/svg" xmlns:xlink="http://www.w3.org/1999/xlink" width="40" height="34" viewBox="0 0 40 34">
  <defs>
    <clipPath id="clip-path">
      <rect id="사각형_29881" data-name="사각형 29881" width="40" height="34" transform="translate(4.924)" fill="red" opacity="0.62"/>
    </clipPath>
  </defs>
  <g id="마스크_그룹_376" data-name="마스크 그룹 376" transform="translate(-4.924)" clip-path="url(#clip-path)">
    <path id="패스_10840" data-name="패스 10840" d="M-10463.807,10.5l8.682-9.975V.5h30.625a1,1,0,0,1,1,1v18a1,1,0,0,1-1,1h-30.617v.032Z" transform="translate(9061.673 -5211.682) rotate(-30)"/>
    <path id="패스_10839" data-name="패스 10839" d="M-5.511-2.262a.408.408,0,0,1,.144.027.391.391,0,0,1,.138.093l.8.846A3.338,3.338,0,0,1-5.748-.255,4.63,4.63,0,0,1-7.629.1,4.481,4.481,0,0,1-9.414-.243a3.863,3.863,0,0,1-1.338-.936A4.122,4.122,0,0,1-11.6-2.6a5.229,5.229,0,0,1-.294-1.779,4.924,4.924,0,0,1,.318-1.8,4.173,4.173,0,0,1,.894-1.413A4.026,4.026,0,0,1-9.3-8.508a4.618,4.618,0,0,1,1.77-.33,4.723,4.723,0,0,1,.927.087,4.531,4.531,0,0,1,.813.24,3.714,3.714,0,0,1,.7.369,3.652,3.652,0,0,1,.564.468l-.684.918a.871.871,0,0,1-.156.153.406.406,0,0,1-.252.069.45.45,0,0,1-.2-.048,2.255,2.255,0,0,1-.2-.117l-.237-.15A1.819,1.819,0,0,0-6.57-7a2.529,2.529,0,0,0-.414-.117,2.825,2.825,0,0,0-.555-.048,2.236,2.236,0,0,0-.921.186,2.007,2.007,0,0,0-.72.543,2.511,2.511,0,0,0-.468.876,3.909,3.909,0,0,0-.165,1.185A3.6,3.6,0,0,0-9.63-3.18a2.622,2.622,0,0,0,.5.879,2.113,2.113,0,0,0,.735.543,2.2,2.2,0,0,0,.9.186,4.308,4.308,0,0,0,.5-.027,2.292,2.292,0,0,0,.426-.09A1.736,1.736,0,0,0-6.2-1.857a2.347,2.347,0,0,0,.354-.267.709.709,0,0,1,.156-.1A.409.409,0,0,1-5.511-2.262ZM4.1-8.742V0H3.039a.918.918,0,0,1-.393-.075.962.962,0,0,1-.315-.261L-1.791-5.55q.024.234.033.453t.009.411V0H-3.537V-8.742h1.068a1.721,1.721,0,0,1,.222.012.567.567,0,0,1,.162.045.541.541,0,0,1,.138.093,1.577,1.577,0,0,1,.15.162L2.361-3.18q-.03-.252-.042-.489t-.012-.447V-8.742Zm7.974,1.608H9.609V0H7.581V-7.134H5.121V-8.742h6.948Z" transform="translate(27.369 22.051) rotate(-30)" fill="#e7ff5e"/>
  </g>
</svg>
