<svg id="cnt_pick" xmlns="http://www.w3.org/2000/svg" xmlns:xlink="http://www.w3.org/1999/xlink" width="37" height="30" viewBox="0 0 37 30">
  <defs>
    <clipPath id="clip-path">
      <rect id="사각형_29881" data-name="사각형 29881" width="37" height="30" transform="translate(3.924 3)" fill="red" opacity="0.62"/>
    </clipPath>
    <filter id="패스_10840" x="-8.424" y="-4.847" width="49.124" height="42.495" filterUnits="userSpaceOnUse">
      <feOffset input="SourceAlpha"/>
      <feGaussianBlur stdDeviation="1.5" result="blur"/>
      <feFlood flood-opacity="0.051"/>
      <feComposite operator="in" in2="blur"/>
      <feComposite in="SourceGraphic"/>
    </filter>
  </defs>
  <g id="마스크_그룹_376" data-name="마스크 그룹 376" transform="translate(-3.924 -3)" clip-path="url(#clip-path)">
    <g transform="matrix(1, 0, 0, 1, 3.92, 3)" filter="url(#패스_10840)">
      <path id="패스_10840-2" data-name="패스 10840" d="M-10463.807,9.433l7.755-8.912V.5h27.245a1,1,0,0,1,1,1V17.364a1,1,0,0,1-1,1h-27.237v.026Z" transform="translate(9057.75 -5214.68) rotate(-30)" fill="#fff"/>
    </g>
    <path id="패스_10839" data-name="패스 10839" d="M-5.052-2.073a.374.374,0,0,1,.132.025.359.359,0,0,1,.127.085l.737.776a3.06,3.06,0,0,1-1.213.954A4.244,4.244,0,0,1-6.993.088,4.108,4.108,0,0,1-8.629-.223a3.541,3.541,0,0,1-1.226-.858,3.778,3.778,0,0,1-.773-1.3A4.793,4.793,0,0,1-10.9-4.01a4.514,4.514,0,0,1,.292-1.647,3.825,3.825,0,0,1,.819-1.3A3.69,3.69,0,0,1-8.522-7.8,4.234,4.234,0,0,1-6.9-8.1a4.329,4.329,0,0,1,.85.08A4.153,4.153,0,0,1-5.3-7.8a3.4,3.4,0,0,1,.638.338,3.348,3.348,0,0,1,.517.429l-.627.841a.8.8,0,0,1-.143.14.372.372,0,0,1-.231.063.413.413,0,0,1-.187-.044,2.067,2.067,0,0,1-.187-.107l-.217-.137a1.667,1.667,0,0,0-.28-.138,2.318,2.318,0,0,0-.38-.107,2.59,2.59,0,0,0-.509-.044,2.049,2.049,0,0,0-.844.17,1.84,1.84,0,0,0-.66.5,2.3,2.3,0,0,0-.429.8A3.583,3.583,0,0,0-9-4.01a3.3,3.3,0,0,0,.168,1.094,2.4,2.4,0,0,0,.457.806,1.937,1.937,0,0,0,.674.5,2.014,2.014,0,0,0,.825.17,3.949,3.949,0,0,0,.462-.025,2.1,2.1,0,0,0,.39-.082A1.591,1.591,0,0,0-5.679-1.7a2.152,2.152,0,0,0,.325-.245.65.65,0,0,1,.143-.091A.375.375,0,0,1-5.052-2.073Zm8.806-5.94V0H2.786a.842.842,0,0,1-.36-.069.882.882,0,0,1-.289-.239l-3.779-4.78q.022.215.03.415T-1.6-4.3V0H-3.242V-8.014h.979A1.578,1.578,0,0,1-2.06-8a.519.519,0,0,1,.148.041.5.5,0,0,1,.126.085,1.446,1.446,0,0,1,.138.148L2.164-2.915q-.027-.231-.038-.448t-.011-.41v-4.24ZM11.063-6.54H8.808V0H6.949V-6.54H4.694V-8.014h6.369Z" transform="translate(24.369 22.051) rotate(-30)" fill="#dbf258"/>
  </g>
</svg>
