<svg id="ic_my" xmlns="http://www.w3.org/2000/svg" xmlns:xlink="http://www.w3.org/1999/xlink" width="40" height="40" viewBox="0 0 40 40">
  <defs>
    <clipPath id="clip-path">
      <rect id="사각형_26914" data-name="사각형 26914" width="26" height="12" transform="translate(0 -0.426)" fill="#fff" stroke="#707070" stroke-width="1"/>
    </clipPath>
  </defs>
  <rect id="사각형_26362" data-name="사각형 26362" width="40" height="40" fill="rgba(255,133,133,0)" opacity="0.36"/>
  <g id="그룹_28767" data-name="그룹 28767" transform="translate(-4 -4)">
    <rect id="사각형_26360" data-name="사각형 26360" width="30" height="30" transform="translate(9 9)" fill="none" opacity="0.36"/>
    <g id="그룹_22954" data-name="그룹 22954" transform="translate(-0.162 -1.664)">
      <g id="타원_38" data-name="타원 38" transform="translate(19.162 13.662)" fill="#fff" stroke="#000" stroke-width="1.5">
        <circle cx="5" cy="5" r="5" stroke="none"/>
        <circle cx="5" cy="5" r="4.25" fill="none"/>
      </g>
      <g id="마스크_그룹_158" data-name="마스크 그룹 158" transform="translate(11.162 26.09)" clip-path="url(#clip-path)">
        <g id="패스_4156" data-name="패스 4156" transform="translate(0 -0.426)" fill="rgba(255,255,255,0)">
          <path d="M 13 25.25 C 9.727910041809082 25.25 6.651659965515137 23.97578048706055 4.337940216064453 21.66205978393555 C 2.024219989776611 19.34833908081055 0.75 16.27209091186523 0.75 13 C 0.75 9.727910041809082 2.024219989776611 6.651659965515137 4.337940216064453 4.337940216064453 C 6.651659965515137 2.024219989776611 9.727910041809082 0.75 13 0.75 C 16.27209091186523 0.75 19.34833908081055 2.024219989776611 21.66205978393555 4.337940216064453 C 23.97578048706055 6.651659965515137 25.25 9.727910041809082 25.25 13 C 25.25 16.27209091186523 23.97578048706055 19.34833908081055 21.66205978393555 21.66205978393555 C 19.34833908081055 23.97578048706055 16.27209091186523 25.25 13 25.25 Z" stroke="none"/>
          <path d="M 13 1.5 C 9.928239822387695 1.5 7.040340423583984 2.696210861206055 4.868270874023438 4.868270874023438 C 2.696210861206055 7.040340423583984 1.5 9.928239822387695 1.5 13 C 1.5 16.0717601776123 2.696210861206055 18.95965957641602 4.868270874023438 21.13172912597656 C 7.040340423583984 23.30379104614258 9.928239822387695 24.5 13 24.5 C 16.0717601776123 24.5 18.95965957641602 23.30379104614258 21.13172912597656 21.13172912597656 C 23.30379104614258 18.95965957641602 24.5 16.0717601776123 24.5 13 C 24.5 9.928239822387695 23.30379104614258 7.040340423583984 21.13172912597656 4.868270874023438 C 18.95965957641602 2.696210861206055 16.0717601776123 1.5 13 1.5 M 13 0 C 20.1796989440918 0 26 5.82029914855957 26 13 C 26 20.1796989440918 20.1796989440918 26 13 26 C 5.82029914855957 26 0 20.1796989440918 0 13 C 0 5.82029914855957 5.82029914855957 0 13 0 Z" stroke="none" fill="#000"/>
        </g>
      </g>
    </g>
  </g>
</svg>
