<svg id="구성_요소_12_3" data-name="구성 요소 12 – 3" xmlns="http://www.w3.org/2000/svg" width="30" height="30" viewBox="0 0 30 30">
  <rect id="사각형_26360" data-name="사각형 26360" width="30" height="30" fill="none" opacity="0.36"/>
  <g id="그룹_32219" data-name="그룹 32219">
    <g id="그룹_32206" data-name="그룹 32206" transform="translate(-2373 -718)" opacity="0">
      <rect id="사각형_30256" data-name="사각형 30256" width="30" height="30" transform="translate(2373 718)" fill="#ff3e3e" opacity="0.36"/>
      <rect id="사각형_30257" data-name="사각형 30257" width="24" height="24" transform="translate(2376 721)" fill="#ff3e3e" opacity="0.36"/>
    </g>
    <g id="그룹_32220" data-name="그룹 32220" transform="translate(-1.69 -1.957)">
      <g id="타원_1321" data-name="타원 1321" transform="translate(9.69 3.957)" fill="none" stroke="#000" stroke-width="1.5">
        <circle cx="6.5" cy="6.5" r="6.5" stroke="none"/>
        <circle cx="6.5" cy="6.5" r="5.75" fill="none"/>
      </g>
      <g id="빼기_1" data-name="빼기 1" transform="translate(5 16.468)" fill="none">
        <path d="M18.38,13.445H4a4,4,0,0,1-4-4V9.311A10,10,0,0,1,6.4-.02,7.675,7.675,0,0,0,11.19,1.666,7.677,7.677,0,0,0,15.984-.02a10,10,0,0,1,6.4,9.331v.135A4,4,0,0,1,18.38,13.445Z" stroke="none"/>
        <path d="M 18.37980079650879 11.94510459899902 C 19.75858116149902 11.94510459899902 20.88030052185059 10.82378482818604 20.88030052185059 9.445505142211914 L 20.88030052185059 9.310504913330078 C 20.88030052185059 7.560584545135498 20.35304069519043 5.880414962768555 19.35551071166992 4.45165491104126 C 18.53109359741211 3.270841121673584 17.43822288513184 2.32949161529541 16.16490364074707 1.696745634078979 C 14.69095516204834 2.649227857589722 12.95594787597656 3.165904760360718 11.18970012664795 3.165904760360718 C 9.423741340637207 3.165904760360718 7.689014911651611 2.649335622787476 6.215139389038086 1.69693386554718 C 4.941910743713379 2.329759359359741 3.849183559417725 3.271111249923706 3.024800300598145 4.451924800872803 C 2.027270317077637 5.880714893341064 1.500000238418579 7.560784816741943 1.500000238418579 9.310504913330078 L 1.500000238418579 9.445505142211914 C 1.500000238418579 10.82378482818604 2.621320247650146 11.94510459899902 3.999600172042847 11.94510459899902 L 18.37980079650879 11.94510459899902 M 18.37980079650879 13.44510459899902 L 3.999600172042847 13.44510459899902 C 1.794210314750671 13.44510459899902 2.60925304473858e-07 11.65089511871338 2.60925304473858e-07 9.445505142211914 L 2.60925304473858e-07 9.310504913330078 C 2.60925304473858e-07 7.252114772796631 0.6206602454185486 5.275124549865723 1.794890284538269 3.593244791030884 C 2.942590236663818 1.949334740638733 4.533600330352783 0.6998447179794312 6.395930290222168 -0.02013525925576687 C 7.74845027923584 1.067174792289734 9.450560569763184 1.665904760360718 11.18970012664795 1.665904760360718 C 12.92887020111084 1.665904760360718 14.63152027130127 1.067074775695801 15.98401069641113 -0.02027525939047337 C 17.84703063964844 0.6997747421264648 19.43782043457031 1.949264764785767 20.58541107177734 3.592964649200439 C 21.75963973999023 5.274824619293213 22.38030052185059 7.251914978027344 22.38030052185059 9.310504913330078 L 22.38030052185059 9.445505142211914 C 22.38030052185059 11.65089511871338 20.58568000793457 13.44510459899902 18.37980079650879 13.44510459899902 Z" stroke="none" fill="#000"/>
      </g>
    </g>
  </g>
</svg>
