<svg id="구성_요소_1171_1" data-name="구성 요소 1171 – 1" xmlns="http://www.w3.org/2000/svg" xmlns:xlink="http://www.w3.org/1999/xlink" width="24" height="24" viewBox="0 0 24 24">
  <defs>
    <style>
      .cls-1, .cls-4, .cls-6 {
        fill: none;
      }

      .cls-1, .cls-2 {
        stroke: #000;
      }

      .cls-2 {
        fill: #e7ff5e;
        stroke-width: 1.5px;
      }

      .cls-3 {
        clip-path: url(#clip-path);
      }

      .cls-5, .cls-7 {
        stroke: none;
      }

      .cls-7 {
        fill: #000;
      }
    </style>
    <clipPath id="clip-path">
      <rect id="사각형_26957" data-name="사각형 26957" class="cls-1" width="13.718" height="7.545" transform="translate(0 0)"/>
    </clipPath>
  </defs>
  <g id="그룹_30099" data-name="그룹 30099" transform="translate(-1030.997 -378.15)">
    <g id="타원_160" data-name="타원 160" class="cls-2" transform="translate(1030.997 378.15)">
      <circle class="cls-5" cx="12" cy="12" r="12"/>
      <circle class="cls-6" cx="12" cy="12" r="11.25"/>
    </g>
    <rect id="사각형_26955" data-name="사각형 26955" width="1.5" height="3" rx="0.75" transform="translate(1040.462 384.074) rotate(16)"/>
    <g id="마스크_그룹_167" data-name="마스크 그룹 167" class="cls-3" transform="translate(1036.596 387.604) rotate(16)">
      <g id="패스_4492" data-name="패스 4492" class="cls-4" transform="translate(0 -6.173)">
        <path class="cls-5" d="M6.859,0A6.859,6.859,0,1,1,0,6.859,6.859,6.859,0,0,1,6.859,0Z"/>
        <path class="cls-7" d="M 6.858780384063721 1.500000953674316 C 3.903950691223145 1.50001049041748 1.50001049041748 3.9039306640625 1.5 6.85874080657959 C 1.5 8.29011058807373 2.057400703430176 9.635801315307617 3.069530487060547 10.64793109893799 C 4.081670761108398 11.66006088256836 5.427370071411133 12.21746063232422 6.858760356903076 12.21746063232422 C 9.813590049743652 12.21745109558105 12.21753025054932 9.813530921936035 12.2175407409668 6.858720779418945 C 12.2175407409668 5.427350997924805 11.66014003753662 4.081650733947754 10.64801025390625 3.069530487060547 C 9.635869979858398 2.057400703430176 8.290170669555664 1.500000953674316 6.858780384063721 1.500000953674316 M 6.858780384063721 9.5367431640625e-07 C 10.64678001403809 -9.5367431640625e-06 13.71755027770996 3.070740699768066 13.7175407409668 6.858720779418945 C 13.71753025054932 10.64669036865234 10.64675045013428 13.71745109558105 6.858760356903076 13.71746063232422 C 3.070760726928711 13.7174711227417 -9.5367431640625e-06 10.6467113494873 0 6.85874080657959 C 1.049041748046875e-05 3.070771217346191 3.07079029083252 1.049041748046875e-05 6.858780384063721 9.5367431640625e-07 Z"/>
      </g>
    </g>
    <rect id="사각형_27409" data-name="사각형 27409" width="1.5" height="3" rx="0.75" transform="translate(1046.726 385.869) rotate(16)"/>
  </g>
</svg>
