<svg xmlns="http://www.w3.org/2000/svg" xmlns:xlink="http://www.w3.org/1999/xlink" width="118" height="22" viewBox="0 0 118 22">
  <defs>
    <style>
      .cls-1 {
        stroke: #707070;
      }

      .cls-2 {
        clip-path: url(#clip-path);
      }

      .cls-3 {
        fill: #fff;
      }
    </style>
    <clipPath id="clip-path">
      <rect id="사각형_26949" data-name="사각형 26949" class="cls-1" width="118" height="22" transform="translate(16 6680)"/>
    </clipPath>
  </defs>
  <g id="logo" class="cls-2" transform="translate(-16 -6680)">
    <g id="그룹_23029" data-name="그룹 23029" transform="translate(-17.403 6462.842)">
      <path id="패스_4483" data-name="패스 4483" class="cls-3" d="M386.828,260.562h-4.139l5.426-15.632,4.026-.046-.716,2.077.061.039c.073-.069.15-.134.219-.207a7.689,7.689,0,0,1,2.055-1.593,6.415,6.415,0,0,1,4.432-.606,2.677,2.677,0,0,1,1.664,1.025,2.323,2.323,0,0,1,.444,1.064,1.464,1.464,0,0,0,.037.17c0,.017.023.03.053.069.145-.145.289-.286.43-.431a6.688,6.688,0,0,1,3.464-1.989,6.177,6.177,0,0,1,3.007.1,2.786,2.786,0,0,1,2.133,2.317,4.328,4.328,0,0,1-.135,1.931c-.187.662-.409,1.315-.634,1.966q-1.6,4.637-3.22,9.27c-.035.1-.073.2-.121.332h-4.125c.022-.076.044-.165.073-.251q1.413-4.087,2.827-8.173c.21-.605.422-1.209.629-1.815a3.371,3.371,0,0,0,.214-1.109,1.045,1.045,0,0,0-.976-1.177,3.753,3.753,0,0,0-3.517,1.2,5.5,5.5,0,0,0-1.088,1.949q-1.209,3.48-2.416,6.959l-.764,2.2c-.028.082-.06.163-.1.278h-4.115c.028-.1.053-.207.09-.313q1.572-4.54,3.143-9.081c.155-.449.3-.9.412-1.363a2.574,2.574,0,0,0,.038-.779.976.976,0,0,0-.691-.893,2.408,2.408,0,0,0-.659-.139,3.651,3.651,0,0,0-3.255,1.421,6.082,6.082,0,0,0-.938,1.8q-1.572,4.54-3.14,9.081C386.916,260.326,386.875,260.434,386.828,260.562Z" transform="translate(-296.11 -23.122)"/>
      <path id="패스_4484" data-name="패스 4484" class="cls-3" d="M54.491,221.773l-1.5,4.161c-.314.011-.616.03-.919.032q-3.362.023-6.724.041c-.413,0-.826,0-1.238.022a3.228,3.228,0,0,0-1.54.529,6.785,6.785,0,0,0-1.822,1.757,12.62,12.62,0,0,0-2.3,5.356,5.362,5.362,0,0,0,.044,2.391,1.789,1.789,0,0,0,.664,1.034,1.7,1.7,0,0,0,1.031.288c1.032,0,2.065-.008,3.1-.016q2.241-.018,4.482-.038c.362,0,.724,0,1.1,0-.022.08-.037.155-.062.226-.467,1.305-.938,2.609-1.4,3.916a.236.236,0,0,1-.28.189.83.83,0,0,0-.088,0q-3.7.01-7.406.021c-.618,0-1.237.04-1.855.033a5.355,5.355,0,0,1-1.678-.266,3.538,3.538,0,0,1-2.185-2.065,6.653,6.653,0,0,1-.5-2.4,13.352,13.352,0,0,1,.927-5,19.921,19.921,0,0,1,1.865-3.877,18.209,18.209,0,0,1,2.232-2.88,13.359,13.359,0,0,1,2.46-2.067,7.712,7.712,0,0,1,4.324-1.325c2.5-.019,4.994-.029,7.492-.043.482,0,.963-.012,1.445-.018C54.252,221.772,54.349,221.773,54.491,221.773Z" transform="translate(0 -3.922)"/>
      <path id="패스_4485" data-name="패스 4485" class="cls-3" d="M555.147,249.126h-3.9c.051-.135.087-.243.131-.348a7.868,7.868,0,0,1,5.773-4.813,12.535,12.535,0,0,1,4.977-.184,4.676,4.676,0,0,1,1.634.561,2.471,2.471,0,0,1,1.285,2.52,7.476,7.476,0,0,1-.476,1.824q-1.412,4.086-2.82,8.172a8.541,8.541,0,0,0-.3,1.212.978.978,0,0,0,.378,1.051l-.194.533h-4.455a6.234,6.234,0,0,1,.229-1.787c-.137.1-.224.155-.308.218a8.547,8.547,0,0,1-4.79,1.754,7.825,7.825,0,0,1-1.822-.072,3.386,3.386,0,0,1-1.987-1.052,2.209,2.209,0,0,1-.508-1.957,7.025,7.025,0,0,1,2.739-4.567,8.47,8.47,0,0,1,4.066-1.661q1.824-.257,3.646-.53a3.372,3.372,0,0,0,1.324-.466,1.789,1.789,0,0,0,.849-1.238.952.952,0,0,0-.766-1.237,3.744,3.744,0,0,0-4.415,1.591C555.341,248.8,555.255,248.949,555.147,249.126Zm4.138,3.014c-.5.154-.974.317-1.456.442-.427.111-.865.179-1.3.267a11.508,11.508,0,0,0-2.322.646,2.888,2.888,0,0,0-1.755,2.219,1.693,1.693,0,0,0-.025.289,1.05,1.05,0,0,0,.96,1.156,3.688,3.688,0,0,0,1.262-.026,5.7,5.7,0,0,0,2.744-1.331,4.224,4.224,0,0,0,1.306-1.9c.176-.5.346-1.01.517-1.515C559.245,252.3,559.263,252.222,559.286,252.14Z" transform="translate(-436.211 -22.486)"/>
      <path id="패스_4486" data-name="패스 4486" class="cls-3" d="M312.016,224.211h-5.1c0-.209,1.178-3.565,1.452-4.132l14.509-.111-1.5,4.163H316.2l-5.66,15.7H306.4c.285-.874.615-1.729.921-2.591s.624-1.735.936-2.6l.938-2.6.938-2.6q.469-1.3.938-2.6C311.386,225.969,311.7,225.1,312.016,224.211Z" transform="translate(-231.439 -2.388)"/>
      <path id="패스_4487" data-name="패스 4487" class="cls-3" d="M136.282,245.777c.164-.462.3-.863.449-1.263q.927-2.572,1.855-5.144,1.022-2.832,2.045-5.663.665-1.847,1.325-3.7a4.97,4.97,0,0,1,3.161-3.072,3.939,3.939,0,0,1,2.175-.175,2.615,2.615,0,0,1,2.321,2.55,12.5,12.5,0,0,1-.01,2.264c-.063,1.209-.161,2.416-.245,3.624-.079,1.12-.18,2.24-.232,3.361-.044.938-.068,1.88-.031,2.818a5.505,5.505,0,0,0,.937,2.988,4.432,4.432,0,0,0,3.206,1.9c.127.017.253.033.381.041s.251,0,.413,0l-.113.692a9.789,9.789,0,0,1-1.842-.067,10.006,10.006,0,0,1-2.067-.449,4.7,4.7,0,0,1-2.691-2.346,4.483,4.483,0,0,1-.413-2.406c.112-1.377.245-2.753.368-4.129.061-.693.124-1.386.174-2.08.048-.656.091-1.312.117-1.968s.053-1.317.033-1.974a6.221,6.221,0,0,0-.176-1.26c-.125-.52-.362-.6-.838-.336a1.247,1.247,0,0,0-.575.677q-.329.886-.648,1.776-.952,2.64-1.9,5.282l-1.851,5.145q-.5,1.382-.993,2.765a.749.749,0,0,1-.061.1h-.3c-1.111,0-2.223,0-3.335,0C136.723,245.74,136.531,245.761,136.282,245.777Z" transform="translate(-87.217 -8.097)"/>
      <path id="패스_4488" data-name="패스 4488" class="cls-3" d="M201.223,219.414a3.623,3.623,0,0,1,.876-.25,6.7,6.7,0,0,1,2.461-.1,2.874,2.874,0,0,1,2.16,1.547,5.676,5.676,0,0,1,.6,2.233,19.606,19.606,0,0,1-.1,3.8c-.163,1.532-.362,3.061-.522,4.594-.09.858-.135,1.72-.194,2.58a2.87,2.87,0,0,0,.014.523.67.67,0,0,0,1.009.555,1.319,1.319,0,0,0,.644-.616,4.293,4.293,0,0,0,.215-.509q2.58-7.163,5.158-14.327c.036-.1.076-.2.123-.32h4.209c-.04.121-.072.231-.111.338q-2.806,7.793-5.615,15.586a10.382,10.382,0,0,1-1.759,3.207,1.707,1.707,0,0,1-1.362.642,3.442,3.442,0,0,1-.874-.1,3.855,3.855,0,0,1-2.768-2.511,7.939,7.939,0,0,1-.43-2.657,27.009,27.009,0,0,1,.165-2.96c.118-1.254.232-2.51.32-3.766.076-1.073.122-2.148.165-3.224a5.82,5.82,0,0,0-.225-1.9,3.118,3.118,0,0,0-2.823-2.321C202.11,219.424,201.66,219.43,201.223,219.414Z" transform="translate(-142.271 -1.561)"/>
      <path id="패스_4489" data-name="패스 4489" class="cls-3" d="M740.03,217.158h4.114a8.979,8.979,0,0,1-.338,1.042c-.114.35-.238.7-.358,1.046s-.234.679-.35,1.019-.236.694-.365,1.074h2.522l-1.028,2.933h-2.512c-.046.108-.083.185-.111.265q-1.472,4.235-2.943,8.47c-.022.064-.046.128-.064.193a.564.564,0,0,0,.5.809,5.528,5.528,0,0,0,.938.055c.253,0,.506-.03.805-.05l-1.072,3.107c-.592.02-1.171.045-1.75.057a12.017,12.017,0,0,1-2.237-.072,4.707,4.707,0,0,1-.828-.2,1.461,1.461,0,0,1-1.047-1.626,5.714,5.714,0,0,1,.34-1.5q1.579-4.537,3.156-9.074c.04-.116.073-.234.119-.381h-2.15c.329-.993.675-1.944,1.018-2.927h.946c.315,0,.629,0,.944-.006.282,0,.284-.007.372-.262q.626-1.816,1.251-3.633C739.939,217.388,739.983,217.281,740.03,217.158Z" transform="translate(-593.853 0)"/>
      <path id="패스_4490" data-name="패스 4490" class="cls-3" d="M661.581,242.816l-1.208,3.448c-.3,0-.576.015-.849,0a3.008,3.008,0,0,0-1.757.39,10.938,10.938,0,0,0-3.139,2.607,7.853,7.853,0,0,0-1.192,2.326L651,258.595c-.035.1-.073.2-.121.329h-4.126c.033-.11.06-.219.1-.325q1.268-3.658,2.539-7.315,1.342-3.864,2.685-7.727c.1-.279.1-.28.386-.281l3.246-.013h.4c-.316,1.025-.7,2-1.018,2.993l.06.031c.068-.078.137-.156.2-.235a11.872,11.872,0,0,1,2.326-2.216,5.717,5.717,0,0,1,2.137-.946A8.666,8.666,0,0,1,661.581,242.816Z" transform="translate(-519.973 -21.799)"/>
    </g>
  </g>
</svg>
