<svg xmlns="http://www.w3.org/2000/svg" xmlns:xlink="http://www.w3.org/1999/xlink" width="164" height="32" viewBox="0 0 164 32">
  <defs>
    <style>
      .cls-1 {
        fill: #fff;
        stroke: #707070;
      }

      .cls-2 {
        clip-path: url(#clip-path);
      }
    </style>
    <clipPath id="clip-path">
      <rect id="사각형_27172" data-name="사각형 27172" class="cls-1" width="164" height="32" transform="translate(360 70)"/>
    </clipPath>
  </defs>
  <g id="마스크_그룹_253" data-name="마스크 그룹 253" class="cls-2" transform="translate(-360 -70)">
    <g id="그룹_23094" data-name="그룹 23094" transform="translate(326.597 -146.158)">
      <path id="패스_4531" data-name="패스 4531" d="M388.441,267.2h-5.752l7.541-22.037,5.595-.064-.995,2.928.085.055c.1-.1.209-.189.3-.292a10.706,10.706,0,0,1,2.856-2.245,8.8,8.8,0,0,1,6.16-.854,3.713,3.713,0,0,1,2.313,1.446,3.3,3.3,0,0,1,.618,1.5,2.112,2.112,0,0,0,.051.24c.007.024.031.043.074.1.2-.2.4-.4.6-.608a9.265,9.265,0,0,1,4.814-2.8,8.468,8.468,0,0,1,4.179.135,3.907,3.907,0,0,1,2.965,3.266,6.185,6.185,0,0,1-.187,2.722c-.26.933-.569,1.854-.882,2.771q-2.23,6.536-4.475,13.068c-.048.141-.1.28-.168.468H408.4c.031-.107.06-.233.1-.354q1.964-5.762,3.93-11.522c.291-.853.587-1.7.874-2.559a4.817,4.817,0,0,0,.3-1.564,1.468,1.468,0,0,0-1.357-1.66,5.173,5.173,0,0,0-4.888,1.7,7.782,7.782,0,0,0-1.512,2.747q-1.68,4.906-3.357,9.811-.531,1.551-1.062,3.1c-.039.115-.083.23-.141.392h-5.719c.039-.138.074-.292.125-.441q2.184-6.4,4.368-12.8c.215-.633.42-1.272.573-1.921a3.677,3.677,0,0,0,.053-1.1,1.373,1.373,0,0,0-.961-1.26,3.3,3.3,0,0,0-.917-.2,5.043,5.043,0,0,0-4.524,2,8.617,8.617,0,0,0-1.3,2.542q-2.185,6.4-4.364,12.8C388.564,266.868,388.507,267.019,388.441,267.2Z" transform="translate(-275.381 -21.449)"/>
      <path id="패스_4532" data-name="패스 4532" d="M62.712,221.773l-2.087,5.867c-.436.016-.856.042-1.277.045q-4.673.032-9.346.057c-.574,0-1.148,0-1.721.031a4.446,4.446,0,0,0-2.14.746A9.492,9.492,0,0,0,43.608,231a17.924,17.924,0,0,0-3.192,7.551,7.666,7.666,0,0,0,.062,3.372,2.525,2.525,0,0,0,.923,1.458,2.333,2.333,0,0,0,1.433.405c1.435,0,2.87-.011,4.305-.023q3.114-.025,6.229-.054c.5,0,1.006,0,1.531,0-.03.113-.051.218-.087.318-.649,1.84-1.3,3.679-1.947,5.521a.328.328,0,0,1-.389.267,1.147,1.147,0,0,0-.123,0q-5.146.014-10.293.029c-.859,0-1.719.056-2.578.046a7.346,7.346,0,0,1-2.332-.375,4.948,4.948,0,0,1-3.037-2.911,9.5,9.5,0,0,1-.7-3.386,19.063,19.063,0,0,1,1.289-7.044,28.264,28.264,0,0,1,2.592-5.466,25.634,25.634,0,0,1,3.1-4.061,18.638,18.638,0,0,1,3.418-2.915,10.6,10.6,0,0,1,6.01-1.868c3.471-.027,6.941-.04,10.412-.06.669,0,1.339-.018,2.008-.026C62.379,221.772,62.515,221.773,62.712,221.773Z" transform="translate(0 -3.638)"/>
      <path id="패스_4533" data-name="패스 4533" d="M557.953,251.385h-5.427c.07-.191.121-.343.182-.491a10.975,10.975,0,0,1,8.024-6.785,17.181,17.181,0,0,1,6.918-.26,6.438,6.438,0,0,1,2.271.791,3.5,3.5,0,0,1,1.786,3.553,10.643,10.643,0,0,1-.661,2.571q-1.963,5.76-3.919,11.522a12.193,12.193,0,0,0-.414,1.708,1.389,1.389,0,0,0,.526,1.482l-.27.752h-6.191a8.911,8.911,0,0,1,.318-2.519c-.19.137-.312.218-.428.307a11.776,11.776,0,0,1-6.657,2.472,10.725,10.725,0,0,1-2.533-.1,4.686,4.686,0,0,1-2.762-1.484,3.148,3.148,0,0,1-.706-2.759,9.931,9.931,0,0,1,3.807-6.439,11.682,11.682,0,0,1,5.651-2.341q2.536-.362,5.068-.747a4.64,4.64,0,0,0,1.84-.657,2.523,2.523,0,0,0,1.18-1.745,1.342,1.342,0,0,0-1.065-1.744c-2.57-.618-4.681-.035-6.136,2.243C558.222,250.92,558.1,251.135,557.953,251.385Zm5.751,4.249c-.7.217-1.354.446-2.024.622-.593.156-1.2.253-1.805.376a15.811,15.811,0,0,0-3.227.911,4.061,4.061,0,0,0-2.439,3.128,2.416,2.416,0,0,0-.035.408,1.476,1.476,0,0,0,1.335,1.63,5.055,5.055,0,0,0,1.754-.036,7.883,7.883,0,0,0,3.814-1.877,5.958,5.958,0,0,0,1.815-2.681c.245-.71.481-1.423.718-2.136C563.648,255.866,563.673,255.749,563.7,255.633Z" transform="translate(-405.673 -20.858)"/>
      <path id="패스_4534" data-name="패스 4534" d="M314.2,225.95h-7.092c0-.294,1.638-5.026,2.018-5.825l20.164-.157-2.091,5.869h-7.178l-7.866,22.14H306.4c.4-1.232.854-2.437,1.28-3.652s.867-2.446,1.3-3.67l1.3-3.669,1.3-3.669q.652-1.835,1.3-3.669C313.328,228.428,313.759,227.207,314.2,225.95Z" transform="translate(-215.237 -2.215)"/>
      <path id="패스_4535" data-name="패스 4535" d="M136.282,253.6c.228-.651.423-1.216.624-1.78q1.288-3.626,2.579-7.252,1.421-3.992,2.842-7.984.925-2.6,1.841-5.211a6.953,6.953,0,0,1,4.393-4.331,5.4,5.4,0,0,1,3.023-.246,3.668,3.668,0,0,1,3.226,3.6,17.87,17.87,0,0,1-.014,3.192c-.087,1.7-.223,3.406-.341,5.109-.109,1.579-.251,3.157-.323,4.739-.06,1.323-.095,2.651-.043,3.973a7.84,7.84,0,0,0,1.3,4.212,6.146,6.146,0,0,0,4.456,2.683c.176.024.352.047.529.057s.349,0,.574,0l-.157.976a13.409,13.409,0,0,1-2.56-.095,13.741,13.741,0,0,1-2.873-.633,6.563,6.563,0,0,1-3.74-3.308,6.4,6.4,0,0,1-.574-3.392c.156-1.942.341-3.881.511-5.822.085-.977.172-1.954.242-2.932.066-.924.126-1.849.162-2.775s.073-1.857.046-2.783a8.884,8.884,0,0,0-.244-1.776c-.174-.734-.5-.846-1.164-.474a1.752,1.752,0,0,0-.8.954q-.458,1.249-.9,2.5-1.324,3.722-2.644,7.446-1.287,3.627-2.573,7.254-.691,1.949-1.38,3.9a1.068,1.068,0,0,1-.085.144h-.42c-1.545,0-3.09,0-4.635,0C136.895,253.549,136.628,253.579,136.282,253.6Z" transform="translate(-81.111 -7.511)"/>
      <path id="패스_4536" data-name="패스 4536" d="M201.223,219.586a4.985,4.985,0,0,1,1.217-.353,9.181,9.181,0,0,1,3.42-.135,4,4,0,0,1,3,2.18,8.09,8.09,0,0,1,.832,3.148,28.034,28.034,0,0,1-.142,5.361c-.227,2.16-.5,4.315-.726,6.476-.125,1.209-.188,2.424-.27,3.638a4.108,4.108,0,0,0,.019.737.931.931,0,0,0,1.4.783,1.845,1.845,0,0,0,.9-.868,6.11,6.11,0,0,0,.3-.717q3.586-10.1,7.168-20.2c.05-.141.106-.279.171-.45h5.85c-.055.171-.1.326-.154.477q-3.9,10.987-7.8,21.973a14.7,14.7,0,0,1-2.444,4.521,2.359,2.359,0,0,1-1.893.905,4.715,4.715,0,0,1-1.215-.141A5.387,5.387,0,0,1,207,243.384a11.338,11.338,0,0,1-.6-3.746,38.619,38.619,0,0,1,.23-4.173c.165-1.768.322-3.538.445-5.31.105-1.513.17-3.029.229-4.545a8.316,8.316,0,0,0-.313-2.677,4.35,4.35,0,0,0-3.924-3.272C202.456,219.6,201.83,219.609,201.223,219.586Z" transform="translate(-132.311 -1.448)"/>
      <path id="패스_4537" data-name="패스 4537" d="M742.419,217.158h5.717a12.834,12.834,0,0,1-.469,1.47c-.159.494-.331.984-.5,1.475s-.325.957-.486,1.436-.328.979-.507,1.514h3.5l-1.428,4.135h-3.491c-.063.152-.116.261-.154.374q-2.046,5.97-4.09,11.941c-.031.09-.064.18-.089.273-.17.633.043,1.023.693,1.141a7.59,7.59,0,0,0,1.3.078c.352,0,.7-.042,1.119-.07l-1.49,4.38c-.822.028-1.627.063-2.432.081a16.467,16.467,0,0,1-3.109-.1,6.456,6.456,0,0,1-1.15-.286,2.06,2.06,0,0,1-1.456-2.292,8.17,8.17,0,0,1,.473-2.113q2.194-6.4,4.386-12.792c.056-.163.1-.33.165-.537h-2.987c.456-1.4.937-2.74,1.415-4.127h1.314c.437,0,.875,0,1.312-.008.392-.006.394-.01.516-.37q.87-2.561,1.738-5.122C742.293,217.482,742.354,217.332,742.419,217.158Z" transform="translate(-552.279 0)"/>
      <path id="패스_4538" data-name="패스 4538" d="M667.362,242.82l-1.679,4.86c-.419,0-.8.021-1.18,0a4.132,4.132,0,0,0-2.442.55A15.253,15.253,0,0,0,657.7,251.9a11.132,11.132,0,0,0-1.657,3.279l-3.385,9.886c-.048.142-.1.281-.168.464h-5.735c.046-.156.084-.309.135-.458q1.763-5.157,3.529-10.313,1.865-5.447,3.732-10.893c.135-.394.135-.394.537-.4l4.511-.018h.55c-.439,1.445-.973,2.818-1.416,4.22l.083.044c.095-.11.191-.22.283-.331a16.612,16.612,0,0,1,3.233-3.124,7.891,7.891,0,0,1,2.97-1.334A11.874,11.874,0,0,1,667.362,242.82Z" transform="translate(-483.571 -20.222)"/>
    </g>
  </g>
</svg>
