<svg xmlns="http://www.w3.org/2000/svg" width="85.784" height="42" viewBox="0 0 85.784 42">
  <defs>
    <style>
      .cls-1 {
        fill: #e7ff5e;
      }
    </style>
  </defs>
  <path id="패스_10776" data-name="패스 10776" class="cls-1" d="M1147.441,482.308c2.98,5.24,7.805,8.646,13.252,8.646,9.051,0,16.388-9.4,16.388-21s-7.337-21-16.388-21c-5.447,0-10.272,3.406-13.252,8.646-2.98-5.24-7.805-8.646-13.252-8.646s-10.272,3.406-13.252,8.646c-2.98-5.24-7.805-8.646-13.252-8.646-9.051,0-16.388,9.4-16.388,21s7.337,21,16.388,21c5.447,0,10.272-3.406,13.252-8.646,2.98,5.24,7.805,8.646,13.252,8.646S1144.462,487.548,1147.441,482.308Z" transform="translate(-1091.297 -448.954)"/>
</svg>
