<svg xmlns="http://www.w3.org/2000/svg" width="80" height="36" viewBox="0 0 80 36">
  <path id="패스_10422" data-name="패스 10422" d="M1143.656,477.543c2.779,4.492,7.279,7.411,12.359,7.411,8.44,0,15.283-8.059,15.283-18s-6.842-18-15.283-18c-5.08,0-9.58,2.92-12.359,7.411-2.779-4.492-7.279-7.411-12.359-7.411s-9.58,2.92-12.359,7.411c-2.779-4.492-7.279-7.411-12.358-7.411-8.441,0-15.283,8.059-15.283,18s6.842,18,15.283,18c5.079,0,9.58-2.92,12.358-7.411,2.779,4.492,7.279,7.411,12.359,7.411S1140.877,482.034,1143.656,477.543Z" transform="translate(-1091.297 -448.954)"/>
</svg>
