<svg id="menu_2_2" xmlns="http://www.w3.org/2000/svg" width="80.002" height="63.001" viewBox="0 0 80.002 63.001">
  <defs>
    <style>
      .cls-1 {
        fill: #e7ff5e;
      }

      .cls-2 {
        fill: #fff;
        opacity: 0;
      }
    </style>
  </defs>
  <path id="합치기_35" data-name="합치기 35" d="M-12406,36h-31a3,3,0,0,1-3-3V3a3,3,0,0,1,3-3h74a3,3,0,0,1,3,3V33a3,3,0,0,1-3,3h-31l-6,6Z" transform="translate(12440.001 21)"/>
  <path id="패스_10413" data-name="패스 10413" class="cls-1" d="M181.033,225.7l-2.179,6.838-6.821,2.162,6.821,2.165,2.179,6.835,2.179-6.835,6.821-2.165-6.821-2.162Z" transform="translate(-145.031 -213.699)"/>
  <path id="패스_10414" data-name="패스 10414" class="cls-1" d="M181.033,225.7l-2.179,6.838-6.821,2.162,6.821,2.165,2.179,6.835,2.179-6.835,6.821-2.165-6.821-2.162Z" transform="translate(-167.031 -225.699)"/>
  <g id="txt" transform="translate(-454.998 -389)">
    <g id="그룹_30097" data-name="그룹 30097">
      <rect id="사각형_29894" data-name="사각형 29894" class="cls-2" width="80" height="36" transform="translate(455 410)"/>
    </g>
  </g>
</svg>
