<svg id="구성_요소_2700_1" data-name="구성 요소 2700 – 1" xmlns="http://www.w3.org/2000/svg" width="100.002" height="26.998" viewBox="0 0 100.002 26.998">
  <defs>
    <style>
      .cls-1 {
        fill: #fff;
      }

      .cls-2 {
        fill: #ff5454;
      }

      .cls-3, .cls-4 {
        stroke: none;
      }

      .cls-4 {
        fill: #ff5454;
      }
    </style>
  </defs>
  <g id="합치기_231" data-name="합치기 231" class="cls-1" transform="translate(-16666.998 -12177)">
    <path class="cls-3" d="M 16717.2421875 12203.296875 L 16713.521484375 12199.64453125 L 16713.376953125 12199.5009765625 L 16713.171875 12199.5009765625 L 16678.498046875 12199.5009765625 C 16672.43359375 12199.5009765625 16667.498046875 12194.56640625 16667.498046875 12188.5009765625 C 16667.498046875 12185.5615234375 16668.642578125 12182.798828125 16670.720703125 12180.720703125 C 16672.798828125 12178.6435546875 16675.560546875 12177.5 16678.498046875 12177.5 L 16755.5 12177.5 C 16758.4375 12177.5 16761.19921875 12178.6435546875 16763.27734375 12180.720703125 C 16765.35546875 12182.798828125 16766.5 12185.5615234375 16766.5 12188.5009765625 C 16766.5 12194.56640625 16761.564453125 12199.5009765625 16755.5 12199.5009765625 L 16721.310546875 12199.5009765625 L 16721.10546875 12199.5009765625 L 16720.9609375 12199.64453125 L 16717.2421875 12203.296875 Z"/>
    <path class="cls-4" d="M 16717.2421875 12202.5966796875 L 16720.90234375 12199.0009765625 L 16755.5 12199.0009765625 C 16761.2890625 12199.0009765625 16766 12194.291015625 16766 12188.5009765625 C 16766 12185.6953125 16764.908203125 12183.0576171875 16762.923828125 12181.0751953125 C 16760.94140625 12179.091796875 16758.3046875 12178 16755.5 12178 L 16678.498046875 12178 C 16675.693359375 12178 16673.056640625 12179.091796875 16671.07421875 12181.0751953125 C 16669.08984375 12183.0576171875 16667.998046875 12185.6953125 16667.998046875 12188.5009765625 C 16667.998046875 12194.291015625 16672.708984375 12199.0009765625 16678.498046875 12199.0009765625 L 16713.580078125 12199.0009765625 L 16713.873046875 12199.287109375 L 16717.2421875 12202.5966796875 M 16717.2421875 12203.998046875 L 16713.171875 12200.0009765625 L 16678.498046875 12200.0009765625 C 16672.1484375 12200.0009765625 16666.998046875 12194.8505859375 16666.998046875 12188.5009765625 C 16666.998046875 12182.146484375 16672.1484375 12177 16678.498046875 12177 L 16755.5 12177 C 16761.849609375 12177 16767 12182.146484375 16767 12188.5009765625 C 16767 12194.8505859375 16761.849609375 12200.0009765625 16755.5 12200.0009765625 L 16721.310546875 12200.0009765625 L 16717.2421875 12203.998046875 Z"/>
  </g>
  <path id="패스_10806" data-name="패스 10806" class="cls-2" d="M6.617-.884V0H1.625V-.884h2V-7.235q0-.286.019-.578L1.983-6.39a.374.374,0,0,1-.169.088.423.423,0,0,1-.156,0,.372.372,0,0,1-.133-.052.33.33,0,0,1-.094-.084l-.364-.5,2.776-2.4h.943v8.45Zm5.018-2.477V-7.2q0-.169.013-.371t.039-.409L8.294-3.361Zm2.424,0V-2.7A.259.259,0,0,1,14-2.522a.24.24,0,0,1-.192.072H12.649V0H11.635V-2.451H7.5a.35.35,0,0,1-.224-.075.327.327,0,0,1-.12-.185L7.039-3.3l4.53-6.013h1.079v5.954ZM24.037-10.7H22.971v5.98h1.066ZM15.769-7.683a1.8,1.8,0,0,1,1.976-1.729,1.8,1.8,0,0,1,1.976,1.729,1.8,1.8,0,0,1-1.976,1.716A1.8,1.8,0,0,1,15.769-7.683Zm4.992,0c0-1.547-1.274-2.6-3.016-2.6a2.7,2.7,0,0,0-3,2.6c0,1.534,1.261,2.574,3,2.574S20.761-6.149,20.761-7.683Zm-3.2,7.644V-1.326h6.474V-4.147H16.484V-3.3h6.5v1.183H16.51V.806h7.917V-.039ZM35.7-9.36H31.59v-1.4H30.511v1.4H26.325V-8.5H35.7ZM33.722-5.889c0,.715-.962,1.131-2.665,1.131s-2.691-.416-2.691-1.131.988-1.131,2.691-1.131S33.722-6.6,33.722-5.889Zm-6.461,0c0,1.248,1.417,1.937,3.8,1.937,2.353,0,3.77-.689,3.77-1.937s-1.417-1.95-3.77-1.95C28.678-7.839,27.261-7.137,27.261-5.889Zm9.087,2.756H25.779v.871h4.732V.975H31.59V-2.262h4.758Zm6.929-5.486h2.587V-9.5H39.559v.884h2.665v1.482a6.1,6.1,0,0,1-3.068,5.018l.624.845a6.583,6.583,0,0,0,2.977-3.861A6.292,6.292,0,0,0,45.682-1.56l.611-.858a5.607,5.607,0,0,1-3.016-4.719Zm6.968,2.626H48.321v-4.693H47.255V.962h1.066V-5.1h1.924ZM55.939.13c-1.846,0-2.925-.455-2.925-1.274s1.079-1.274,2.925-1.274c1.82,0,2.9.455,2.9,1.274S57.759.13,55.939.13Zm0-3.38c-2.5,0-4,.754-4,2.106s1.508,2.106,4,2.106c2.47,0,3.978-.754,3.978-2.106S58.409-3.25,55.939-3.25Zm.533-1.69V-6.292h3.51V-7.15H53.053V-9.308H59.9v-.858H51.987v3.874h3.419V-4.94H50.661v.858H61.217V-4.94ZM68.9-9.633H66.092v-1.144H65.026v1.144H62.205v.806h6.7ZM63.843-6.669c0-.611.663-.988,1.716-.988,1.027,0,1.7.377,1.7.988s-.676,1-1.7,1C64.506-5.668,63.843-6.058,63.843-6.669Zm5.408,2.236a30.994,30.994,0,0,1-3.159.286v-.806c1.339-.143,2.184-.767,2.184-1.716,0-1.066-1.092-1.729-2.717-1.729-1.651,0-2.73.663-2.73,1.729,0,.962.845,1.586,2.2,1.716v.845c-1.118.039-2.184.039-3.107.039l.117.858a44.481,44.481,0,0,0,7.293-.455Zm-5.915,2.99h6.6V.962h1.066v-3.25h-7.67Zm9.386-5.72H71.006v-3.523H69.94v7.813h1.066V-6.279h1.716Zm6.786-.507V-6.8h2.3v3.055h1.079v-6.942H81.809V-7.67Zm.65,2.652A4.014,4.014,0,0,1,77.324-8.58v-.4h2.561v-.858H73.658v.858h2.6v.4A4.3,4.3,0,0,1,73.32-4.693l.559.845a5.046,5.046,0,0,0,2.938-2.964,4.79,4.79,0,0,0,2.808,2.626ZM79.04.13c-1.755,0-2.821-.494-2.821-1.339s1.066-1.352,2.821-1.352,2.821.507,2.821,1.352S80.8.13,79.04.13Zm0-3.51c-2.392,0-3.887.793-3.887,2.171S76.648.962,79.04.962s3.874-.793,3.874-2.171S81.432-3.38,79.04-3.38Z" transform="translate(8.004 17.001)"/>
</svg>
