<svg xmlns="http://www.w3.org/2000/svg" width="328.002" height="234.001" viewBox="0 0 328.002 234.001">
  <g id="그룹_31894" data-name="그룹 31894" transform="translate(19169 7774.5)">
    <g id="패스_10808" data-name="패스 10808" transform="translate(-18910 -19971.5)" fill="#fff">
      <path d="M 68.49927520751953 12430.5009765625 L 29.48798370361328 12430.5 C 29.3654613494873 12427.8857421875 28.28724098205566 12425.4443359375 26.42073059082031 12423.578125 C 24.43585586547852 12421.5927734375 21.80010604858398 12420.4990234375 18.99906349182129 12420.4990234375 C 13.37815093994141 12420.4990234375 8.774918556213379 12424.9404296875 8.513273239135742 12430.5 L -258.4993896484375 12430.5 L -258.4993896484375 12197.5 L 8.513264656066895 12197.5 C 8.635750770568848 12200.1142578125 9.713643074035645 12202.5556640625 11.57960605621338 12204.421875 C 13.56389713287354 12206.4072265625 16.19885635375977 12207.5009765625 18.99906349182129 12207.5009765625 C 24.62163543701172 12207.5009765625 29.22625160217285 12203.0595703125 29.48797607421875 12197.5 L 68.49927520751953 12197.5 L 68.49927520751953 12430.5009765625 Z" stroke="none"/>
      <path d="M 67.99927520751953 12430.0009765625 L 67.99927520751953 12198 L 29.95467567443848 12198 C 29.44802093505859 12203.599609375 24.72794914245605 12208.0009765625 18.99906349182129 12208.0009765625 C 16.06527137756348 12208.0009765625 13.30468940734863 12206.85546875 11.22602272033691 12204.775390625 C 9.385129928588867 12202.9345703125 8.276384353637695 12200.5576171875 8.046350479125977 12198 L -257.9993896484375 12198 L -257.9993896484375 12430 L 8.046563148498535 12430 C 8.553072929382324 12424.400390625 13.27179145812988 12419.9990234375 18.99906349182129 12419.9990234375 C 21.93368911743164 12419.9990234375 24.69502258300781 12421.14453125 26.77423095703125 12423.224609375 C 28.61571311950684 12425.0654296875 29.72478866577148 12427.4423828125 29.95489120483398 12430 L 67.99927520751953 12430.0009765625 M 68.99927520751953 12431.0009765625 L 28.99973106384277 12431 C 28.99923133850098 12428.3330078125 27.95810508728027 12425.822265625 26.06718826293945 12423.931640625 C 24.17618942260742 12422.0400390625 21.6660213470459 12420.9990234375 18.99906349182129 12420.9990234375 C 13.4863977432251 12420.9990234375 9.001522064208984 12425.4853515625 9.001522064208984 12431 L -258.9993896484375 12431 L -258.9993896484375 12197 L 9.001522064208984 12197 C 9.002022743225098 12199.6669921875 10.04281425476074 12202.177734375 11.93318939208984 12204.068359375 C 13.82356357574463 12205.9599609375 16.33293914794922 12207.0009765625 18.99906349182129 12207.0009765625 C 24.5134391784668 12207.0009765625 28.99973106384277 12202.5146484375 28.99973106384277 12197 L 68.99927520751953 12197 L 68.99927520751953 12431.0009765625 Z" stroke="none" fill="#eee"/>
    </g>
    <g id="그룹_30657" data-name="그룹 30657" transform="translate(-21637 3399.499)">
      <path id="빼기_26" data-name="빼기 26" d="M-290,12430h-40a9.936,9.936,0,0,0-2.933-7.068A9.937,9.937,0,0,0-340,12420v-214a10.013,10.013,0,0,0,10-10h40v234Z" transform="translate(3086.002 -23370)" fill="#ffb4ec"/>
      <path id="패스_10810" data-name="패스 10810" d="M-20.224-6.608a4.616,4.616,0,0,1-3.376-4.32V-12.48h-1.664v1.424a5.05,5.05,0,0,1-3.5,4.832l.88,1.312A5.941,5.941,0,0,0-24.4-8.336a5.69,5.69,0,0,0,3.312,3.024ZM-22-.064c-2.016,0-3.184-.5-3.184-1.424,0-.9,1.168-1.408,3.184-1.408s3.184.512,3.184,1.408C-18.816-.56-19.984-.064-22-.064Zm0-4.128c-2.976,0-4.816,1.008-4.816,2.7,0,1.712,1.84,2.72,4.816,2.72,2.992,0,4.816-1.008,4.816-2.72C-17.184-3.184-19.008-4.192-22-4.192Zm4.656-5.456v-3.584h-1.648v8.688h1.648V-8.288H-15.3v-1.36Zm11.616.832H-9.056v-2.656h3.328Zm-4.976,0h-1.968v1.328H-2.128V-8.816H-4.08v-2.656h2.032V-12.8h-10.7v1.328H-10.7Zm6.656,8.56H-10.72V-2.224h6.672Zm3.2-4.752V-6.336H-13.92v1.328h5.712v1.472h-4.144V1.056h9.92V-3.536H-6.56V-5.008Zm14.72-.5H11.808a23.8,23.8,0,0,0,.512-5.552v-1.328h-9.9v1.344h8.3c0,.576,0,1.152-.032,1.792l-8.72.3L2.16-7.552l8.432-.416A18.012,18.012,0,0,1,10.176-5.5H.816v1.36h5.7V1.232H8.176V-4.144h5.7Zm4.96,2.432H17.168V.96h9.968V-.384h-8.3Zm1.552-8.208h3.328v2.9H20.384Zm2.5,5.76V-7.056h4.432V-8.384H25.36v-2.9h2.032v-1.328h-10.7v1.328h2.048v2.9H16.768v1.328h4.448V-5.52H15.5v1.344h13.1V-5.52Z" transform="translate(2764.001 -11057) rotate(90)" fill="#1f1f1f"/>
      <line id="선_693" data-name="선 693" x1="0.499" y2="212.999" transform="translate(2746.001 -11163.499)" fill="none" stroke="#ffb4ec" stroke-width="1" stroke-dasharray="2 3"/>
    </g>
    <g id="그룹_30992" data-name="그룹 30992" transform="translate(-19906.617 -8708.501)">
      <g id="패스_10781" data-name="패스 10781" transform="translate(-359.988 12182.086)" fill="#ffb4ec">
        <path d="M 1334.120971679688 -11058.0263671875 L 1333.992065429688 -11060.673828125 L 1338.632202148438 -11063.0556640625 L 1340.67041015625 -11058.443359375 L 1334.120971679688 -11058.0263671875 Z" stroke="none"/>
        <path d="M 1338.267456054688 -11062.025390625 L 1334.764770507812 -11060.2275390625 L 1334.8330078125 -11058.8232421875 L 1339.5498046875 -11059.1240234375 L 1338.267456054688 -11062.025390625 M 1338.996826171875 -11064.0859375 L 1341.790893554688 -11057.763671875 L 1333.408813476562 -11057.2294921875 L 1333.219482421875 -11061.1201171875 L 1338.996826171875 -11064.0859375 Z" stroke="none" fill="#000"/>
      </g>
      <g id="패스_10780" data-name="패스 10780" transform="translate(-371.988 12182.086)" fill="#ffb4ec">
        <path d="M 1340.889404296875 -11058.0263671875 L 1334.340087890625 -11058.443359375 L 1336.378173828125 -11063.0556640625 L 1341.018310546875 -11060.673828125 L 1340.889404296875 -11058.0263671875 Z" stroke="none"/>
        <path d="M 1336.742919921875 -11062.025390625 L 1335.460571289062 -11059.1240234375 L 1340.17724609375 -11058.8232421875 L 1340.24560546875 -11060.2275390625 L 1336.742919921875 -11062.025390625 M 1336.013549804688 -11064.0859375 L 1341.790893554688 -11061.1201171875 L 1341.601440429688 -11057.2294921875 L 1333.219482421875 -11057.763671875 L 1336.013549804688 -11064.0859375 Z" stroke="none" fill="#000"/>
      </g>
      <g id="사각형_30974" data-name="사각형 30974" transform="translate(968.617 1120.571)" fill="#ffb4ec" stroke="#000" stroke-width="1.5">
        <rect width="6" height="4.286" stroke="none"/>
        <rect x="0.75" y="0.75" width="4.5" height="2.786" fill="none"/>
      </g>
      <g id="사각형_30971" data-name="사각형 30971" transform="translate(957.474 1127.429)" fill="#fff" stroke="#000" stroke-width="1.5">
        <rect width="28.286" height="20.571" stroke="none"/>
        <rect x="0.75" y="0.75" width="26.786" height="19.071" fill="none"/>
      </g>
      <g id="사각형_30972" data-name="사각형 30972" transform="translate(956.617 1123.143)" fill="#fff" stroke="#000" stroke-width="1.5">
        <rect width="30" height="8.571" stroke="none"/>
        <rect x="0.75" y="0.75" width="28.5" height="7.071" fill="none"/>
      </g>
      <g id="사각형_30973" data-name="사각형 30973" transform="translate(966.903 1123.143)" fill="#ffb4ec" stroke="#000" stroke-width="1.5">
        <rect width="9.429" height="24.857" stroke="none"/>
        <rect x="0.75" y="0.75" width="7.929" height="23.357" fill="none"/>
      </g>
    </g>
  </g>
</svg>
