<svg xmlns="http://www.w3.org/2000/svg" width="30" height="30" viewBox="0 0 30 30">
  <g id="ic_file_pdf" transform="translate(-543 -489)">
    <rect id="사각형_31390" data-name="사각형 31390" width="30" height="30" transform="translate(543 489)" fill="#fff"/>
    <g id="그룹_32709" data-name="그룹 32709" transform="translate(548 491)">
      <g id="그룹_32707" data-name="그룹 32707" transform="translate(0 0)">
        <path id="패스_10836" data-name="패스 10836" d="M1557.038,538.727h-15.2a2.572,2.572,0,0,1-2.568-2.569V516.39a2.571,2.571,0,0,1,2.568-2.569h12.276a.37.37,0,0,1,0,.739h-12.276a1.831,1.831,0,0,0-1.83,1.829v19.768a1.832,1.832,0,0,0,1.83,1.83h15.2a1.832,1.832,0,0,0,1.83-1.83V519.31a.369.369,0,1,1,.739,0v16.848A2.572,2.572,0,0,1,1557.038,538.727Z" transform="translate(-1539.273 -513.821)" fill="#00071a"/>
      </g>
      <g id="그룹_32708" data-name="그룹 32708" transform="translate(14.475 0)">
        <path id="패스_10837" data-name="패스 10837" d="M1707.358,519.684h-5.12a.369.369,0,0,1-.369-.37V514.2a.369.369,0,0,1,.63-.261l5.12,5.119a.37.37,0,0,1-.261.631Zm-4.75-.739h3.858l-3.858-3.858Z" transform="translate(-1701.869 -513.826)" fill="#00071a"/>
      </g>
    </g>
    <path id="패스_10874" data-name="패스 10874" d="M.721-8.484h2a2.1,2.1,0,0,1,.987.217,1.487,1.487,0,0,1,.631.609,1.84,1.84,0,0,1,.215.9,1.782,1.782,0,0,1-.221.9,1.525,1.525,0,0,1-.639.6,2.141,2.141,0,0,1-1,.217H1.41v-.855h1.12A1.126,1.126,0,0,0,3.047-6a.706.706,0,0,0,.313-.3.964.964,0,0,0,.1-.456.953.953,0,0,0-.1-.454.689.689,0,0,0-.313-.3,1.167,1.167,0,0,0-.521-.1H1.78v4.243H.721ZM5.34-3.369v-.911H6.622a1.724,1.724,0,0,0,.823-.177A1.119,1.119,0,0,0,7.94-5a2.26,2.26,0,0,0,.166-.931,2.281,2.281,0,0,0-.164-.931A1.092,1.092,0,0,0,7.449-7.4a1.745,1.745,0,0,0-.82-.173H5.315v-.911H6.682a2.737,2.737,0,0,1,1.33.306,2.061,2.061,0,0,1,.858.881,2.934,2.934,0,0,1,.3,1.367,2.928,2.928,0,0,1-.3,1.371,2.077,2.077,0,0,1-.864.883,2.752,2.752,0,0,1-1.337.307Zm.586,0H4.867V-8.484h1.06ZM9.578-8.484h3.37v.876h-2.31l0,1.243h2.091l0,.873H10.637l0,2.123H9.578Z" transform="translate(551.332 510.685)" fill="#f21e1e"/>
  </g>
</svg>
