<svg id="ic_share" xmlns="http://www.w3.org/2000/svg" width="36" height="36" viewBox="0 0 36 36">
  <defs>
    <style>
      .cls-1 {
        fill: red;
        opacity: 0;
      }
    </style>
  </defs>
  <rect id="사각형_29960" data-name="사각형 29960" class="cls-1" width="36" height="36"/>
  <g id="ic_link_copy" transform="translate(7 7)">
    <path id="Fill-177" d="M-10.627-344.64a2.44,2.44,0,0,1,.05.6,3.822,3.822,0,0,1-1.2,2.856l-1.6,1.6a4.106,4.106,0,0,1-2.856,1.2,4.042,4.042,0,0,1-4.058-4.058,3.822,3.822,0,0,1,1.2-2.856l1.6-1.6a4.135,4.135,0,0,1,2.906-1.2c.2,0,.4.05.6.05l1.253-1.253a5.751,5.751,0,0,0-1.854-.3,5.573,5.573,0,0,0-3.958,1.653l-1.6,1.6a5.573,5.573,0,0,0-1.653,3.958,5.581,5.581,0,0,0,5.561,5.562,5.573,5.573,0,0,0,3.958-1.653l1.6-1.6a5.573,5.573,0,0,0,1.653-3.958,5.751,5.751,0,0,0-.3-1.854l-1.3,1.253" transform="translate(20.8 359.824)"/>
    <path id="Fill-178" d="M7.715-372a5.573,5.573,0,0,0-3.958,1.653l-1.6,1.6A5.573,5.573,0,0,0,.5-364.785a5.75,5.75,0,0,0,.3,1.854l1.253-1.253a2.44,2.44,0,0,1-.05-.6,3.822,3.822,0,0,1,1.2-2.856l1.6-1.6a4.134,4.134,0,0,1,2.906-1.2,4.041,4.041,0,0,1,4.058,4.058,3.822,3.822,0,0,1-1.2,2.856l-1.6,1.6a4.107,4.107,0,0,1-2.856,1.2c-.2,0-.4-.05-.6-.05l-1.253,1.2a5.751,5.751,0,0,0,1.854.3,5.573,5.573,0,0,0,3.958-1.653l1.6-1.6a5.574,5.574,0,0,0,1.653-3.958A5.648,5.648,0,0,0,7.715-372" transform="translate(9.673 371)"/>
    <path id="Fill-179" d="M-6.673-348.105a.8.8,0,0,1-.551-.251.848.848,0,0,1,0-1.152l8.017-8.017a.848.848,0,0,1,1.152,0,.848.848,0,0,1,0,1.152l-8.017,8.017a.794.794,0,0,1-.6.251" transform="translate(13.639 363.891)"/>
  </g>
</svg>
