<svg xmlns="http://www.w3.org/2000/svg" xmlns:xlink="http://www.w3.org/1999/xlink" width="28" height="28" viewBox="0 0 28 28">
  <defs>
    <clipPath id="clip-path">
      <rect id="사각형_31203" data-name="사각형 31203" width="28" height="28" transform="translate(-4432 -10298)" fill="red" opacity="0.24"/>
    </clipPath>
  </defs>
  <g id="마스크_그룹_532" data-name="마스크 그룹 532" transform="translate(4432 10298)" clip-path="url(#clip-path)">
    <g id="사각형_31195" data-name="사각형 31195" transform="translate(-4425 -10296)" fill="none" stroke="#000" stroke-linejoin="round" stroke-width="1">
      <rect width="18" height="26" stroke="none"/>
      <rect x="0.5" y="0.5" width="17" height="25" fill="none"/>
    </g>
    <g id="사각형_31196" data-name="사각형 31196" transform="translate(-4429 -10282)" fill="none" stroke="#000" stroke-linejoin="round" stroke-width="1">
      <rect width="5" height="12" stroke="none"/>
      <rect x="0.5" y="0.5" width="4" height="11" fill="none"/>
    </g>
    <g id="사각형_31197" data-name="사각형 31197" transform="translate(-4422 -10293)" fill="none" stroke="#000" stroke-linejoin="round" stroke-width="1">
      <rect width="5" height="5" stroke="none"/>
      <rect x="0.5" y="0.5" width="4" height="4" fill="none"/>
    </g>
    <g id="사각형_31198" data-name="사각형 31198" transform="translate(-4422 -10287)" fill="none" stroke="#000" stroke-linejoin="round" stroke-width="1">
      <rect width="5" height="5" stroke="none"/>
      <rect x="0.5" y="0.5" width="4" height="4" fill="none"/>
    </g>
    <g id="사각형_31199" data-name="사각형 31199" transform="translate(-4415 -10293)" fill="none" stroke="#000" stroke-linejoin="round" stroke-width="1">
      <rect width="5" height="5" stroke="none"/>
      <rect x="0.5" y="0.5" width="4" height="4" fill="none"/>
    </g>
    <g id="사각형_31200" data-name="사각형 31200" transform="translate(-4415 -10287)" fill="none" stroke="#000" stroke-linejoin="round" stroke-width="1">
      <rect width="5" height="5" stroke="none"/>
      <rect x="0.5" y="0.5" width="4" height="4" fill="none"/>
    </g>
    <g id="사각형_31201" data-name="사각형 31201" transform="translate(-4420 -10279)" fill="none" stroke="#000" stroke-linejoin="round" stroke-width="1">
      <rect width="8" height="9" stroke="none"/>
      <rect x="0.5" y="0.5" width="7" height="8" fill="none"/>
    </g>
    <g id="사각형_31202" data-name="사각형 31202" transform="translate(-4432 -10271)" fill="#fff" stroke="#000" stroke-width="1">
      <rect width="28" height="1" rx="0.5" stroke="none"/>
      <rect x="0.5" y="0.5" width="27" fill="none"/>
    </g>
  </g>
</svg>
