<svg id="ic_heart_gnb" xmlns="http://www.w3.org/2000/svg" width="30" height="30" viewBox="0 0 30 30">
  <rect id="사각형_26362" data-name="사각형 26362" width="30" height="30" fill="rgba(255,133,133,0)" opacity="0.36"/>
  <g id="패스_10412" data-name="패스 10412" transform="translate(1 2.4)" fill="#fff">
    <path d="M14,25.2S2.524,15.591.905,11.76C-3.432,1.493,8.957-3.416,14,2.644c5.043-6.061,17.432-1.151,13.095,9.116C25.476,15.591,14,25.2,14,25.2Z" stroke="none"/>
    <path d="M 14.00003623962402 23.22929191589355 C 15.08984088897705 22.29136085510254 16.96773147583008 20.64836120605469 18.91399383544922 18.8226146697998 C 24.05697441101074 13.99809551239014 25.38141441345215 11.96093463897705 25.71308326721191 11.17618465423584 C 26.81685447692871 8.563645362854004 26.76035308837891 6.217685222625732 25.54968452453613 4.391905307769775 C 24.36686325073242 2.608115196228027 22.18399429321289 1.500005125999451 19.85294342041016 1.500005125999451 C 17.95090293884277 1.500005125999451 16.28177452087402 2.24706506729126 15.15303421020508 3.603565216064453 L 14.00000381469727 4.989254951477051 L 12.84697341918945 3.603565216064453 C 11.71823406219482 2.24706506729126 10.04910373687744 1.500005125999451 8.147064208984375 1.500005125999451 C 5.81627368927002 1.500005125999451 3.633513927459717 2.608205080032349 2.450603723526001 4.392125129699707 C 1.239863872528076 6.218015193939209 1.183263778686523 8.563904762268066 2.286853790283203 11.17601490020752 C 2.618283748626709 11.960205078125 3.941053867340088 13.99521541595459 9.076343536376953 18.81354522705078 C 11.02451133728027 20.64146995544434 12.90786170959473 22.28928375244141 14.00003623962402 23.22929191589355 M 14.00000381469727 25.19999504089355 C 14.00000381469727 25.19999504089355 2.524303913116455 15.59096527099609 0.9051837921142578 11.75995540618896 C -3.432366132736206 1.493324398994446 8.956972122192383 -3.416485071182251 14.00000381469727 2.64412522315979 C 19.04302215576172 -3.416486978530884 31.432373046875 1.4933260679245 27.09482383728027 11.75995540618896 C 25.47570419311523 15.59096527099609 14.00000381469727 25.19999504089355 14.00000381469727 25.19999504089355 Z" stroke="none" fill="#000"/>
  </g>
</svg>
