<svg xmlns="http://www.w3.org/2000/svg" xmlns:xlink="http://www.w3.org/1999/xlink" width="28" height="28" viewBox="0 0 28 28">
  <defs>
    <clipPath id="clip-path">
      <rect id="사각형_31194" data-name="사각형 31194" width="28" height="28" transform="translate(-4642 -10122)" fill="red" opacity="0.24"/>
    </clipPath>
  </defs>
  <g id="마스크_그룹_531" data-name="마스크 그룹 531" transform="translate(4642 10122)" clip-path="url(#clip-path)">
    <g id="그룹_32349" data-name="그룹 32349" transform="translate(-4638.992 -10121)">
      <g id="합치기_161" data-name="합치기 161" fill="none">
        <path d="M6.213,21.637a40.939,40.939,0,0,1-3.666-3.969A10.6,10.6,0,0,1,0,10.773,10.888,10.888,0,0,1,11,0,10.888,10.888,0,0,1,22,10.773a10.583,10.583,0,0,1-2.236,6.512,28.472,28.472,0,0,1-3.849,4.352A64.027,64.027,0,0,1,11,26,41.762,41.762,0,0,1,6.213,21.637Z" stroke="none"/>
        <path d="M 10.99180889129639 24.72576904296875 C 11.64955234527588 24.1768798828125 12.94436264038086 23.05100631713867 15.23042011260986 20.90752029418945 C 16.72382926940918 19.50691986083984 17.97360992431641 18.09494972229004 18.94504928588867 16.71085929870605 L 18.9734992980957 16.67231941223145 C 20.29924964904785 14.96368026733398 21 12.92381000518799 21 10.77322959899902 C 21 5.384250164031982 16.5140209197998 1 11 1 C 5.485980033874512 1 1 5.384250164031982 1 10.77322959899902 C 1 13.05216026306152 1.819900035858154 15.2704496383667 3.308680057525635 17.01947975158691 L 3.336410045623779 17.05356025695801 C 3.893110036849976 17.76899909973145 4.965310096740723 19.02079963684082 6.911779880523682 20.92136001586914 C 9.184664726257324 23.14016342163086 10.3902587890625 24.21803092956543 10.99180889129639 24.72576904296875 M 11 26 C 11 26 10.24522972106934 25.57299041748047 6.213240146636963 21.63693046569824 C 4.311669826507568 19.78021049499512 3.19566011428833 18.50105094909668 2.547189950942993 17.66765975952148 C 0.9570099711418152 15.79950046539307 -1.77635683940025e-15 13.39568042755127 -1.77635683940025e-15 10.77322959899902 C -1.77635683940025e-15 4.823050022125244 4.925209999084473 -1.77635683940025e-15 11 -1.77635683940025e-15 C 17.07478904724121 -1.77635683940025e-15 22 4.823050022125244 22 10.77322959899902 C 22 13.22027015686035 21.16695976257324 15.47663021087646 19.76357078552246 17.28533935546875 C 18.98657035827637 18.39240074157715 17.75996017456055 19.90615081787109 15.91450023651123 21.63693046569824 C 12.06472015380859 25.24661064147949 11 26 11 26 Z" stroke="none" fill="#ea27c2"/>
      </g>
      <g id="타원_1334" data-name="타원 1334" transform="translate(3.474 2.912)" fill="none" stroke="#ea27c2" stroke-width="1">
        <circle cx="7.5" cy="7.5" r="7.5" stroke="none"/>
        <circle cx="7.5" cy="7.5" r="7" fill="none"/>
      </g>
      <path id="패스_10841" data-name="패스 10841" d="M3.669-11.12a2.715,2.715,0,0,1,1.872.589A1.892,1.892,0,0,1,6.2-9.06,2.006,2.006,0,0,1,5.578-7.57a2.633,2.633,0,0,1-1.908.609h-1.3v2.84H1.2v-7Zm-1.3,3.263h1.3a1.4,1.4,0,0,0,1-.312A1.143,1.143,0,0,0,5-9.04a1.143,1.143,0,0,0-.329-.871,1.4,1.4,0,0,0-1-.312h-1.3Z" transform="translate(7.792 18.117)" fill="#ea27c2" stroke="#ea27c2" stroke-width="0.5"/>
    </g>
  </g>
</svg>
