<svg id="ic_heart_bar" xmlns="http://www.w3.org/2000/svg" width="30" height="30" viewBox="0 0 30 30">
  <g id="그룹_32205" data-name="그룹 32205" transform="translate(-2373 -718)" opacity="0">
    <rect id="사각형_30256" data-name="사각형 30256" width="30" height="30" transform="translate(2373 718)" fill="#ff3e3e" opacity="0.36"/>
    <rect id="사각형_30257" data-name="사각형 30257" width="24" height="24" transform="translate(2376 721)" fill="#ff3e3e" opacity="0.36"/>
  </g>
  <g id="패스_10517" data-name="패스 10517" transform="translate(4 5)" fill="none">
    <path d="M11,20S1.983,12.374.711,9.333C-2.7,1.185,7.038-2.711,11,2.1c3.962-4.81,13.7-.913,10.289,7.235C20.017,12.374,11,20,11,20Z" stroke="none"/>
    <path d="M 11.00002384185791 18.68144226074219 C 11.83679580688477 17.95585441589355 13.37890720367432 16.59760856628418 14.97951221466064 15.08094120025635 C 19.0455322265625 11.22817039489746 20.09976196289062 9.584300994873047 20.36623191833496 8.947430610656738 C 21.26577186584473 6.796791076660156 21.20981216430664 4.861701011657715 20.20440101623535 3.35136079788208 C 19.23891258239746 1.900990843772888 17.4741325378418 1.000000834465027 15.59874153137207 1.000000834465027 C 14.05224227905273 1.000000834465027 12.6931619644165 1.615930914878845 11.77184200286865 2.734340906143188 L 11.00000190734863 3.671290874481201 L 10.22816181182861 2.734340906143188 C 9.306852340698242 1.615930914878845 7.947762012481689 1.000000834465027 6.401261806488037 1.000000834465027 C 4.526082038879395 1.000000834465027 2.761381864547729 1.901050925254822 1.795821905136108 3.351530790328979 C 0.790351927280426 4.861960887908936 0.7343118786811829 6.796990871429443 1.633711934089661 8.947310447692871 C 1.900031924247742 9.58380126953125 2.953141927719116 11.22622108459473 7.014051914215088 15.0748405456543 C 8.615849494934082 16.5929126739502 10.16176223754883 17.95453262329102 11.00002384185791 18.68144226074219 M 11.00000190734863 20 C 11.00000190734863 20 1.983381867408752 12.37378120422363 0.7112119197845459 9.333300590515137 C -2.696857690811157 1.185181617736816 7.037620544433594 -2.711499691009521 11.00000190734863 2.098520755767822 C 14.96238040924072 -2.711499452590942 24.69685935974121 1.185181498527527 21.28878211975098 9.333300590515137 C 20.01662254333496 12.37378120422363 11.00000190734863 20 11.00000190734863 20 Z" stroke="none" fill="#ea27c2"/>
  </g>
</svg>
