<svg id="ic_heart" xmlns="http://www.w3.org/2000/svg" width="30" height="30" viewBox="0 0 30 30">
  <defs>
    <style>
      .cls-1, .cls-3 {
        fill: none;
      }

      .cls-1 {
        opacity: 0.39;
      }

      .cls-2 {
        fill: rgba(255,133,133,0);
        opacity: 0.36;
      }

      .cls-4, .cls-5 {
        stroke: none;
      }

      .cls-5 {
        fill: #fff;
      }
    </style>
  </defs>
  <rect id="사각형_778" data-name="사각형 778" class="cls-1" width="30" height="30"/>
  <g id="ic_heart-2" data-name="ic_heart">
    <rect id="사각형_26362" data-name="사각형 26362" class="cls-2" width="30" height="30"/>
    <g id="패스_10412" data-name="패스 10412" class="cls-3" transform="translate(5 6)">
      <path class="cls-4" d="M10,18S1.8,11.136.647,8.4C-2.452,1.067,6.4-2.44,10,1.889,13.6-2.44,22.452,1.067,19.353,8.4,18.2,11.136,10,18,10,18Z"/>
      <path class="cls-5" d="M 10.00006008148193 16.4264965057373 C 13.1065502166748 13.76031017303467 17.5480785369873 9.589175224304199 18.2480525970459 7.932945728302002 C 19.01889228820801 6.108445644378662 18.9824333190918 4.474635601043701 18.14262199401855 3.208135604858398 C 17.3212833404541 1.969475746154785 15.80314254760742 1.200005650520325 14.18067264556885 1.200005650520325 C 12.86094284057617 1.200005650520325 11.70381259918213 1.71716570854187 10.9224328994751 2.656215667724609 L 10.00000286102295 3.764765739440918 L 9.077583312988281 2.656215667724609 C 8.29619312286377 1.71716570854187 7.139062881469727 1.200005650520325 5.819333076477051 1.200005650520325 C 4.197052955627441 1.200005650520325 2.678992748260498 1.969535708427429 1.857582807540894 3.208285570144653 C 1.017722845077515 4.474865913391113 0.9811928868293762 6.108625888824463 1.75190281867981 7.932815551757812 C 2.451480388641357 9.588096618652344 6.893327236175537 13.7597484588623 10.00006008148193 16.4264965057373 M 10.00000286102295 18.0000057220459 C 10.00000286102295 18.0000057220459 1.803072810173035 11.13640594482422 0.6465628743171692 8.399965286254883 C -2.451687335968018 1.066665172576904 6.397843360900879 -2.440343618392944 10.00000286102295 1.888665676116943 C 13.6021614074707 -2.440341949462891 22.45170402526855 1.066664338111877 19.35344314575195 8.399965286254883 C 18.19693374633789 11.13640594482422 10.00000286102295 18.0000057220459 10.00000286102295 18.0000057220459 Z"/>
    </g>
  </g>
</svg>
