<svg id="구성_요소_40_2" data-name="구성 요소 40 – 2" xmlns="http://www.w3.org/2000/svg" width="30" height="30" viewBox="0 0 30 30">
  <g id="그룹_32206" data-name="그룹 32206" transform="translate(-2373 -718)" opacity="0">
    <rect id="사각형_30256" data-name="사각형 30256" width="30" height="30" transform="translate(2373 718)" fill="#ff3e3e" opacity="0.36"/>
    <rect id="사각형_30257" data-name="사각형 30257" width="24" height="24" transform="translate(2376 721)" fill="#ff3e3e" opacity="0.36"/>
  </g>
  <g id="타원_1321" data-name="타원 1321" transform="translate(9 4)" fill="none" stroke="#ea27c2" stroke-width="1">
    <circle cx="5.5" cy="5.5" r="5.5" stroke="none"/>
    <circle cx="5.5" cy="5.5" r="5" fill="none"/>
  </g>
  <g id="빼기_1" data-name="빼기 1" transform="translate(5 3)" fill="none">
    <path d="M15.572,23H3.429A3.433,3.433,0,0,1,0,19.571a8.575,8.575,0,0,1,5.452-7.986,6.5,6.5,0,0,0,8.1,0A8.575,8.575,0,0,1,19,19.571,3.432,3.432,0,0,1,15.572,23Z" stroke="none"/>
    <path d="M 15.57180023193359 22.00039672851562 C 16.91065979003906 22.00039672851562 17.99990081787109 20.91075706481934 17.99990081787109 19.57139778137207 C 17.99990081787109 18.01770782470703 17.53304100036621 16.52503776550293 16.6497802734375 15.25474739074707 C 15.88890266418457 14.16043663024902 14.86877346038818 13.29558563232422 13.67768478393555 12.73001480102539 C 12.44274139404297 13.56259155273438 11.01071739196777 13.99959754943848 9.500400543212891 13.99959754943848 C 7.989792823791504 13.99959754943848 6.55745792388916 13.56253623962402 5.322348594665527 12.72995948791504 C 4.131255149841309 13.29552936553955 3.11107349395752 14.16039848327637 2.350160360336304 15.25472736358643 C 1.466880440711975 16.52502632141113 1.000000357627869 18.01770782470703 1.000000357627869 19.57139778137207 C 1.000000357627869 20.91075706481934 2.089640378952026 22.00039672851562 3.429000377655029 22.00039672851562 L 15.57180023193359 22.00039672851562 M 15.57180023193359 23.00039672851562 L 3.429000377655029 23.00039672851562 C 1.538240432739258 23.00039672851562 4.089355343239731e-07 21.46215629577637 4.089355343239731e-07 19.57139778137207 C 4.089355343239731e-07 17.8126277923584 0.5287604331970215 16.12252807617188 1.529130458831787 14.68383693695068 C 2.506730318069458 13.27788734436035 3.863100290298462 12.20644760131836 5.451600551605225 11.58535766601562 C 6.612610340118408 12.51060676574707 8.012320518493652 12.99959754943848 9.500400543212891 12.99959754943848 C 10.98785018920898 12.99959754943848 12.387619972229 12.51057720184326 13.54840087890625 11.5853967666626 C 15.13742065429688 12.20669746398926 16.49343109130859 13.27817726135254 17.4708194732666 14.68386745452881 C 18.47115135192871 16.12253761291504 18.99990081787109 17.8126277923584 18.99990081787109 19.57139778137207 C 18.99990081787109 21.46215629577637 17.46206092834473 23.00039672851562 15.57180023193359 23.00039672851562 Z" stroke="none" fill="#ea27c2"/>
  </g>
</svg>
