<svg xmlns="http://www.w3.org/2000/svg" xmlns:xlink="http://www.w3.org/1999/xlink" width="28" height="28" viewBox="0 0 28 28">
  <defs>
    <clipPath id="clip-path">
      <rect id="사각형_31226" data-name="사각형 31226" width="28" height="28" transform="translate(-4432 -10234)" fill="red" opacity="0.24"/>
    </clipPath>
  </defs>
  <g id="마스크_그룹_535" data-name="마스크 그룹 535" transform="translate(4432 10234)" clip-path="url(#clip-path)">
    <g id="합치기_163" data-name="합치기 163" transform="translate(-4429 -10233)" fill="none" stroke-linejoin="round">
      <path d="M5.333,11.25v-.682A1.751,1.751,0,0,1,3,8.917V8H1A1,1,0,0,1,0,7V1A1,1,0,0,1,1,0H17a1,1,0,0,1,1,1V7a1,1,0,0,1-1,1H14.5v2.083a1.75,1.75,0,1,1-3.5,0V8H8.833v3.25a1.75,1.75,0,0,1-3.5,0Z" stroke="none"/>
      <path d="M 7.083899974822998 11.99960041046143 C 7.497230052947998 11.99960041046143 7.833499908447266 11.663330078125 7.833499908447266 11.25 L 7.833499908447266 8.000100135803223 C 7.833499908447266 7.44782018661499 8.281220436096191 7.000100135803223 8.833499908447266 7.000100135803223 L 10.99979972839355 7.000100135803223 C 11.55208015441895 7.000100135803223 11.99979972839355 7.44782018661499 11.99979972839355 8.000100135803223 L 11.99979972839355 10.08360004425049 C 11.99979972839355 10.49742984771729 12.33646965026855 10.83409976959229 12.75030040740967 10.83409976959229 C 13.16362953186035 10.83409976959229 13.49989986419678 10.49742984771729 13.49989986419678 10.08360004425049 L 13.49989986419678 8.000100135803223 C 13.49989986419678 7.44782018661499 13.9476203918457 7.000100135803223 14.49989986419678 7.000100135803223 L 17 7.000200271606445 L 17.00009918212891 1.000000238418579 L 1 0.999900221824646 L 0.9998999834060669 7.000100135803223 L 2.99970006942749 7.000100135803223 C 3.551980018615723 7.000100135803223 3.99970006942749 7.44782018661499 3.99970006942749 8.000100135803223 L 3.99970006942749 8.917200088500977 C 3.99970006942749 9.331029891967773 4.33636999130249 9.667699813842773 4.750199794769287 9.667699813842773 C 4.836420059204102 9.667699813842773 4.920470237731934 9.653440475463867 5 9.625309944152832 C 5.306069850921631 9.517081260681152 5.645639419555664 9.564159393310547 5.910719871520996 9.751580238342285 C 6.17579984664917 9.939010620117188 6.333399772644043 10.24345016479492 6.333399772644043 10.56809997558594 L 6.333399772644043 11.25 C 6.333399772644043 11.663330078125 6.670070171356201 11.99960041046143 7.083899974822998 11.99960041046143 M 7.083899974822998 12.99960041046143 C 6.117300033569336 12.99960041046143 5.333399772644043 12.21660041809082 5.333399772644043 11.25 L 5.333399772644043 10.56809997558594 C 5.150979995727539 10.63261032104492 4.954740047454834 10.66769981384277 4.750199794769287 10.66769981384277 C 3.783600091934204 10.66769981384277 2.99970006942749 9.883800506591797 2.99970006942749 8.917200088500977 L 2.99970006942749 8.000100135803223 L 0.9998999834060669 8.000100135803223 C 0.447299987077713 8.000100135803223 0 7.551900386810303 0 7.000200271606445 L 0 0.999900221824646 C 0 0.4473001956939697 0.447299987077713 2.052307195299363e-07 0.9998999834060669 2.052307195299363e-07 L 17.00009918212891 2.052307195299363e-07 C 17.55270004272461 2.052307195299363e-07 18 0.4473001956939697 18 0.999900221824646 L 18 7.000200271606445 C 18 7.551900386810303 17.55270004272461 8.000100135803223 17.00009918212891 8.000100135803223 L 14.49989986419678 8.000100135803223 L 14.49989986419678 10.08360004425049 C 14.49989986419678 11.05020046234131 13.71689987182617 11.83409976959229 12.75030040740967 11.83409976959229 C 11.78369998931885 11.83409976959229 10.99979972839355 11.05020046234131 10.99979972839355 10.08360004425049 L 10.99979972839355 8.000100135803223 L 8.833499908447266 8.000100135803223 L 8.833499908447266 11.25 C 8.833499908447266 12.21660041809082 8.049599647521973 12.99960041046143 7.083899974822998 12.99960041046143 Z" stroke="none" fill="#ea27c2"/>
    </g>
    <path id="패스_10843" data-name="패스 10843" d="M-4544.14-10254.273h1.452s1.527-.134,1.527,1.26v4.886a1.17,1.17,0,0,1-1.251,1.287c-1.356,0-3.155-.01-3.155-.01s-1.026.052-1.026,1.339v2.181" transform="translate(132.567 25.276)" fill="none" stroke="#ea27c2" stroke-width="1"/>
    <g id="사각형_31224" data-name="사각형 31224" transform="translate(-4417 -10219)" fill="none" stroke="#ea27c2" stroke-width="1">
      <path d="M1,0H5A1,1,0,0,1,6,1V3A0,0,0,0,1,6,3H0A0,0,0,0,1,0,3V1A1,1,0,0,1,1,0Z" stroke="none"/>
      <path d="M1,.5H5a.5.5,0,0,1,.5.5V2.5a0,0,0,0,1,0,0H.5a0,0,0,0,1,0,0V1A.5.5,0,0,1,1,.5Z" fill="none"/>
    </g>
    <g id="사각형_31225" data-name="사각형 31225" transform="translate(-4417 -10217)" fill="none" stroke="#ea27c2" stroke-width="1">
      <path d="M0,0H6A0,0,0,0,1,6,0V8a3,3,0,0,1-3,3H3A3,3,0,0,1,0,8V0A0,0,0,0,1,0,0Z" stroke="none"/>
      <path d="M.5.5h5a0,0,0,0,1,0,0V8A2.5,2.5,0,0,1,3,10.5H3A2.5,2.5,0,0,1,.5,8V.5A0,0,0,0,1,.5.5Z" fill="none"/>
    </g>
  </g>
</svg>
