<svg xmlns="http://www.w3.org/2000/svg" xmlns:xlink="http://www.w3.org/1999/xlink" width="52.884" height="24" viewBox="0 0 52.884 24"><defs><clipPath id="a"><rect width="16" height="8" transform="translate(-0.251 -0.208)" fill="none" stroke="#000" stroke-width="1.5"/></clipPath></defs><g fill="#e7ff5e" stroke="#000" stroke-width="1.5"><circle cx="12" cy="12" r="12" stroke="none"/><circle cx="12" cy="12" r="11.25" fill="none"/></g><g transform="matrix(0.961, 0.276, -0.276, 0.961, 6.414, 4.617)"><g transform="translate(3.749 0.007)"><rect width="1.51" height="3" rx="0.755"/><rect width="1.51" height="3" rx="0.755" transform="translate(6.49)"/></g><g transform="translate(0 5.717)" clip-path="url(#a)"><g transform="translate(-0.251 -8.208)" fill="none" stroke="#000" stroke-width="1.5"><circle cx="8" cy="8" r="8" stroke="none"/><circle cx="8" cy="8" r="7.25" fill="none"/></g></g></g><path d="M.756-.5V-1.729h4.5V-3.779H2.338V-9.4H3.814v1.705H8.186V-9.4H9.65v5.619H6.732v2.051h4.512V-.5Zm7.43-5.953H3.814V-5H8.186ZM12.4-3.445V-4.693h4.512v-.732h-2.93V-9.973h7.348v1.178H15.466v.551h5.643v1.1H15.466V-6.6h5.977v1.172h-3.07v.732h4.512v1.248ZM17.64,1.02A6.232,6.232,0,0,1,14.784.5,1.627,1.627,0,0,1,13.8-1a1.609,1.609,0,0,1,.984-1.474,6.266,6.266,0,0,1,2.854-.519,6.266,6.266,0,0,1,2.854.519A1.609,1.609,0,0,1,21.478-1,1.627,1.627,0,0,1,20.5.5,6.232,6.232,0,0,1,17.64,1.02Zm0-2.795a6.531,6.531,0,0,0-1.746.176q-.592.176-.592.6,0,.814,2.338.814T19.978-1q0-.428-.592-.6A6.531,6.531,0,0,0,17.64-1.775Z" transform="translate(30 17)"/></svg>