<svg xmlns="http://www.w3.org/2000/svg" width="134.48" height="48" viewBox="0 0 134.48 48">
  <g id="그룹_30601" data-name="그룹 30601" transform="translate(-137.669 -213.097)">
    <g id="그룹_30597" data-name="그룹 30597" transform="translate(197.168 231.115)">
      <g id="그룹_30596" data-name="그룹 30596">
        <path id="패스_10587" data-name="패스 10587" d="M197.657,239.2a15.784,15.784,0,0,1-4.287.31c-.755-.04-1.119-.324-1.119-1.065v-6.364c0-.714.175-.862.931-.862h3.734c.2,0,.269.04.269.242v1.065c0,.2-.066.23-.269.23h-2.629c-.175,0-.189.08-.189.188v4.814c0,.2.041.229.256.242a12.28,12.28,0,0,0,3.034-.229c.229-.04.283-.013.323.189l.162.943C197.914,239.11,197.86,239.15,197.657,239.2Zm5.326,3.937h-1.362c-.2,0-.243-.041-.243-.243v-6.31h-1.065V242.4c0,.229-.041.243-.243.243H198.8c-.2,0-.256-.014-.256-.243V230.7c0-.2.054-.242.256-.242h1.267c.2,0,.243.04.243.242v4.368h1.065v-4.61c0-.2.055-.244.256-.244h1.349c.2,0,.242.041.242.244V242.9C203.225,243.1,203.185,243.141,202.983,243.141Z" transform="translate(-192.251 -230.211)" fill="gray"/>
        <path id="패스_10588" data-name="패스 10588" d="M205.867,237.627c-.337.2-.39.188-.539.013l-.674-.836c-.2-.256-.122-.323.094-.485a6.487,6.487,0,0,0,2.8-5.5c0-.31.054-.323.311-.31l1.266.054c.2.014.271.054.271.256a9.3,9.3,0,0,1-.2,1.982,6.636,6.636,0,0,0,2.629,2.858c.121.068.189.149.189.216a.573.573,0,0,1-.136.256l-.525.836c-.148.216-.2.216-.458.068a6.77,6.77,0,0,1-2.413-2.212A7.353,7.353,0,0,1,205.867,237.627Zm4.934,5.621c-2.318,0-4.072-1.132-4.072-2.669,0-1.469,1.754-2.629,4.072-2.629,2.225,0,4.126,1.119,4.126,2.629C214.927,242.116,213.026,243.248,210.8,243.248Zm0-3.829c-1.347,0-2.157.567-2.157,1.2,0,.607.81,1.146,2.157,1.146,1.254,0,2.2-.539,2.2-1.146S212.042,239.419,210.8,239.419Zm5.663-4.556h-1.672v2.481a.214.214,0,0,1-.242.242h-1.363c-.174,0-.269-.081-.269-.256v-6.862c0-.2.068-.257.269-.257h1.363c.2,0,.242.055.242.257v2.858h1.672c.161,0,.269.013.269.243v1.024A.242.242,0,0,1,216.464,234.863Z" transform="translate(-192.251 -230.211)" fill="gray"/>
        <path id="패스_10589" data-name="패스 10589" d="M224.673,239.029a25.94,25.94,0,0,1-5.783.458c-.647-.013-.958-.148-.958-.9v-6.5c0-.714.176-.862.917-.862h4.867c.2,0,.27.04.27.242v1.065c0,.2-.068.23-.27.23h-3.721c-.175,0-.188.08-.188.188v4.759c0,.149.067.216.215.216a23.073,23.073,0,0,0,4.436-.35c.2-.041.242.027.283.175l.162.984C224.943,238.934,224.876,238.975,224.673,239.029Zm4.463-2.427h-1.672v6.282c0,.216-.041.257-.242.257h-1.363c-.2,0-.269-.041-.269-.257V230.468c0-.2.068-.257.269-.257h1.363c.2,0,.242.055.242.257v4.6h1.672c.162,0,.269,0,.269.256v1.025C229.4,236.561,229.3,236.6,229.136,236.6Z" transform="translate(-192.251 -230.211)" fill="gray"/>
        <path id="패스_10590" data-name="패스 10590" d="M233.975,239.973c-2.09,0-3.424-1.82-3.424-4.409,0-2.656,1.334-4.5,3.424-4.5,2.117,0,3.451,1.806,3.451,4.476C237.426,238.18,236.092,239.973,233.975,239.973Zm0-7.281c-.93,0-1.577,1.173-1.577,2.845,0,1.577.647,2.8,1.577,2.8.958,0,1.591-1.227,1.591-2.8C235.566,233.865,234.933,232.692,233.975,232.692Zm6.431,10.449h-1.348c-.2,0-.256-.041-.256-.257V230.468c0-.2.054-.257.256-.257h1.348c.2,0,.256.055.256.257v12.416C240.662,243.1,240.608,243.141,240.406,243.141Z" transform="translate(-192.251 -230.211)" fill="gray"/>
        <path id="패스_10591" data-name="패스 10591" d="M254.277,240.849H242.7c-.229,0-.269-.122-.269-.284v-.97c0-.2.04-.284.269-.284h11.581a.251.251,0,0,1,.283.284v.97A.251.251,0,0,1,254.277,240.849Zm-2.481-3.641h-6.619c-.863,0-1.039-.174-1.039-.97v-5.191c0-.174.081-.256.244-.256h1.347c.176,0,.269.082.269.256V232.6h4.962v-1.564c0-.175.081-.27.257-.27h1.348c.175,0,.256.095.256.27v5.244C252.821,236.966,252.619,237.208,251.8,237.208Zm-.836-3.073H246v1.334a.179.179,0,0,0,.2.2h4.557a.178.178,0,0,0,.2-.2Z" transform="translate(-192.251 -230.211)" fill="gray"/>
        <path id="패스_10592" data-name="패스 10592" d="M266.949,240.849H255.368c-.229,0-.269-.122-.269-.284v-.97c0-.2.04-.284.269-.284h11.581a.251.251,0,0,1,.283.284v.97A.251.251,0,0,1,266.949,240.849ZM256.8,237.344c-.257.094-.3.054-.4-.122l-.526-.944c-.121-.2-.094-.337.068-.4,2.628-.971,3.99-2.467,4.233-4.854.04-.2.067-.283.323-.269l1.281.081c.323.041.35.081.31.337a5.968,5.968,0,0,1-.081.714,6.012,6.012,0,0,0,4.22,3.708c.229.067.229.162.122.364l-.486,1a.582.582,0,0,0-.067.121c-.014.04-.041.054-.054.054a.286.286,0,0,1-.217,0,7.606,7.606,0,0,1-4.34-3.061A8.141,8.141,0,0,1,256.8,237.344Z" transform="translate(-192.251 -230.211)" fill="gray"/>
      </g>
    </g>
    <g id="그룹_30600" data-name="그룹 30600" transform="translate(137.669 213.097)">
      <g id="그룹_30599" data-name="그룹 30599">
        <path id="패스_10593" data-name="패스 10593" d="M178.22,228.545a7.264,7.264,0,1,0-3.137,5.978l-1.231-1.759a5.117,5.117,0,0,1-7.87-3.011H177.7a.479.479,0,0,0,.476-.427A7.188,7.188,0,0,0,178.22,228.545Zm-12.286-.984a5.118,5.118,0,0,1,10.044,0Z" transform="translate(-137.669 -212.644)" fill="#fb553f"/>
        <path id="패스_10594" data-name="패스 10594" d="M178.064,231.418a7.264,7.264,0,1,0,5.1,12.439,5.114,5.114,0,0,1-5.1,4.687,5.333,5.333,0,0,1-3.677-1.485v2.631a7.263,7.263,0,0,0,10.942-6.262v-4.746A7.265,7.265,0,0,0,178.064,231.418Zm5.118,7.266a5.118,5.118,0,1,1-5.118-5.119,5.117,5.117,0,0,1,5.118,5.119Z" transform="translate(-137.669 -211.905)" fill="#fdb85c"/>
        <path id="패스_10595" data-name="패스 10595" d="M155.777,213.1h-1.19a.478.478,0,0,0-.478.479v7.558a7.264,7.264,0,1,0,2.146,5.155h0V213.576A.478.478,0,0,0,155.777,213.1Zm-6.786,18.31a5.118,5.118,0,1,1,5.118-5.118A5.117,5.117,0,0,1,148.991,231.407Z" transform="translate(-137.669 -213.097)" fill="#f84267"/>
        <g id="그룹_30598" data-name="그룹 30598" transform="translate(0 17.93)">
          <path id="패스_10596" data-name="패스 10596" d="M144.236,236.328c-3.1-.795-3.673-1.78-3.2-2.918.512-1.225,4.239-2.05,5.8.719a.491.491,0,0,0,.622.209l1.137-.524a.479.479,0,0,0,.205-.689,5.68,5.68,0,0,0-5.373-3.061c-2.926,0-5.258,1.96-5.042,4.414.166,1.881,1.471,3.154,5.233,4.06,3.582.862,3.591,2.249,3.317,2.88a2.99,2.99,0,0,1-2.942,1.606,4.674,4.674,0,0,1-4.116-2.291.476.476,0,0,0-.608-.162l-1.331.658a.477.477,0,0,0-.2.67,6.932,6.932,0,0,0,6.034,3.484,5.554,5.554,0,0,0,4.907-2.216,5.065,5.065,0,0,1,.79-2.006C149.624,239.889,149.634,237.709,144.236,236.328Z" transform="translate(-137.669 -230.064)" fill="#4a3e9a"/>
        </g>
        <path id="패스_10597" data-name="패스 10597" d="M159.4,225.733a7.264,7.264,0,1,0,5.115,12.422v1.428a.478.478,0,0,0,.478.479h1.192a.479.479,0,0,0,.479-.479V233A7.264,7.264,0,0,0,159.4,225.733ZM164.517,233h0v.049a4.944,4.944,0,1,1,0-.049Z" transform="translate(-137.669 -212.398)" fill="#ff1101"/>
        <path id="패스_10598" data-name="패스 10598" d="M174.387,244.158a6,6,0,0,0-11.993,0h0v8.014a.479.479,0,0,0,.479.479h1.192a.478.478,0,0,0,.479-.479v-8.014a3.847,3.847,0,1,1,7.694,0v14.706a.479.479,0,0,0,.479.478h1.192a.478.478,0,0,0,.478-.478V244.158Z" transform="translate(-137.669 -211.342)" fill="#fc7e46"/>
        <path id="패스_10599" data-name="패스 10599" d="M153.722,236.739a7.264,7.264,0,1,0,5.115,12.418v1.431a.479.479,0,0,0,.478.479h1.192a.48.48,0,0,0,.479-.479V244A7.264,7.264,0,0,0,153.722,236.739ZM158.837,244v.049a4.944,4.944,0,1,1,0-.049Z" transform="translate(-137.669 -211.789)" fill="#601f8b"/>
      </g>
    </g>
  </g>
</svg>
