<svg xmlns="http://www.w3.org/2000/svg" width="216.855" height="81.857" viewBox="0 0 216.855 81.857"><g transform="translate(9007 22481.93)"><g transform="translate(-9036.999 -22577.93)"><path d="M3122.5,1055.07c-10.52,0-19.838,6.4-25.593,16.235-5.754-9.839-15.073-16.235-25.593-16.235s-19.838,6.4-25.593,16.235c-5.755-9.839-15.074-16.235-25.593-16.235s-19.838,6.4-25.593,16.235c-5.754-9.839-15.074-16.235-25.593-16.235-17.479,0-31.649,17.652-31.649,39.429s14.17,39.428,31.649,39.428c10.519,0,19.838-6.4,25.593-16.235,5.754,9.839,15.074,16.235,25.593,16.235s19.838-6.4,25.593-16.235c5.754,9.839,15.073,16.235,25.593,16.235s19.838-6.4,25.593-16.235c5.755,9.839,15.074,16.235,25.593,16.235,17.479,0,31.649-17.652,31.649-39.428S3139.97,1055.07,3122.5,1055.07Z" transform="translate(-2907.294 -956.07)" fill="#e7ff5e"/><path d="M15.325-5.625C15.325-8.9,13.45-10.85,10-11.55l-2.125-.425c-1.9-.4-2.75-1.1-2.75-2.475,0-1.35.925-2.275,2.675-2.275,1.725,0,2.675.925,2.675,2.275v.3h4.1v-.3c0-3.025-2.375-5.625-6.775-5.625S1.025-17.5,1.025-14.35c0,3.325,2.025,5.125,5.35,5.775L8.5-8.15c1.85.375,2.7,1.3,2.7,2.65,0,1.525-1.125,2.575-3,2.575-1.9,0-3.025-1.05-3.025-2.575v-.425h-4.1v.375C1.075-2.075,3.7.4,8.2.4,12.75.4,15.325-2.125,15.325-5.625Zm17.35-1.4c0-4.55-2.1-7.4-6.575-7.4-4.5,0-6.6,2.85-6.6,7.4C19.5-2.45,21.6.4,26.1.4,30.575.4,32.675-2.45,32.675-7.025Zm-3.9,0c0,2.975-.725,4.4-2.675,4.4s-2.7-1.425-2.7-4.4c0-2.95.75-4.375,2.7-4.375S28.775-9.975,28.775-7.025ZM41.3.05V-19.725H37.4V.05Zm14-7.075c0,2.975-.725,4.4-2.7,4.4-1.95,0-2.7-1.425-2.7-4.4,0-2.925.75-4.35,2.7-4.35C54.575-11.375,55.3-9.95,55.3-7.025Zm0-4.875a3.823,3.823,0,0,0-3.875-2.525c-3.325,0-5.4,2.375-5.4,7.4C46.025-1.975,48.1.4,51.425.4A3.823,3.823,0,0,0,55.3-2.125V.05h3.875V-19.725H55.3ZM89.775-9.85c0-2.925-.4-5.6-1.875-7.55-1.275-1.7-3.2-2.675-6.075-2.675-2.9,0-4.8.975-6.075,2.675-1.475,1.95-1.9,4.625-1.9,7.55,0,2.95.425,5.625,1.9,7.575C77.025-.575,78.925.4,81.825.4c2.875,0,4.8-.975,6.075-2.675C89.375-4.225,89.775-6.9,89.775-9.85Zm-11.8,0c0-2.9.3-4.375,1-5.4a3.2,3.2,0,0,1,2.85-1.375,3.2,3.2,0,0,1,2.85,1.375c.7,1.025.975,2.5.975,5.4,0,2.925-.275,4.4-.975,5.425a3.2,3.2,0,0,1-2.85,1.375,3.2,3.2,0,0,1-2.85-1.375C78.275-5.45,77.975-6.925,77.975-9.85Zm16.55,4.725C94.525-1.5,96.2.4,99.225.4a3.891,3.891,0,0,0,3.95-2.7V.05h3.9V-14.075h-3.9V-6.1c0,2.225-1.1,3.475-2.725,3.475-1.3,0-2.025-.825-2.025-2.575v-8.875h-3.9Zm22.75-5.925h3.675v-3.025h-3.675v-4h-3.9v4h-2.05v3.025h2.05v6.9c0,3.25,1.45,4.4,5.2,4.4.7,0,1.85-.025,2.375-.075V-2.75H119.5c-1.725,0-2.225-.375-2.225-2Z" transform="translate(77 149)"/><path d="M180.9,225.7l-2.149,6.74-6.723,2.131,6.723,2.135,2.149,6.736,2.149-6.736,6.723-2.135-6.723-2.131Z" transform="translate(50.967 -129.7)"/></g></g></svg>