<svg xmlns="http://www.w3.org/2000/svg" width="429" height="250.003" viewBox="0 0 429 250.003">
  <defs>
    <style>
      .cls-1, .cls-7 {
        fill: #fff;
      }

      .cls-2 {
        fill: #262626;
      }

      .cls-11, .cls-3 {
        fill: none;
      }

      .cls-3, .cls-6, .cls-7 {
        stroke: #000;
      }

      .cls-3 {
        stroke-dasharray: 2 3;
      }

      .cls-4, .cls-5, .cls-6 {
        fill: #e7ff5e;
      }

      .cls-4 {
        font-size: 18px;
        font-family: Noto Sans KR-Medium, Noto Sans CJK KR;
        font-weight: 500;
      }

      .cls-6, .cls-7 {
        stroke-width: 1.5px;
      }

      .cls-10, .cls-8, .cls-9 {
        stroke: none;
      }

      .cls-9 {
        fill: #eee;
      }

      .cls-10 {
        fill: #000;
      }
    </style>
  </defs>
  <g id="그룹_31715" data-name="그룹 31715" transform="translate(18579 8352.001)">
    <g id="그룹_30648" data-name="그룹 30648" transform="translate(-19248 -9198.999)">
      <g id="빼기_25" data-name="빼기 25" class="cls-1" transform="translate(1029 -11350)">
        <path class="cls-8" d="M 68.50048065185547 12446.5 L 10.48925685882568 12446.4990234375 C 10.36669540405273 12443.884765625 9.288411140441895 12441.443359375 7.42185115814209 12439.5771484375 C 5.436956882476807 12437.591796875 2.801114559173584 12436.498046875 9.290193702327088e-06 12436.498046875 C -5.622737884521484 12436.498046875 -10.22750377655029 12440.939453125 -10.48923587799072 12446.4990234375 L -359.4992065429688 12446.4990234375 L -359.4992065429688 12197.4990234375 L -10.48923873901367 12197.4990234375 C -10.36667728424072 12200.11328125 -9.288393020629883 12202.5546875 -7.421833038330078 12204.4208984375 C -5.436938285827637 12206.40625 -2.801095962524414 12207.5 9.290193702327088e-06 12207.5 C 5.622756481170654 12207.5 10.22752094268799 12203.05859375 10.48925304412842 12197.4990234375 L 68.50048065185547 12197.4990234375 L 68.50048065185547 12446.5 Z"/>
        <path class="cls-9" d="M 68.00048065185547 12446 L 68.00048065185547 12197.9990234375 L 10.95595264434814 12197.9990234375 C 10.44927978515625 12203.5986328125 5.729042053222656 12208 9.290193702327088e-06 12208 C -2.934674978256226 12208 -5.696095943450928 12206.8544921875 -7.775359153747559 12204.7744140625 C -9.616855621337891 12202.93359375 -10.72599792480469 12200.556640625 -10.95614051818848 12197.9990234375 L -358.9992065429688 12197.9990234375 L -358.9992065429688 12445.9990234375 L -10.95593547821045 12445.9990234375 C -10.44926261901855 12440.3994140625 -5.729023456573486 12435.998046875 9.290193702327088e-06 12435.998046875 C 2.934693574905396 12435.998046875 5.696114540100098 12437.1435546875 7.775377750396729 12439.2236328125 C 9.616874694824219 12441.064453125 10.72601699829102 12443.44140625 10.95615863800049 12445.9990234375 L 68.00048065185547 12446 M 69.00048065185547 12447 L 10.00100898742676 12446.9990234375 C 10.0004825592041 12444.33203125 8.959324836730957 12441.8212890625 7.068325042724609 12439.9306640625 C 5.177272319793701 12438.0390625 2.667061805725098 12436.998046875 9.290193702327088e-06 12436.998046875 C -5.514569759368896 12436.998046875 -10.00099086761475 12441.484375 -10.00099086761475 12446.9990234375 L -359.9992065429688 12446.9990234375 L -359.9992065429688 12196.9990234375 L -10.00099086761475 12196.9990234375 C -10.00046443939209 12199.666015625 -8.959306716918945 12202.1767578125 -7.068306446075439 12204.0673828125 C -5.177253723144531 12205.958984375 -2.667043447494507 12207 9.290193702327088e-06 12207 C 5.514588356018066 12207 10.00100898742676 12202.513671875 10.00100898742676 12196.9990234375 L 69.00048065185547 12196.9990234375 L 69.00048065185547 12447 Z"/>
      </g>
      <path id="빼기_26" data-name="빼기 26" class="cls-2" d="M-271,12446h-59a9.937,9.937,0,0,0-2.932-7.068A9.933,9.933,0,0,0-340,12436v-230a10.011,10.011,0,0,0,10-10h59v250Z" transform="translate(1369 -11349)"/>
      <line id="선_693" data-name="선 693" class="cls-3" y2="229.999" transform="translate(1029 857.5)"/>
    </g>
    <text id="상품쿠폰" class="cls-4" transform="translate(-18192 -8227) rotate(90)"><tspan x="-33.12" y="0">상품쿠폰</tspan></text>
    <g id="그룹_30992" data-name="그룹 30992" transform="translate(-19245.617 -9280)">
      <g id="패스_10781" data-name="패스 10781" class="cls-5" transform="translate(-359.988 12182.086)">
        <path class="cls-8" d="M 1334.120971679688 -11058.0263671875 L 1333.992065429688 -11060.673828125 L 1338.632202148438 -11063.0556640625 L 1340.67041015625 -11058.443359375 L 1334.120971679688 -11058.0263671875 Z"/>
        <path class="cls-10" d="M 1338.267456054688 -11062.025390625 L 1334.764770507812 -11060.2275390625 L 1334.8330078125 -11058.8232421875 L 1339.5498046875 -11059.1240234375 L 1338.267456054688 -11062.025390625 M 1338.996826171875 -11064.0859375 L 1341.790893554688 -11057.763671875 L 1333.408813476562 -11057.2294921875 L 1333.219482421875 -11061.1201171875 L 1338.996826171875 -11064.0859375 Z"/>
      </g>
      <g id="패스_10780" data-name="패스 10780" class="cls-5" transform="translate(-371.988 12182.086)">
        <path class="cls-8" d="M 1340.889404296875 -11058.0263671875 L 1334.340087890625 -11058.443359375 L 1336.378173828125 -11063.0556640625 L 1341.018310546875 -11060.673828125 L 1340.889404296875 -11058.0263671875 Z"/>
        <path class="cls-10" d="M 1336.742919921875 -11062.025390625 L 1335.460571289062 -11059.1240234375 L 1340.17724609375 -11058.8232421875 L 1340.24560546875 -11060.2275390625 L 1336.742919921875 -11062.025390625 M 1336.013549804688 -11064.0859375 L 1341.790893554688 -11061.1201171875 L 1341.601440429688 -11057.2294921875 L 1333.219482421875 -11057.763671875 L 1336.013549804688 -11064.0859375 Z"/>
      </g>
      <g id="사각형_30974" data-name="사각형 30974" class="cls-6" transform="translate(968.617 1120.571)">
        <rect class="cls-8" width="6" height="4.286"/>
        <rect class="cls-11" x="0.75" y="0.75" width="4.5" height="2.786"/>
      </g>
      <g id="사각형_30971" data-name="사각형 30971" class="cls-7" transform="translate(957.474 1127.429)">
        <rect class="cls-8" width="28.286" height="20.571"/>
        <rect class="cls-11" x="0.75" y="0.75" width="26.786" height="19.071"/>
      </g>
      <g id="사각형_30972" data-name="사각형 30972" class="cls-7" transform="translate(956.617 1123.143)">
        <rect class="cls-8" width="30" height="8.571"/>
        <rect class="cls-11" x="0.75" y="0.75" width="28.5" height="7.071"/>
      </g>
      <g id="사각형_30973" data-name="사각형 30973" class="cls-6" transform="translate(966.903 1123.143)">
        <rect class="cls-8" width="9.429" height="24.857"/>
        <rect class="cls-11" x="0.75" y="0.75" width="7.929" height="23.357"/>
      </g>
    </g>
  </g>
</svg>
