<svg xmlns="http://www.w3.org/2000/svg" width="328.002" height="234.003" viewBox="0 0 328.002 234.003">
  <defs>
    <style>
      .cls-1 {
        fill: #fff;
      }

      .cls-2 {
        fill: #262626;
      }

      .cls-3, .cls-7 {
        fill: #d2d4ff;
      }

      .cls-3 {
        font-size: 16px;
        font-family: Noto Sans KR-Medium, Noto Sans CJK KR;
        font-weight: 500;
      }

      .cls-11, .cls-4, .cls-6, .cls-8 {
        fill: none;
      }

      .cls-4, .cls-6, .cls-7, .cls-8 {
        stroke: #000;
      }

      .cls-4 {
        stroke-dasharray: 2 3;
      }

      .cls-5 {
        fill: rgba(255,255,255,0);
      }

      .cls-6, .cls-7 {
        stroke-linecap: square;
      }

      .cls-6, .cls-7, .cls-8 {
        stroke-width: 1.5px;
      }

      .cls-10, .cls-9 {
        stroke: none;
      }

      .cls-10 {
        fill: #eee;
      }
    </style>
  </defs>
  <g id="그룹_31722" data-name="그룹 31722" transform="translate(18661 7216)">
    <g id="빼기_25" data-name="빼기 25" class="cls-1" transform="translate(-18402 -19413)">
      <path class="cls-9" d="M 68.49927520751953 12430.5009765625 L 29.48798370361328 12430.5 C 29.3654613494873 12427.8857421875 28.28724098205566 12425.4443359375 26.42073059082031 12423.578125 C 24.43585586547852 12421.5927734375 21.80010604858398 12420.4990234375 18.99906349182129 12420.4990234375 C 13.37815093994141 12420.4990234375 8.774918556213379 12424.9404296875 8.513273239135742 12430.5 L -258.4993896484375 12430.5 L -258.4993896484375 12197.5 L 8.513264656066895 12197.5 C 8.635750770568848 12200.1142578125 9.713643074035645 12202.5556640625 11.57960605621338 12204.421875 C 13.56389713287354 12206.4072265625 16.19885635375977 12207.5009765625 18.99906349182129 12207.5009765625 C 24.62163543701172 12207.5009765625 29.22625160217285 12203.0595703125 29.48797607421875 12197.5 L 68.49927520751953 12197.5 L 68.49927520751953 12430.5009765625 Z"/>
      <path class="cls-10" d="M 67.99927520751953 12430.0009765625 L 67.99927520751953 12198 L 29.95467567443848 12198 C 29.44802093505859 12203.599609375 24.72794914245605 12208.0009765625 18.99906349182129 12208.0009765625 C 16.06527137756348 12208.0009765625 13.30468940734863 12206.85546875 11.22602272033691 12204.775390625 C 9.385129928588867 12202.9345703125 8.276384353637695 12200.5576171875 8.046350479125977 12198 L -257.9993896484375 12198 L -257.9993896484375 12430 L 8.046563148498535 12430 C 8.553072929382324 12424.400390625 13.27179145812988 12419.9990234375 18.99906349182129 12419.9990234375 C 21.93368911743164 12419.9990234375 24.69502258300781 12421.14453125 26.77423095703125 12423.224609375 C 28.61571311950684 12425.0654296875 29.72478866577148 12427.4423828125 29.95489120483398 12430 L 67.99927520751953 12430.0009765625 M 68.99927520751953 12431.0009765625 L 28.99973106384277 12431 C 28.99923133850098 12428.3330078125 27.95810508728027 12425.822265625 26.06718826293945 12423.931640625 C 24.17618942260742 12422.0400390625 21.6660213470459 12420.9990234375 18.99906349182129 12420.9990234375 C 13.4863977432251 12420.9990234375 9.001522064208984 12425.4853515625 9.001522064208984 12431 L -258.9993896484375 12431 L -258.9993896484375 12197 L 9.001522064208984 12197 C 9.002022743225098 12199.6669921875 10.04281425476074 12202.177734375 11.93318939208984 12204.068359375 C 13.82356357574463 12205.9599609375 16.33293914794922 12207.0009765625 18.99906349182129 12207.0009765625 C 24.5134391784668 12207.0009765625 28.99973106384277 12202.5146484375 28.99973106384277 12197 L 68.99927520751953 12197 L 68.99927520751953 12431.0009765625 Z"/>
    </g>
    <g id="그룹_30657" data-name="그룹 30657" transform="translate(-21129 3958.002)">
      <path id="빼기_26" data-name="빼기 26" class="cls-2" d="M-290,12430h-40a9.936,9.936,0,0,0-2.933-7.068A9.937,9.937,0,0,0-340,12420v-214a10.013,10.013,0,0,0,10-10h40v234Z" transform="translate(3086.002 -23370)"/>
      <text id="장바구니_쿠폰" data-name="장바구니 쿠폰" class="cls-3" transform="translate(2764.001 -11057) rotate(90)"><tspan x="-45.96" y="0">장바구니 쿠폰</tspan></text>
      <line id="선_693" data-name="선 693" class="cls-4" x1="0.499" y2="212.999" transform="translate(2745.501 -11163.499)"/>
    </g>
    <g id="그룹_30993" data-name="그룹 30993" transform="translate(-19400 -8194)">
      <rect id="사각형_30207" data-name="사각형 30207" class="cls-5" width="40" height="32" transform="translate(948 1160)"/>
      <g id="그룹_29474" data-name="그룹 29474" transform="translate(948.8 1161.6)">
        <g id="그룹_153" data-name="그룹 153" transform="translate(8.833)">
          <path id="패스_11" data-name="패스 11" class="cls-6" d="M2031.409,267.233h2.673a2.744,2.744,0,0,1,2.144,1.926c.458,1.679,3.361,15.775,3.361,15.775s.01,3,2.71,3h14.582" transform="translate(-2031.409 -267.233)"/>
          <path id="패스_12" data-name="패스 12" class="cls-7" d="M2037.223,272.252H2061.1l-4.009,12.494h-17.18" transform="translate(-2031.347 -268.106)"/>
          <g id="타원_21" data-name="타원 21" class="cls-6" transform="translate(8.07 22.222)">
            <circle class="cls-9" cx="3.277" cy="3.277" r="3.277"/>
            <circle class="cls-11" cx="3.277" cy="3.277" r="2.527"/>
          </g>
          <g id="타원_22" data-name="타원 22" class="cls-6" transform="translate(19.893 22.222)">
            <circle class="cls-9" cx="3.277" cy="3.277" r="3.277"/>
            <circle class="cls-11" cx="3.277" cy="3.277" r="2.527"/>
          </g>
        </g>
        <line id="선_694" data-name="선 694" class="cls-8" x2="14.032" transform="translate(5.846 11.034)"/>
        <line id="선_696" data-name="선 696" class="cls-8" x2="14.032" transform="translate(0 14.542)"/>
      </g>
    </g>
  </g>
</svg>
