<svg xmlns="http://www.w3.org/2000/svg" width="429" height="250.003" viewBox="0 0 429 250.003">
  <defs>
    <style>
      .cls-1 {
        fill: #fff;
      }

      .cls-2 {
        fill: #9e9e9e;
      }

      .cls-12, .cls-3, .cls-6, .cls-8 {
        fill: none;
      }

      .cls-3, .cls-6, .cls-7, .cls-8 {
        stroke: #9e9e9e;
      }

      .cls-3 {
        stroke-dasharray: 2 3;
      }

      .cls-4 {
        fill: #c8c8c8;
        font-size: 18px;
      }

      .cls-4, .cls-9 {
        font-family: Noto Sans KR-Medium, Noto Sans CJK KR;
        font-weight: 500;
      }

      .cls-5 {
        fill: rgba(255,255,255,0);
      }

      .cls-6, .cls-7 {
        stroke-linecap: square;
      }

      .cls-6, .cls-7, .cls-8 {
        stroke-width: 1.5px;
      }

      .cls-7 {
        fill: #f5f5f5;
      }

      .cls-9 {
        font-size: 16px;
        letter-spacing: -0.05em;
      }

      .cls-10, .cls-11 {
        stroke: none;
      }

      .cls-11 {
        fill: #eee;
      }
    </style>
  </defs>
  <g id="그룹_31718" data-name="그룹 31718" transform="translate(19128 8023.003)">
    <g id="빼기_25" data-name="빼기 25" class="cls-1" transform="translate(-18768 -20220.002)">
      <path class="cls-10" d="M 68.50048065185547 12446.5 L 10.48925685882568 12446.4990234375 C 10.36669540405273 12443.884765625 9.288411140441895 12441.443359375 7.42185115814209 12439.5771484375 C 5.436956882476807 12437.591796875 2.801114559173584 12436.498046875 9.290193702327088e-06 12436.498046875 C -5.622737884521484 12436.498046875 -10.22750377655029 12440.939453125 -10.48923587799072 12446.4990234375 L -359.4992065429688 12446.4990234375 L -359.4992065429688 12197.4990234375 L -10.48923873901367 12197.4990234375 C -10.36667728424072 12200.11328125 -9.288393020629883 12202.5546875 -7.421833038330078 12204.4208984375 C -5.436938285827637 12206.40625 -2.801095962524414 12207.5 9.290193702327088e-06 12207.5 C 5.622756481170654 12207.5 10.22752094268799 12203.05859375 10.48925304412842 12197.4990234375 L 68.50048065185547 12197.4990234375 L 68.50048065185547 12446.5 Z"/>
      <path class="cls-11" d="M 68.00048065185547 12446 L 68.00048065185547 12197.9990234375 L 10.95595264434814 12197.9990234375 C 10.44927978515625 12203.5986328125 5.729042053222656 12208 9.290193702327088e-06 12208 C -2.934674978256226 12208 -5.696095943450928 12206.8544921875 -7.775359153747559 12204.7744140625 C -9.616855621337891 12202.93359375 -10.72599792480469 12200.556640625 -10.95614051818848 12197.9990234375 L -358.9992065429688 12197.9990234375 L -358.9992065429688 12445.9990234375 L -10.95593547821045 12445.9990234375 C -10.44926261901855 12440.3994140625 -5.729023456573486 12435.998046875 9.290193702327088e-06 12435.998046875 C 2.934693574905396 12435.998046875 5.696114540100098 12437.1435546875 7.775377750396729 12439.2236328125 C 9.616874694824219 12441.064453125 10.72601699829102 12443.44140625 10.95615863800049 12445.9990234375 L 68.00048065185547 12446 M 69.00048065185547 12447 L 10.00100898742676 12446.9990234375 C 10.0004825592041 12444.33203125 8.959324836730957 12441.8212890625 7.068325042724609 12439.9306640625 C 5.177272319793701 12438.0390625 2.667061805725098 12436.998046875 9.290193702327088e-06 12436.998046875 C -5.514569759368896 12436.998046875 -10.00099086761475 12441.484375 -10.00099086761475 12446.9990234375 L -359.9992065429688 12446.9990234375 L -359.9992065429688 12196.9990234375 L -10.00099086761475 12196.9990234375 C -10.00046443939209 12199.666015625 -8.959306716918945 12202.1767578125 -7.068306446075439 12204.0673828125 C -5.177253723144531 12205.958984375 -2.667043447494507 12207 9.290193702327088e-06 12207 C 5.514588356018066 12207 10.00100898742676 12202.513671875 10.00100898742676 12196.9990234375 L 69.00048065185547 12196.9990234375 L 69.00048065185547 12447 Z"/>
    </g>
    <path id="빼기_26" data-name="빼기 26" class="cls-2" d="M-271,12446h-59a9.937,9.937,0,0,0-2.932-7.068A9.933,9.933,0,0,0-340,12436v-230a10.011,10.011,0,0,0,10-10h59v250Z" transform="translate(-18428 -20219.002)"/>
    <line id="선_693" data-name="선 693" class="cls-3" y2="229.999" transform="translate(-18768 -8012.502)"/>
    <text id="장바구니쿠폰" class="cls-4" transform="translate(-18741 -7898.004) rotate(90)"><tspan x="-49.68" y="0">장바구니쿠폰</tspan></text>
    <g id="그룹_30993" data-name="그룹 30993" transform="translate(-19796.498 -8985.008)">
      <rect id="사각형_30207" data-name="사각형 30207" class="cls-5" width="40" height="32" transform="translate(948 1160)"/>
      <g id="그룹_29474" data-name="그룹 29474" transform="translate(948.8 1161.6)">
        <g id="그룹_153" data-name="그룹 153" transform="translate(8.833)">
          <path id="패스_11" data-name="패스 11" class="cls-6" d="M2031.409,267.233h2.673a2.744,2.744,0,0,1,2.144,1.926c.458,1.679,3.361,15.775,3.361,15.775s.01,3,2.71,3h14.582" transform="translate(-2031.409 -267.233)"/>
          <path id="패스_12" data-name="패스 12" class="cls-7" d="M2037.223,272.252H2061.1l-4.009,12.494h-17.18" transform="translate(-2031.347 -268.106)"/>
          <g id="타원_21" data-name="타원 21" class="cls-6" transform="translate(8.07 22.222)">
            <circle class="cls-10" cx="3.277" cy="3.277" r="3.277"/>
            <circle class="cls-12" cx="3.277" cy="3.277" r="2.527"/>
          </g>
          <g id="타원_22" data-name="타원 22" class="cls-6" transform="translate(19.893 22.222)">
            <circle class="cls-10" cx="3.277" cy="3.277" r="3.277"/>
            <circle class="cls-12" cx="3.277" cy="3.277" r="2.527"/>
          </g>
        </g>
        <line id="선_694" data-name="선 694" class="cls-8" x2="14.032" transform="translate(5.846 11.034)"/>
        <line id="선_696" data-name="선 696" class="cls-8" x2="14.032" transform="translate(0 14.542)"/>
      </g>
    </g>
    <text id="_" data-name=" " class="cls-9" transform="translate(-18790 -7871.502)"><tspan x="0" y="0"> </tspan></text>
  </g>
</svg>
