<svg xmlns="http://www.w3.org/2000/svg" width="429" height="250.003" viewBox="0 0 429 250.003">
  <g id="그룹_31892" data-name="그룹 31892" transform="translate(18720 8173.001)">
    <g id="그룹_30648" data-name="그룹 30648" transform="translate(-19389 -9019.999)">
      <g id="빼기_25" data-name="빼기 25" transform="translate(1029 -11350)" fill="#fff">
        <path d="M 68.50048065185547 12446.5 L 10.48925685882568 12446.4990234375 C 10.36669540405273 12443.884765625 9.288411140441895 12441.443359375 7.42185115814209 12439.5771484375 C 5.436956882476807 12437.591796875 2.801114559173584 12436.498046875 9.290193702327088e-06 12436.498046875 C -5.622737884521484 12436.498046875 -10.22750377655029 12440.939453125 -10.48923587799072 12446.4990234375 L -359.4992065429688 12446.4990234375 L -359.4992065429688 12197.4990234375 L -10.48923873901367 12197.4990234375 C -10.36667728424072 12200.11328125 -9.288393020629883 12202.5546875 -7.421833038330078 12204.4208984375 C -5.436938285827637 12206.40625 -2.801095962524414 12207.5 9.290193702327088e-06 12207.5 C 5.622756481170654 12207.5 10.22752094268799 12203.05859375 10.48925304412842 12197.4990234375 L 68.50048065185547 12197.4990234375 L 68.50048065185547 12446.5 Z" stroke="none"/>
        <path d="M 68.00048065185547 12446 L 68.00048065185547 12197.9990234375 L 10.95595264434814 12197.9990234375 C 10.44927978515625 12203.5986328125 5.729042053222656 12208 9.290193702327088e-06 12208 C -2.934674978256226 12208 -5.696095943450928 12206.8544921875 -7.775359153747559 12204.7744140625 C -9.616855621337891 12202.93359375 -10.72599792480469 12200.556640625 -10.95614051818848 12197.9990234375 L -358.9992065429688 12197.9990234375 L -358.9992065429688 12445.9990234375 L -10.95593547821045 12445.9990234375 C -10.44926261901855 12440.3994140625 -5.729023456573486 12435.998046875 9.290193702327088e-06 12435.998046875 C 2.934693574905396 12435.998046875 5.696114540100098 12437.1435546875 7.775377750396729 12439.2236328125 C 9.616874694824219 12441.064453125 10.72601699829102 12443.44140625 10.95615863800049 12445.9990234375 L 68.00048065185547 12446 M 69.00048065185547 12447 L 10.00100898742676 12446.9990234375 C 10.0004825592041 12444.33203125 8.959324836730957 12441.8212890625 7.068325042724609 12439.9306640625 C 5.177272319793701 12438.0390625 2.667061805725098 12436.998046875 9.290193702327088e-06 12436.998046875 C -5.514569759368896 12436.998046875 -10.00099086761475 12441.484375 -10.00099086761475 12446.9990234375 L -359.9992065429688 12446.9990234375 L -359.9992065429688 12196.9990234375 L -10.00099086761475 12196.9990234375 C -10.00046443939209 12199.666015625 -8.959306716918945 12202.1767578125 -7.068306446075439 12204.0673828125 C -5.177253723144531 12205.958984375 -2.667043447494507 12207 9.290193702327088e-06 12207 C 5.514588356018066 12207 10.00100898742676 12202.513671875 10.00100898742676 12196.9990234375 L 69.00048065185547 12196.9990234375 L 69.00048065185547 12447 Z" stroke="none" fill="#eee"/>
      </g>
      <path id="빼기_26" data-name="빼기 26" d="M-271,12446h-59a9.937,9.937,0,0,0-2.932-7.068A9.933,9.933,0,0,0-340,12436v-230a10.011,10.011,0,0,0,10-10h59v250Z" transform="translate(1369 -11349)" fill="#66e97c"/>
      <line id="선_693" data-name="선 693" y2="229.999" transform="translate(1029.5 857.5)" fill="none" stroke="#33cc4d" stroke-width="1" stroke-dasharray="2 3"/>
    </g>
    <path id="패스_10806" data-name="패스 10806" d="M-39.222-7.218a5.027,5.027,0,0,1-3.834-4.7v-.306h3.4v-1.494h-8.73v1.494h3.456v.324a5.533,5.533,0,0,1-3.978,5.184l.936,1.458a6.616,6.616,0,0,0,4.032-3.78,6.1,6.1,0,0,0,3.816,3.258ZM-41.31-.072c-2.268,0-3.582-.576-3.582-1.62,0-1.062,1.314-1.62,3.582-1.62s3.582.558,3.582,1.62C-37.728-.648-39.042-.072-41.31-.072Zm0-4.7c-3.348,0-5.418,1.134-5.418,3.078,0,1.926,2.07,3.078,5.418,3.078s5.418-1.152,5.418-3.078C-35.892-3.636-37.962-4.77-41.31-4.77Zm5.238-6.138v-3.96h-1.854v9.72h1.854v-4.23h2.3v-1.53Zm10.314,6.966H-29.79V-7.92h4.032Zm0-5.454H-29.79v-4.14h-1.854V-2.448h7.722V-13.536h-1.836Zm8.676.774H-19.62v-6.246h-1.854V1.4h1.854V-7.074h2.538ZM-.936-6.93H-3.2a28.56,28.56,0,0,0,.414-5.526v-1.422H-13.878v1.494h9.27A24.732,24.732,0,0,1-5.076-6.93H-15.642V-5.4h6.354V1.386h1.872V-5.4h6.48Zm4.644-6.354H1.872V-2.718H3.258A38.825,38.825,0,0,0,11.2-3.492L11-5.04a37.646,37.646,0,0,1-7.29.738Zm8.784-1.584V1.386h1.854V-14.868ZM32.166-6.192H29.844a26.77,26.77,0,0,0,.576-6.246v-1.494H19.278v1.512H28.62c0,.648,0,1.3-.036,2.016l-9.81.342L18.99-8.5l9.486-.468a20.263,20.263,0,0,1-.468,2.772H17.478v1.53h6.408V1.386h1.872V-4.662h6.408Zm5.58,2.736H35.874V1.08H47.088V-.432H37.746Zm1.746-9.234h3.744v3.258H39.492ZM42.3-6.21V-7.938h4.986V-9.432h-2.2V-12.69h2.286v-1.494H35.334v1.494h2.3v3.258H35.424v1.494h5V-6.21H34V-4.7H48.744V-6.21Z" transform="translate(-18333.002 -8048) rotate(90)" fill="#1f1f1f"/>
    <g id="그룹_30993" data-name="그룹 30993" transform="translate(-19388.5 -9135.004)">
      <rect id="사각형_30207" data-name="사각형 30207" width="40" height="32" transform="translate(948 1160)" fill="rgba(255,255,255,0)"/>
      <g id="그룹_29474" data-name="그룹 29474" transform="translate(948.8 1161.6)">
        <g id="그룹_153" data-name="그룹 153" transform="translate(8.833)">
          <path id="패스_11" data-name="패스 11" d="M2031.409,267.233h2.673a2.744,2.744,0,0,1,2.144,1.926c.458,1.679,3.361,15.775,3.361,15.775s.01,3,2.71,3h14.582" transform="translate(-2031.409 -267.233)" fill="none" stroke="#000" stroke-linecap="square" stroke-width="1.5"/>
          <path id="패스_12" data-name="패스 12" d="M2037.223,272.252H2061.1l-4.009,12.494h-17.18" transform="translate(-2031.347 -268.106)" fill="#d2ffda" stroke="#000" stroke-linecap="square" stroke-width="1.5"/>
          <g id="타원_21" data-name="타원 21" transform="translate(8.07 22.222)" fill="none" stroke="#000" stroke-linecap="square" stroke-width="1.5">
            <circle cx="3.277" cy="3.277" r="3.277" stroke="none"/>
            <circle cx="3.277" cy="3.277" r="2.527" fill="none"/>
          </g>
          <g id="타원_22" data-name="타원 22" transform="translate(19.893 22.222)" fill="none" stroke="#000" stroke-linecap="square" stroke-width="1.5">
            <circle cx="3.277" cy="3.277" r="3.277" stroke="none"/>
            <circle cx="3.277" cy="3.277" r="2.527" fill="none"/>
          </g>
        </g>
        <line id="선_694" data-name="선 694" x2="14.032" transform="translate(5.846 11.034)" fill="none" stroke="#000" stroke-width="1.5"/>
        <line id="선_696" data-name="선 696" x2="14.032" transform="translate(0 14.542)" fill="none" stroke="#000" stroke-width="1.5"/>
      </g>
    </g>
  </g>
</svg>
