<svg xmlns="http://www.w3.org/2000/svg" width="328.002" height="234.001" viewBox="0 0 328.002 234.001">
  <g id="그룹_31891" data-name="그룹 31891" transform="translate(18810 7774.5)">
    <g id="패스_10809" data-name="패스 10809" transform="translate(-18551 -19971.5)" fill="#fff">
      <path d="M 68.49927520751953 12430.5009765625 L 29.48798370361328 12430.5 C 29.3654613494873 12427.8857421875 28.28724098205566 12425.4443359375 26.42073059082031 12423.578125 C 24.43585586547852 12421.5927734375 21.80010604858398 12420.4990234375 18.99906349182129 12420.4990234375 C 13.37815093994141 12420.4990234375 8.774918556213379 12424.9404296875 8.513273239135742 12430.5 L -258.4993896484375 12430.5 L -258.4993896484375 12197.5 L 8.513264656066895 12197.5 C 8.635750770568848 12200.1142578125 9.713643074035645 12202.5556640625 11.57960605621338 12204.421875 C 13.56389713287354 12206.4072265625 16.19885635375977 12207.5009765625 18.99906349182129 12207.5009765625 C 24.62163543701172 12207.5009765625 29.22625160217285 12203.0595703125 29.48797607421875 12197.5 L 68.49927520751953 12197.5 L 68.49927520751953 12430.5009765625 Z" stroke="none"/>
      <path d="M 67.99927520751953 12430.0009765625 L 67.99927520751953 12198 L 29.95467567443848 12198 C 29.44802093505859 12203.599609375 24.72794914245605 12208.0009765625 18.99906349182129 12208.0009765625 C 16.06527137756348 12208.0009765625 13.30468940734863 12206.85546875 11.22602272033691 12204.775390625 C 9.385129928588867 12202.9345703125 8.276384353637695 12200.5576171875 8.046350479125977 12198 L -257.9993896484375 12198 L -257.9993896484375 12430 L 8.046563148498535 12430 C 8.553072929382324 12424.400390625 13.27179145812988 12419.9990234375 18.99906349182129 12419.9990234375 C 21.93368911743164 12419.9990234375 24.69502258300781 12421.14453125 26.77423095703125 12423.224609375 C 28.61571311950684 12425.0654296875 29.72478866577148 12427.4423828125 29.95489120483398 12430 L 67.99927520751953 12430.0009765625 M 68.99927520751953 12431.0009765625 L 28.99973106384277 12431 C 28.99923133850098 12428.3330078125 27.95810508728027 12425.822265625 26.06718826293945 12423.931640625 C 24.17618942260742 12422.0400390625 21.6660213470459 12420.9990234375 18.99906349182129 12420.9990234375 C 13.4863977432251 12420.9990234375 9.001522064208984 12425.4853515625 9.001522064208984 12431 L -258.9993896484375 12431 L -258.9993896484375 12197 L 9.001522064208984 12197 C 9.002022743225098 12199.6669921875 10.04281425476074 12202.177734375 11.93318939208984 12204.068359375 C 13.82356357574463 12205.9599609375 16.33293914794922 12207.0009765625 18.99906349182129 12207.0009765625 C 24.5134391784668 12207.0009765625 28.99973106384277 12202.5146484375 28.99973106384277 12197 L 68.99927520751953 12197 L 68.99927520751953 12431.0009765625 Z" stroke="none" fill="#eee"/>
    </g>
    <g id="그룹_30657" data-name="그룹 30657" transform="translate(-21278 3399.5)">
      <path id="빼기_26" data-name="빼기 26" d="M-290,12430h-40a9.936,9.936,0,0,0-2.933-7.068A9.937,9.937,0,0,0-340,12420v-214a10.013,10.013,0,0,0,10-10h40v234Z" transform="translate(3086.002 -23370)" fill="#66e97c"/>
      <path id="패스_10811" data-name="패스 10811" d="M-36.664-6.416a4.468,4.468,0,0,1-3.408-4.176v-.272h3.024v-1.328h-7.76v1.328h3.072v.288a4.918,4.918,0,0,1-3.536,4.608l.832,1.3a5.881,5.881,0,0,0,3.584-3.36,5.426,5.426,0,0,0,3.392,2.9ZM-38.52-.064c-2.016,0-3.184-.512-3.184-1.44,0-.944,1.168-1.44,3.184-1.44s3.184.5,3.184,1.44C-35.336-.576-36.5-.064-38.52-.064Zm0-4.176c-2.976,0-4.816,1.008-4.816,2.736,0,1.712,1.84,2.736,4.816,2.736S-33.7.208-33.7-1.5C-33.7-3.232-35.544-4.24-38.52-4.24ZM-33.864-9.7v-3.52h-1.648v8.64h1.648v-3.76h2.048V-9.7ZM-24.7-3.5H-28.28V-7.04H-24.7Zm0-4.848H-28.28v-3.68h-1.648v9.856h6.864v-9.856H-24.7Zm7.712.688H-19.24v-5.552h-1.648V1.248h1.648V-6.288h2.256Zm14.352,1.5H-4.648a25.387,25.387,0,0,0,.368-4.912v-1.264h-9.856v1.328H-5.9A21.984,21.984,0,0,1-6.312-6.16H-15.7V-4.8h5.648V1.232h1.664V-4.8h5.76ZM1.5-11.808H-.136v9.392H1.1A34.511,34.511,0,0,0,8.152-3.1L7.976-4.48a33.463,33.463,0,0,1-6.48.656ZM9.3-13.216V1.232h1.648V-13.216ZM30.392-5.5H28.328a23.8,23.8,0,0,0,.512-5.552v-1.328h-9.9v1.344h8.3c0,.576,0,1.152-.032,1.792l-8.72.3.192,1.392,8.432-.416A18.012,18.012,0,0,1,26.7-5.5h-9.36v1.36h5.7V1.232H24.7V-4.144h5.7Zm4.96,2.432H33.688V.96h9.968V-.384h-8.3ZM36.9-11.28h3.328v2.9H36.9Zm2.5,5.76V-7.056h4.432V-8.384H41.88v-2.9h2.032v-1.328h-10.7v1.328h2.048v2.9H33.288v1.328h4.448V-5.52H32.024v1.344h13.1V-5.52Z" transform="translate(2764.001 -11057) rotate(90)" fill="#1f1f1f"/>
      <line id="선_693" data-name="선 693" x1="0.499" y2="212.999" transform="translate(2746.001 -11163.499)" fill="none" stroke="#33cc4d" stroke-width="1" stroke-dasharray="2 3"/>
    </g>
    <g id="그룹_30993" data-name="그룹 30993" transform="translate(-19549 -8752.502)">
      <rect id="사각형_30207" data-name="사각형 30207" width="40" height="32" transform="translate(948 1160)" fill="rgba(255,255,255,0)"/>
      <g id="그룹_29474" data-name="그룹 29474" transform="translate(948.8 1161.6)">
        <g id="그룹_153" data-name="그룹 153" transform="translate(8.833)">
          <path id="패스_11" data-name="패스 11" d="M2031.409,267.233h2.673a2.744,2.744,0,0,1,2.144,1.926c.458,1.679,3.361,15.775,3.361,15.775s.01,3,2.71,3h14.582" transform="translate(-2031.409 -267.233)" fill="none" stroke="#000" stroke-linecap="square" stroke-width="1.5"/>
          <path id="패스_12" data-name="패스 12" d="M2037.223,272.252H2061.1l-4.009,12.494h-17.18" transform="translate(-2031.347 -268.106)" fill="#d2ffda" stroke="#000" stroke-linecap="square" stroke-width="1.5"/>
          <g id="타원_21" data-name="타원 21" transform="translate(8.07 22.222)" fill="none" stroke="#000" stroke-linecap="square" stroke-width="1.5">
            <circle cx="3.277" cy="3.277" r="3.277" stroke="none"/>
            <circle cx="3.277" cy="3.277" r="2.527" fill="none"/>
          </g>
          <g id="타원_22" data-name="타원 22" transform="translate(19.893 22.222)" fill="none" stroke="#000" stroke-linecap="square" stroke-width="1.5">
            <circle cx="3.277" cy="3.277" r="3.277" stroke="none"/>
            <circle cx="3.277" cy="3.277" r="2.527" fill="none"/>
          </g>
        </g>
        <line id="선_694" data-name="선 694" x2="14.032" transform="translate(5.846 11.034)" fill="none" stroke="#000" stroke-width="1.5"/>
        <line id="선_696" data-name="선 696" x2="14.032" transform="translate(0 14.542)" fill="none" stroke="#000" stroke-width="1.5"/>
      </g>
    </g>
  </g>
</svg>
