<svg id="구성_요소_1390_1" data-name="구성 요소 1390 – 1" xmlns="http://www.w3.org/2000/svg" width="89.998" height="48.004" viewBox="0 0 89.998 48.004">
  <g id="빼기_25" data-name="빼기 25" transform="translate(340.002 -12206.999)" fill="#fff">
    <path d="M -250.5060272216797 12254.5029296875 L -261.1393127441406 12254.501953125 C -261.24560546875 12253.7568359375 -261.5880737304688 12253.068359375 -262.1298522949219 12252.5263671875 C -262.790771484375 12251.8642578125 -263.6693115234375 12251.4990234375 -264.6033020019531 12251.4990234375 C -266.3633117675781 12251.4990234375 -267.8240356445312 12252.806640625 -268.0671997070312 12254.501953125 L -339.5016479492188 12254.501953125 L -339.5016479492188 12207.5009765625 L -268.0671997070312 12207.5009765625 C -267.9607849121094 12208.2451171875 -267.6183471679688 12208.9326171875 -267.0767517089844 12209.474609375 C -266.4151611328125 12210.13671875 -265.5367126464844 12210.5009765625 -264.6033020019531 12210.5009765625 C -262.8434143066406 12210.5009765625 -261.3827514648438 12209.1953125 -261.1394348144531 12207.5009765625 L -250.5060119628906 12207.5009765625 L -250.5060272216797 12254.5029296875 Z" stroke="none"/>
    <path d="M -251.0060272216797 12254.0029296875 L -251.0060119628906 12208.0009765625 L -260.7303771972656 12208.0009765625 C -261.1754760742188 12209.724609375 -262.7431030273438 12211.0009765625 -264.6033020019531 12211.0009765625 C -265.6703186035156 12211.0009765625 -266.67431640625 12210.583984375 -267.4303894042969 12209.828125 C -267.9438781738281 12209.314453125 -268.3006896972656 12208.685546875 -268.4767456054688 12208.0009765625 L -339.0016479492188 12208.0009765625 L -339.0016479492188 12254.001953125 L -268.4764099121094 12254.001953125 C -268.0315856933594 12252.27734375 -266.4637451171875 12250.9990234375 -264.6033020019531 12250.9990234375 C -263.5355529785156 12250.9990234375 -262.5313110351562 12251.416015625 -261.7761840820312 12252.1728515625 C -261.262451171875 12252.6865234375 -260.905517578125 12253.31640625 -260.7295532226562 12254.001953125 L -251.0060272216797 12254.0029296875 M -250.0060272216797 12255.0029296875 L -261.6038513183594 12255.001953125 C -261.6043701171875 12254.2001953125 -261.9164123535156 12253.447265625 -262.4834899902344 12252.8798828125 C -263.0505676269531 12252.3115234375 -263.8034057617188 12251.9990234375 -264.6033020019531 12251.9990234375 C -266.2572021484375 12251.9990234375 -267.6027526855469 12253.345703125 -267.6027526855469 12255.001953125 L -340.0016479492188 12255.001953125 L -340.0016479492188 12207.0009765625 L -267.6027526855469 12207.0009765625 C -267.6022338867188 12207.8017578125 -267.2901916503906 12208.5537109375 -266.7231140136719 12209.12109375 C -266.1559753417969 12209.6884765625 -265.4031372070312 12210.0009765625 -264.6033020019531 12210.0009765625 C -262.9494018554688 12210.0009765625 -261.6038513183594 12208.6552734375 -261.6038513183594 12207.0009765625 L -250.0060119628906 12207.0009765625 L -250.0060272216797 12255.0029296875 Z" stroke="none" fill="#eee"/>
  </g>
  <path id="빼기_26" data-name="빼기 26" d="M-340,12244a2.981,2.981,0,0,0-.88-2.12,2.979,2.979,0,0,0-2.12-.88v-42a3,3,0,0,0,3-3h12v48h-12Z" transform="translate(418 -12196.001)" fill="#262626"/>
  <path id="패스_10839" data-name="패스 10839" d="M0,0V41" transform="translate(75 3.5)" fill="none" stroke="#000" stroke-width="1" stroke-dasharray="2 3"/>
</svg>
