<svg xmlns="http://www.w3.org/2000/svg" xmlns:xlink="http://www.w3.org/1999/xlink" width="46" height="46" viewBox="0 0 46 46">
  <defs>
    <style>
      .cls-1, .cls-4, .cls-6 {
        fill: none;
      }

      .cls-1, .cls-2 {
        stroke: #000;
      }

      .cls-2 {
        fill: #e7ff5e;
        stroke-width: 1.5px;
      }

      .cls-3 {
        clip-path: url(#clip-path);
      }

      .cls-5, .cls-7 {
        stroke: none;
      }

      .cls-7 {
        fill: #000;
      }
    </style>
    <clipPath id="clip-path">
      <rect id="사각형_26957" data-name="사각형 26957" class="cls-1" width="26.095" height="14.352" transform="translate(0 0)"/>
    </clipPath>
  </defs>
  <g id="그룹_31715" data-name="그룹 31715" transform="translate(-998.924 -378.924)">
    <g id="그룹_29232" data-name="그룹 29232" transform="translate(998.924 378.924)">
      <g id="그룹_24160" data-name="그룹 24160" transform="translate(0 0)">
        <g id="타원_160" data-name="타원 160" class="cls-2" transform="translate(0 0)">
          <circle class="cls-5" cx="23" cy="23" r="23"/>
          <circle class="cls-6" cx="23" cy="23" r="22.25"/>
        </g>
        <rect id="사각형_26955" data-name="사각형 26955" width="2.853" height="5.707" rx="1.427" transform="translate(18.169 11.442) rotate(16)"/>
        <g id="마스크_그룹_167" data-name="마스크 그룹 167" class="cls-3" transform="translate(10.814 18.156) rotate(16)">
          <g id="패스_4492" data-name="패스 4492" class="cls-4" transform="translate(0 -11.743)">
            <path class="cls-5" d="M13.047,0A13.047,13.047,0,1,1,0,13.047,13.047,13.047,0,0,1,13.047,0Z"/>
            <path class="cls-7" d="M 13.04748439788818 1.499998092651367 C 9.963045120239258 1.499998092651367 7.063224792480469 2.701148986816406 4.882184982299805 4.882167816162109 C 2.701154708862305 7.063188552856445 1.500003814697266 9.962997436523438 1.500003814697266 13.04740810394287 C 1.499994277954102 16.13182830810547 2.701133728027344 19.0316276550293 4.88215446472168 21.21263885498047 C 7.063175201416016 23.39364814758301 9.962993621826172 24.59477806091309 13.04744434356689 24.59477806091309 C 16.13188552856445 24.59477806091309 19.03170394897461 23.39362716674805 21.21274375915527 21.21260833740234 C 23.39377403259277 19.03158760070801 24.59492492675781 16.13177871704102 24.59492492675781 13.04736804962158 C 24.59493446350098 9.962947845458984 23.39379501342773 7.063148498535156 21.2127742767334 4.882137298583984 C 19.03175354003906 2.701128005981445 16.13193511962891 1.499998092651367 13.04748439788818 1.499998092651367 M 13.04748439788818 -1.9073486328125e-06 C 20.25340461730957 -1.1444091796875e-05 26.09494400024414 5.841487884521484 26.09492492675781 13.04736804962158 C 26.09491348266602 20.25323867797852 20.25335502624512 26.09476852416992 13.04744434356689 26.09477806091309 C 5.841524124145508 26.09478759765625 -1.52587890625e-05 20.25328826904297 3.814697265625e-06 13.04740810394287 C 1.52587890625e-05 5.841537475585938 5.841573715209961 7.62939453125e-06 13.04748439788818 -1.9073486328125e-06 Z"/>
          </g>
        </g>
        <rect id="사각형_27409" data-name="사각형 27409" width="2.853" height="5.707" rx="1.427" transform="translate(30.084 14.857) rotate(16)"/>
      </g>
    </g>
  </g>
</svg>
