<svg xmlns="http://www.w3.org/2000/svg" width="40" height="40" viewBox="0 0 40 40">
  <defs>
    <style>
      .cls-1 {
        fill: rgba(255,255,255,0);
      }

      .cls-2, .cls-3, .cls-5, .cls-6 {
        stroke: #000;
        stroke-miterlimit: 10;
      }

      .cls-3 {
        fill: #e7ff5e;
      }

      .cls-4, .cls-5 {
        fill: #fff;
      }

      .cls-4 {
        stroke: #707070;
      }

      .cls-6 {
        fill: none;
      }
    </style>
  </defs>
  <g id="그룹_31716" data-name="그룹 31716" transform="translate(-1025 -512)">
    <rect id="사각형_30250" data-name="사각형 30250" class="cls-1" width="40" height="40" transform="translate(1025 512)"/>
    <g id="그룹_24237" data-name="그룹 24237" transform="translate(768.596 26.978)">
      <g id="그룹_24232" data-name="그룹 24232" transform="translate(262.549 506.745)">
        <path id="패스_7971" data-name="패스 7971" class="cls-2" d="M265.468,534.516l.013-10.394,4.6.006.394.278.393.279.787-.555,16.875.021-.014,10.393-16.875-.021-.785-.556-.394.277-.4.277Z" transform="translate(-265.468 -524.122)"/>
      </g>
      <g id="그룹_24233" data-name="그룹 24233" transform="translate(259.404 497.432)">
        <path id="패스_7972" data-name="패스 7972" class="cls-3" d="M259.4,518.015l3.421-11.849,5.248,1.515.358.446.357.447,1.08-.375,19.24,5.555-3.422,11.85-19.239-5.556-.714-.892-.54.187-.541.187Z" transform="translate(-259.404 -506.166)"/>
        <line id="선_327" data-name="선 327" class="cls-3" x1="3.055" y2="10.581" transform="translate(6.317 2.405)"/>
      </g>
      <g id="그룹_24236" data-name="그룹 24236" transform="translate(261.52 488.022)">
        <path id="패스_7973" data-name="패스 7973" class="cls-4" d="M284.132,497.347l18.138,14.2-8.583,10.962L275.926,508.6l-.2-1.548,7.495-9.572Z" transform="translate(-269.375 -492.511)"/>
        <g id="그룹_24235" data-name="그룹 24235">
          <path id="패스_7974" data-name="패스 7974" class="cls-5" d="M263.483,498.985l8.582-10.963,4.855,3.8.187.618.184.617,1.289.064,17.8,13.936L287.8,518.022,270,504.087l-.371-1.236-.644-.032-.646-.032Z" transform="translate(-263.483 -488.022)"/>
          <line id="선_328" data-name="선 328" class="cls-6" x1="4.187" y1="3.277" transform="translate(14.108 11.239)"/>
          <line id="선_329" data-name="선 329" class="cls-6" x1="4.186" y1="3.277" transform="translate(12.236 13.632)"/>
          <g id="그룹_24234" data-name="그룹 24234" transform="translate(17.615 15.552)">
            <line id="선_330" data-name="선 330" class="cls-6" y1="2.221" x2="10.322" transform="translate(0 3.024)"/>
            <path id="패스_7975" data-name="패스 7975" class="cls-3" d="M306.3,519.9a1.173,1.173,0,1,1-.2-1.647A1.173,1.173,0,0,1,306.3,519.9Z" transform="translate(-300.701 -518.008)"/>
            <path id="패스_7976" data-name="패스 7976" class="cls-3" d="M308.164,531.322a1.172,1.172,0,1,1-.2-1.647A1.17,1.17,0,0,1,308.164,531.322Z" transform="translate(-301.597 -523.504)"/>
          </g>
          <line id="선_331" data-name="선 331" class="cls-6" x1="7.666" y2="9.789" transform="translate(6.132 5.03)"/>
          <line id="선_332" data-name="선 332" class="cls-6" x1="4.984" y2="6.364" transform="translate(4.842 4.612)"/>
        </g>
      </g>
    </g>
  </g>
</svg>
