<svg xmlns="http://www.w3.org/2000/svg" width="18" height="18" viewBox="0 0 18 18">
  <g id="그룹_35013" data-name="그룹 35013" transform="translate(-667 -2030)">
    <g id="그룹_35012" data-name="그룹 35012">
      <path id="패스_10874" data-name="패스 10874" d="M0,0H18V18H0Z" transform="translate(667 2030)" fill="#fff" opacity="0"/>
      <g id="그룹_29228" data-name="그룹 29228" transform="translate(668.5 2032)">
        <g id="합치기_44" data-name="합치기 44" transform="translate(0.5)" fill="#fff">
          <path d="M 13.2495002746582 13.25040054321289 L 5.99940013885498 13.25040054321289 C 3.104870080947876 13.25040054321289 0.7500001192092896 10.8951301574707 0.7500001192092896 8.000100135803223 L 0.7500001192092896 7.000200271606445 L 0.7500001192092896 4.000500202178955 C 0.7500001192092896 2.208170175552368 2.207760095596313 0.7500002980232239 3.999600172042847 0.7500002980232239 L 6.124500274658203 0.7500002980232239 L 8.000100135803223 0.7500002980232239 C 10.89463043212891 0.7500002980232239 13.2495002746582 3.105270385742188 13.2495002746582 6.000300407409668 L 13.2495002746582 13.25040054321289 Z" stroke="none"/>
          <path d="M 12.4995002746582 12.50040054321289 L 12.4995002746582 6.000300407409668 C 12.4995002746582 3.518830299377441 10.48108005523682 1.500000238418579 8.000100135803223 1.500000238418579 L 3.999600172042847 1.500000238418579 C 2.621320247650146 1.500000238418579 1.50000011920929 2.621720314025879 1.50000011920929 4.000500202178955 L 1.50000011920929 8.000100135803223 C 1.50000011920929 10.48157024383545 3.518420219421387 12.50040054321289 5.99940013885498 12.50040054321289 L 12.4995002746582 12.50040054321289 M 13.9995002746582 14.00040054321289 L 5.99940013885498 14.00040054321289 C 2.686500072479248 14.00040054321289 1.373290956507844e-07 11.31389999389648 1.373290956507844e-07 8.000100135803223 L 1.373290956507844e-07 4.000500202178955 C 1.373290956507844e-07 1.791000247001648 1.791000127792358 2.716064386731887e-07 3.999600172042847 2.716064386731887e-07 L 8.000100135803223 2.716064386731887e-07 C 11.3129997253418 2.716064386731887e-07 13.9995002746582 2.686500310897827 13.9995002746582 6.000300407409668 L 13.9995002746582 14.00040054321289 Z" stroke="none" fill="#ed28bb"/>
        </g>
        <path id="패스_10875" data-name="패스 10875" d="M6,1A1,1,0,1,1,7,2,1,1,0,0,1,6,1ZM3,1A1,1,0,1,1,4,2,1,1,0,0,1,3,1ZM0,1A1,1,0,1,1,1,2,1,1,0,0,1,0,1Z" transform="translate(3.5 6)" fill="#ed28bb"/>
      </g>
    </g>
  </g>
</svg>
