<svg id="그룹_29810" data-name="그룹 29810" xmlns="http://www.w3.org/2000/svg" width="40" height="40" viewBox="0 0 40 40">
  <rect id="사각형_30250" data-name="사각형 30250" width="40" height="40" fill="rgba(255,255,255,0)"/>
  <g id="그룹_29810-2" data-name="그룹 29810" transform="translate(5 5.375)">
    <rect id="사각형_30250-2" data-name="사각형 30250" width="30" height="30" transform="translate(-0.001 -0.375)" fill="rgba(255,255,255,0)"/>
    <g id="그룹_32038" data-name="그룹 32038" transform="translate(-36 -403.375)">
      <g id="사각형_31235" data-name="사각형 31235" transform="translate(37 414)" fill="#e7ff5e" stroke="#1f1f1f" stroke-width="1">
        <rect width="18" height="16" stroke="none"/>
        <rect x="0.5" y="0.5" width="17" height="15" fill="none"/>
      </g>
      <g id="사각형_31234" data-name="사각형 31234" transform="translate(38 412)" fill="#e7ff5e" stroke="#1f1f1f" stroke-width="1">
        <rect width="18" height="18" stroke="none"/>
        <rect x="0.5" y="0.5" width="17" height="17" fill="none"/>
      </g>
      <g id="사각형_31230" data-name="사각형 31230" transform="translate(40 407)" fill="#fff" stroke="#1f1f1f" stroke-width="1">
        <rect width="18" height="23" stroke="none"/>
        <rect x="0.5" y="0.5" width="17" height="22" fill="none"/>
      </g>
      <line id="선_15881" data-name="선 15881" x2="6.98" transform="translate(43.5 414.835)" fill="none" stroke="#1f1f1f" stroke-width="1"/>
      <line id="선_15882" data-name="선 15882" x2="6.98" transform="translate(43.5 417.885)" fill="none" stroke="#1f1f1f" stroke-width="1"/>
      <path id="패스_10852" data-name="패스 10852" d="M-17788,1928.87l1.258.944,1.512-2.014" transform="translate(17840.23 -1517.492)" fill="none" stroke="#1f1f1f" stroke-width="1"/>
      <path id="패스_10853" data-name="패스 10853" d="M-17788,1928.87l1.258.944,1.512-2.014" transform="translate(17840.23 -1514.153)" fill="none" stroke="#1f1f1f" stroke-width="1"/>
      <path id="패스_10854" data-name="패스 10854" d="M-17788,1928.87l1.258.944,1.512-2.014" transform="translate(17840.23 -1510.814)" fill="none" stroke="#1f1f1f" stroke-width="1"/>
      <g id="사각형_31237" data-name="사각형 31237" transform="translate(56 425)" fill="#e7ff5e" stroke="#1f1f1f" stroke-width="1">
        <rect width="9" height="4" stroke="none"/>
        <rect x="0.5" y="0.5" width="8" height="3" fill="none"/>
      </g>
      <g id="사각형_31238" data-name="사각형 31238" transform="translate(56 422)" fill="#e7ff5e" stroke="#1f1f1f" stroke-width="1">
        <rect width="9" height="4" stroke="none"/>
        <rect x="0.5" y="0.5" width="8" height="3" fill="none"/>
      </g>
      <g id="사각형_31239" data-name="사각형 31239" transform="translate(56 419)" fill="#e7ff5e" stroke="#1f1f1f" stroke-width="1">
        <rect width="9" height="4" stroke="none"/>
        <rect x="0.5" y="0.5" width="8" height="3" fill="none"/>
      </g>
      <g id="사각형_31231" data-name="사각형 31231" transform="translate(52 427)" fill="#e7ff5e" stroke="#1f1f1f" stroke-width="1">
        <rect width="9" height="4" stroke="none"/>
        <rect x="0.5" y="0.5" width="8" height="3" fill="none"/>
      </g>
      <g id="사각형_31232" data-name="사각형 31232" transform="translate(52 424)" fill="#e7ff5e" stroke="#1f1f1f" stroke-width="1">
        <rect width="9" height="4" stroke="none"/>
        <rect x="0.5" y="0.5" width="8" height="3" fill="none"/>
      </g>
      <g id="사각형_31236" data-name="사각형 31236" transform="translate(52 421)" fill="#e7ff5e" stroke="#1f1f1f" stroke-width="1">
        <rect width="9" height="4" stroke="none"/>
        <rect x="0.5" y="0.5" width="8" height="3" fill="none"/>
      </g>
      <line id="선_15880" data-name="선 15880" x2="6.98" transform="translate(43.5 411.786)" fill="none" stroke="#1f1f1f" stroke-width="1"/>
      <line id="선_15883" data-name="선 15883" x2="5.421" transform="translate(43.5 420.934)" fill="none" stroke="#1f1f1f" stroke-width="1"/>
      <line id="선_15884" data-name="선 15884" x2="5.421" transform="translate(43.5 422.967)" fill="none" stroke="#1f1f1f" stroke-width="1"/>
      <line id="선_15885" data-name="선 15885" x2="5.421" transform="translate(43.5 425)" fill="none" stroke="#1f1f1f" stroke-width="1"/>
    </g>
  </g>
</svg>
