<svg xmlns="http://www.w3.org/2000/svg" width="80" height="80" viewBox="0 0 80 80">
    <defs>
        <clipPath id="du0r8aw4la">
            <path data-name="사각형 27172" style="fill:#fff;stroke:#707070" d="M0 0h61.504v11.938H0z"/>
        </clipPath>
    </defs>
    <g data-name="그룹 31936" transform="translate(-46 -473)">
        <rect data-name="사각형 31205" width="80" height="80" rx="10" transform="translate(46 473)" style="fill:#e7ff5e"/>
        <g data-name="마스크 그룹 253" transform="translate(55 507)" style="clip-path:url(#du0r8aw4la)">
            <g data-name="그룹 23094">
                <path data-name="패스 4531" d="M29.688 11.029h-2.144l2.811-8.213 2.085-.024-.371 1.091.032.021c.038-.036.078-.071.113-.109a3.99 3.99 0 0 1 1.064-.837 3.281 3.281 0 0 1 2.3-.318 1.384 1.384 0 0 1 .862.539 1.229 1.229 0 0 1 .23.559.792.792 0 0 0 .019.089c0 .009.012.016.028.036l.223-.226a3.453 3.453 0 0 1 1.794-1.045 3.156 3.156 0 0 1 1.558.05 1.456 1.456 0 0 1 1.1 1.217 2.305 2.305 0 0 1-.07 1.014c-.1.348-.212.691-.329 1.033q-.831 2.436-1.668 4.87c-.018.052-.038.1-.063.174h-2.137c.011-.04.023-.087.038-.132l1.465-4.294c.108-.318.219-.635.326-.954a1.794 1.794 0 0 0 .111-.583.547.547 0 0 0-.506-.619 1.928 1.928 0 0 0-1.822.633 2.9 2.9 0 0 0-.564 1.024l-1.251 3.657-.4 1.156-.053.146h-2.131c.014-.051.028-.109.047-.164l1.628-4.771c.08-.236.156-.474.213-.716a1.369 1.369 0 0 0 .02-.409.512.512 0 0 0-.358-.469 1.232 1.232 0 0 0-.342-.073 1.88 1.88 0 0 0-1.686.746 3.212 3.212 0 0 0-.486.948q-.814 2.385-1.626 4.771c-.014.058-.036.115-.06.182z"/>
                <path data-name="패스 4532" d="m10.923.737-.778 2.186c-.163.006-.319.016-.476.017l-3.483.024c-.214 0-.428 0-.641.012a1.657 1.657 0 0 0-.8.278 3.538 3.538 0 0 0-.944.923 6.68 6.68 0 0 0-1.19 2.814 2.857 2.857 0 0 0 .023 1.257.941.941 0 0 0 .344.543.869.869 0 0 0 .534.151c.535 0 1.07 0 1.6-.008l2.321-.02h.571c-.011.042-.019.081-.032.119-.242.686-.486 1.371-.726 2.058a.122.122 0 0 1-.145.1.425.425 0 0 0-.046 0l-3.836.011c-.32 0-.641.021-.961.017a2.738 2.738 0 0 1-.869-.14A1.844 1.844 0 0 1 .257 9.994a3.539 3.539 0 0 1-.261-1.262 7.1 7.1 0 0 1 .48-2.625 10.532 10.532 0 0 1 .966-2.037 9.552 9.552 0 0 1 1.156-1.513 6.945 6.945 0 0 1 1.274-1.086 3.95 3.95 0 0 1 2.24-.7C7.405.761 8.699.756 9.992.748c.25 0 .5-.007.748-.01z"/>
                <path data-name="패스 4533" d="M44.304 5.355h-2.023c.026-.071.045-.128.068-.183a4.09 4.09 0 0 1 2.99-2.529 6.4 6.4 0 0 1 2.578-.1 2.4 2.4 0 0 1 .846.295 1.3 1.3 0 0 1 .666 1.324 3.967 3.967 0 0 1-.246.958l-1.461 4.294a4.529 4.529 0 0 0-.154.637.518.518 0 0 0 .2.552l-.1.28h-2.312a3.321 3.321 0 0 1 .119-.939c-.071.051-.116.081-.159.114a4.389 4.389 0 0 1-2.481.921 4 4 0 0 1-.944-.038 1.747 1.747 0 0 1-1.029-.553 1.173 1.173 0 0 1-.263-1.028 3.7 3.7 0 0 1 1.419-2.4 4.353 4.353 0 0 1 2.106-.872q.945-.135 1.889-.279a1.729 1.729 0 0 0 .686-.245.94.94 0 0 0 .44-.651.5.5 0 0 0-.4-.65 1.926 1.926 0 0 0-2.287.836c-.048.083-.093.163-.148.256zm2.143 1.583c-.26.081-.5.166-.754.232-.221.058-.448.094-.673.14a5.893 5.893 0 0 0-1.2.339 1.514 1.514 0 0 0-.909 1.166.908.908 0 0 0-.013.152.55.55 0 0 0 .5.607 1.884 1.884 0 0 0 .654-.013 2.938 2.938 0 0 0 1.421-.7 2.221 2.221 0 0 0 .677-1c.091-.265.179-.53.268-.8.008-.036.017-.079.029-.122z"/>
                <path data-name="패스 4534" d="M24.435 2.827h-2.643c0-.11.61-1.873.752-2.171l7.515-.059-.779 2.187h-2.676l-2.932 8.251h-2.148c.148-.459.318-.908.477-1.361s.323-.912.485-1.368l.486-1.367.486-1.367.486-1.367c.165-.457.325-.912.491-1.378z"/>
                <path data-name="패스 4535" d="m8.113 11.156.232-.663.961-2.7 1.059-2.976q.345-.971.686-1.942a2.591 2.591 0 0 1 1.637-1.614 2.013 2.013 0 0 1 1.127-.092 1.367 1.367 0 0 1 1.2 1.34 6.659 6.659 0 0 1-.005 1.19c-.033.635-.083 1.269-.127 1.9-.041.589-.093 1.177-.12 1.766-.023.493-.035.988-.016 1.481a2.922 2.922 0 0 0 .485 1.57 2.29 2.29 0 0 0 1.661 1c.066.009.131.018.2.021s.13 0 .214 0l-.058.364a5 5 0 0 1-.954-.035 5.122 5.122 0 0 1-1.071-.236 2.446 2.446 0 0 1-1.393-1.232 2.386 2.386 0 0 1-.214-1.264c.058-.724.127-1.446.19-2.17.032-.364.064-.728.09-1.093.025-.344.047-.689.06-1.034s.027-.692.017-1.037a3.311 3.311 0 0 0-.091-.662c-.065-.273-.187-.315-.434-.177a.653.653 0 0 0-.3.355q-.171.466-.336.933l-.985 2.775-.959 2.7-.514 1.453a.4.4 0 0 1-.032.054H8.439a10.53 10.53 0 0 1-.326.025z"/>
                <path data-name="패스 4536" d="M13.234.738a1.858 1.858 0 0 1 .454-.131 3.422 3.422 0 0 1 1.275-.05 1.49 1.49 0 0 1 1.119.813 3.015 3.015 0 0 1 .31 1.173 10.446 10.446 0 0 1-.053 2c-.085.805-.188 1.608-.271 2.413-.046.451-.07.9-.1 1.356a1.532 1.532 0 0 0 .007.275.347.347 0 0 0 .523.292.688.688 0 0 0 .334-.324 2.275 2.275 0 0 0 .111-.267L19.614.76c.019-.052.04-.1.064-.168h2.18c-.021.064-.037.121-.057.178q-1.453 4.095-2.908 8.189a5.478 5.478 0 0 1-.911 1.685.879.879 0 0 1-.706.337 1.757 1.757 0 0 1-.453-.052 2.008 2.008 0 0 1-1.434-1.319 4.226 4.226 0 0 1-.223-1.4 14.394 14.394 0 0 1 .086-1.555c.061-.659.12-1.319.166-1.979.039-.564.063-1.129.085-1.694a3.1 3.1 0 0 0-.117-1A1.621 1.621 0 0 0 13.924.763c-.231-.02-.464-.016-.69-.025z"/>
                <path data-name="패스 4537" d="M58.414.373h2.131a4.8 4.8 0 0 1-.175.548c-.059.184-.124.367-.186.55l-.181.535-.189.564h1.306l-.532 1.541h-1.3c-.024.057-.043.1-.058.139L57.706 8.7c-.012.034-.024.067-.033.1-.063.236.016.381.258.425a2.826 2.826 0 0 0 .486.029c.131 0 .262-.016.417-.026l-.555 1.632c-.306.01-.606.024-.906.03a6.137 6.137 0 0 1-1.159-.038 2.4 2.4 0 0 1-.429-.107.768.768 0 0 1-.542-.854 3.043 3.043 0 0 1 .176-.787l1.635-4.768c.021-.061.038-.123.061-.2h-1.113c.17-.522.349-1.021.527-1.538h.979c.146 0 .147 0 .193-.138l.648-1.909c.018-.057.041-.113.065-.178z"/>
                <path data-name="패스 4538" d="m56.048 2.401-.626 1.811c-.156 0-.3.008-.44 0a1.54 1.54 0 0 0-.91.2 5.684 5.684 0 0 0-1.626 1.37 4.149 4.149 0 0 0-.617 1.222l-1.262 3.684c-.018.053-.038.1-.063.173h-2.137c.017-.058.031-.115.05-.171l1.315-3.844 1.391-4.06c.05-.147.05-.147.2-.148l1.681-.007h.205c-.164.539-.363 1.05-.528 1.573l.031.016.106-.124a6.193 6.193 0 0 1 1.205-1.164 2.941 2.941 0 0 1 1.107-.5 4.426 4.426 0 0 1 .918-.031z"/>
            </g>
        </g>
    </g>
</svg>
