<svg xmlns="http://www.w3.org/2000/svg" xmlns:xlink="http://www.w3.org/1999/xlink" width="20" height="21" viewBox="0 0 20 21"><defs><clipPath id="a"><rect width="10" height="9" fill="none" stroke="#000" stroke-width="1.5"/></clipPath></defs><g transform="translate(-1600 -720)"><path d="M3.019,1.5l-1.354,13H18.336l-1.354-13H3.019M1.667,0H18.333L20,16H0Z" transform="translate(1600 725)"/><g transform="translate(1605.039 720)" clip-path="url(#a)"><path d="M5,1.5A3.5,3.5,0,0,0,1.5,5V9a3.5,3.5,0,0,0,7,0V5A3.5,3.5,0,0,0,5,1.5M5,0a5,5,0,0,1,5,5V9A5,5,0,0,1,0,9V5A5,5,0,0,1,5,0Z"/></g></g></svg>