<svg xmlns="http://www.w3.org/2000/svg" width="64.524" height="24" viewBox="0 0 64.524 24"><g fill="#fff" stroke="#000" stroke-width="1.5"><circle cx="12" cy="12" r="12" stroke="none"/><circle cx="12" cy="12" r="11.25" fill="none"/></g><g transform="matrix(0.961, 0.276, -0.276, 0.961, 7.901, 5.141)"><g transform="translate(1.555)"><rect width="1.51" height="3" rx="0.755"/><rect width="1.51" height="3" rx="0.755" transform="translate(6.49)"/></g><path d="M0,0H12" transform="translate(-0.445 9.002)" fill="none" stroke="#000" stroke-width="1.5"/></g><path d="M9.861-4.67V1.055H8.4v-11.3H9.861v4.342h1.77V-4.67ZM4.055-1.693A2.637,2.637,0,0,1,1.866-2.748a4.539,4.539,0,0,1-.823-2.865,4.524,4.524,0,0,1,.82-2.88A2.655,2.655,0,0,1,4.055-9.527a2.632,2.632,0,0,1,2.18,1.046,4.533,4.533,0,0,1,.82,2.868,4.546,4.546,0,0,1-.82,2.871A2.629,2.629,0,0,1,4.055-1.693Zm0-6.586a1.282,1.282,0,0,0-1.11.712A3.756,3.756,0,0,0,2.508-5.6,3.72,3.72,0,0,0,2.95-3.659a1.285,1.285,0,0,0,1.1.729,1.29,1.29,0,0,0,1.1-.735A3.687,3.687,0,0,0,5.6-5.6a3.782,3.782,0,0,0-.434-1.96A1.278,1.278,0,0,0,4.055-8.279ZM20.6,1.055v-11.3H22.07v11.3ZM18.97-5.678a5.585,5.585,0,0,1-2.736-1.969,4.143,4.143,0,0,1-1.078,1.16,6.3,6.3,0,0,1-1.629.932l-.914-1.031A4.28,4.28,0,0,0,14.7-7.746a2.3,2.3,0,0,0,.788-1.447v-.732h1.453v.768a2.058,2.058,0,0,0,.729,1.339,4.225,4.225,0,0,0,2.089,1.063ZM15.542.744V-3.551q-1.424.035-3.111.035L12.29-4.729q4.875,0,7.846-.182L20.183-3.7q-1.166.076-3.193.111V.744ZM29.28-5.76a5.669,5.669,0,0,1-2.821-.577,1.766,1.766,0,0,1-.993-1.585,1.745,1.745,0,0,1,.99-1.579,5.764,5.764,0,0,1,2.824-.565A5.764,5.764,0,0,1,32.1-9.5a1.745,1.745,0,0,1,.99,1.579A1.766,1.766,0,0,1,32.1-6.337,5.669,5.669,0,0,1,29.28-5.76Zm0-3.182a4.262,4.262,0,0,0-1.726.272.836.836,0,0,0-.589.747q0,.48.6.75a4.321,4.321,0,0,0,1.711.27q2.314,0,2.314-1.02a.835.835,0,0,0-.583-.747A4.255,4.255,0,0,0,29.28-8.941ZM25.583.814V-3.146h2.953v-.791h-4.5V-5.174H34.524v1.236H30.012v.791h2.965V.814Zm5.93-2.725H27.048v1.5h4.465Z" transform="translate(30 17)"/></svg>