<svg id="ic_chat" xmlns="http://www.w3.org/2000/svg" width="18" height="18" viewBox="0 0 18 18">
  <defs>
    <style>
      .cls-1, .cls-2 {
        fill: #fff;
      }

      .cls-1 {
        opacity: 0;
      }

      .cls-3, .cls-4 {
        stroke: none;
      }

      .cls-4 {
        fill: #000;
      }
    </style>
  </defs>
  <rect id="사각형_30109" data-name="사각형 30109" class="cls-1" width="18" height="18"/>
  <g id="그룹_29228" data-name="그룹 29228" transform="translate(2.003 1.998)">
    <g id="합치기_44" data-name="합치기 44" class="cls-2">
      <path class="cls-3" d="M 13.2495002746582 13.25220012664795 L 5.996700286865234 13.25220012664795 C 3.10217022895813 13.25220012664795 0.7473002076148987 10.89692974090576 0.7473002076148987 8.001899719238281 L 0.7473002076148987 7.001999855041504 L 0.7473002076148987 4.002299785614014 C 0.7473002076148987 2.209969758987427 2.205060243606567 0.7517998814582825 3.996900320053101 0.7517998814582825 L 6.123600006103516 0.7517998814582825 L 7.999200344085693 0.7517998814582825 C 10.89422988891602 0.7517998814582825 13.2495002746582 3.107069969177246 13.2495002746582 6.002099990844727 L 13.2495002746582 13.25220012664795 Z"/>
      <path class="cls-4" d="M 12.4995002746582 12.50220012664795 L 12.4995002746582 6.002099990844727 C 12.4995002746582 3.5206298828125 10.48066997528076 1.501799821853638 7.999200344085693 1.501799821853638 L 3.996900320053101 1.501799821853638 C 2.618620157241821 1.501799821853638 1.497300267219543 2.623519897460938 1.497300267219543 4.002299785614014 L 1.497300267219543 8.001899719238281 C 1.497300267219543 10.48336982727051 3.515720129013062 12.50220012664795 5.996700286865234 12.50220012664795 L 12.4995002746582 12.50220012664795 M 13.9995002746582 14.00220012664795 L 5.996700286865234 14.00220012664795 C 2.683800220489502 14.00220012664795 -0.00269978865981102 11.31569957733154 -0.00269978865981102 8.001899719238281 L -0.00269978865981102 4.002299785614014 C -0.00269978865981102 1.792799830436707 1.788300156593323 0.001799855032004416 3.996900320053101 0.001799855032004416 L 7.999200344085693 0.001799855032004416 C 11.31300067901611 0.001799855032004416 13.9995002746582 2.688299894332886 13.9995002746582 6.002099990844727 L 13.9995002746582 14.00220012664795 Z"/>
    </g>
    <path id="합치기_140" data-name="합치기 140" d="M-13424-2894a1,1,0,0,1,1-1,1,1,0,0,1,1,1,1,1,0,0,1-1,1A1,1,0,0,1-13424-2894Zm-3,0a1,1,0,0,1,1-1,1,1,0,0,1,1,1,1,1,0,0,1-1,1A1,1,0,0,1-13427-2894Zm-3,0a1,1,0,0,1,1-1,1,1,0,0,1,1,1,1,1,0,0,1-1,1A1,1,0,0,1-13430-2894Z" transform="translate(13433.005 2900.996)"/>
  </g>
</svg>
