<svg xmlns="http://www.w3.org/2000/svg" xmlns:xlink="http://www.w3.org/1999/xlink" width="52.884" height="24" viewBox="0 0 52.884 24"><defs><clipPath id="a"><rect width="16" height="8" transform="translate(-0.251 -0.208)" fill="none" stroke="#000" stroke-width="1.5"/></clipPath></defs><g fill="#a3ff5e" stroke="#000" stroke-width="1.5"><circle cx="12" cy="12" r="12" stroke="none"/><circle cx="12" cy="12" r="11.25" fill="none"/></g><g transform="matrix(0.961, 0.276, -0.276, 0.961, 6.539, 4.568)"><g transform="translate(3.011 0.09)"><g transform="translate(6.131)"><path d="M4,1.091A1.092,1.092,0,0,0,2.92,0,1.077,1.077,0,0,0,2,.521,1.077,1.077,0,0,0,1.08,0,1.092,1.092,0,0,0,.371,1.912L1.9,3.459a.14.14,0,0,0,.2,0L3.629,1.912A1.093,1.093,0,0,0,4,1.091Z" fill="none"/><path d="M1.066,0h.02A1.077,1.077,0,0,1,2,.521,1.077,1.077,0,0,1,2.92,0a1.092,1.092,0,0,1,.709,1.912L2.1,3.459a.14.14,0,0,1-.2,0L.371,1.912A1.093,1.093,0,0,1,1.066,0Z"/></g><g transform="translate(-0.869)"><path d="M4,1.091A1.092,1.092,0,0,0,2.92,0,1.077,1.077,0,0,0,2,.521,1.077,1.077,0,0,0,1.08,0,1.092,1.092,0,0,0,.371,1.912L1.9,3.459a.14.14,0,0,0,.2,0L3.629,1.912A1.093,1.093,0,0,0,4,1.091Z" fill="none"/><path d="M1.066,0h.02A1.077,1.077,0,0,1,2,.521,1.077,1.077,0,0,1,2.92,0a1.092,1.092,0,0,1,.709,1.912L2.1,3.459a.14.14,0,0,1-.2,0L.371,1.912A1.093,1.093,0,0,1,1.066,0Z"/></g></g><g transform="translate(-0.106 5.799)" clip-path="url(#a)"><g transform="translate(-0.251 -8.208)" fill="none" stroke="#000" stroke-width="1.5"><circle cx="8" cy="8" r="8" stroke="none"/><circle cx="8" cy="8" r="7.25" fill="none"/></g></g></g><path d="M9.85-5.654v3.545H8.391v-8.139H9.85v3.357h1.729v1.236ZM1.26-4.383V-9.516H6.551v5.133ZM5.1-8.291H2.725V-5.6H5.1ZM2.783.662V-3.193H4.26V-.574h5.906V.662ZM21.73-5.93a7.3,7.3,0,0,1-4.09-1.822,4.88,4.88,0,0,1-1.687,1.11,8.873,8.873,0,0,1-2.344.7l-.826-1.09A7.364,7.364,0,0,0,15.3-7.62a2.881,2.881,0,0,0,1.447-1.128H13.6V-9.984h8.086v1.236H18.542a3.224,3.224,0,0,0,1.5,1.151,6.347,6.347,0,0,0,2.4.565ZM12.4-3.914V-5.15h4.5V-6.469h1.477V-5.15h4.512v1.236Zm7.477,4.969V-1.811H13.79V-3.059h7.559V1.055Z" transform="translate(30 17)"/></svg>