<svg id="ic_alert" xmlns="http://www.w3.org/2000/svg" width="24" height="24" viewBox="0 0 24 24">
  <defs>
    <style>
      .cls-1 {
        fill: #e7ff5e;
        stroke: #e7ff5e;
        stroke-width: 0.4px;
      }
    </style>
  </defs>
  <g id="ic_alert-2" data-name="ic_alert">
    <rect id="사각형_26022" data-name="사각형 26022" width="24" height="24" rx="12"/>
    <path id="패스_7884" data-name="패스 7884" class="cls-1" d="M36.513,973.362a3.547,3.547,0,0,0-3.5,2.535.621.621,0,1,0,1.2.3,2.407,2.407,0,0,1,2.291-1.6,2.637,2.637,0,0,1,1.605.556,1.658,1.658,0,0,1,.673,1.306,1.794,1.794,0,0,1-.324,1.222,4.234,4.234,0,0,1-.867.7,3.721,3.721,0,0,0-1.178,1.274,5.412,5.412,0,0,0-.524,2.6.621.621,0,1,0,1.236,0,4.188,4.188,0,0,1,.382-2.011,2.376,2.376,0,0,1,.809-.847,4.684,4.684,0,0,0,1.126-.95,3.155,3.155,0,0,0,.583-1.985A2.943,2.943,0,0,0,38.9,974.2,3.805,3.805,0,0,0,36.513,973.362Zm.006,10.345a.828.828,0,1,0,.829.828A.828.828,0,0,0,36.52,983.707Z" transform="translate(-24.5 -966.863)"/>
  </g>
</svg>
