<svg xmlns="http://www.w3.org/2000/svg" xmlns:xlink="http://www.w3.org/1999/xlink" width="28" height="28" viewBox="0 0 28 28">
  <defs>
    <clipPath id="clip-path">
      <rect id="사각형_31263" data-name="사각형 31263" width="28" height="28" transform="translate(-4432 -10106)" fill="red" opacity="0.24"/>
    </clipPath>
  </defs>
  <g id="마스크_그룹_538" data-name="마스크 그룹 538" transform="translate(4432 10106)" clip-path="url(#clip-path)">
    <g id="합치기_166" data-name="합치기 166" transform="translate(-4429.333 -10104.805)" fill="none">
      <path d="M0,15.09V4.181L11,0,22,4.181V15.09C22,20.513,11,26,11,26S0,20.513,0,15.09Z" stroke="none"/>
      <path d="M 11.00020122528076 24.87204360961914 C 11.87303924560547 24.40560340881348 13.89532375335693 23.27283668518066 15.90242004394531 21.77696990966797 C 17.43197059631348 20.63702011108398 18.64347076416016 19.51918983459473 19.50325965881348 18.45453071594238 C 20.49642944335938 17.2247200012207 21 16.09287071228027 21 15.09041023254395 L 21 4.870538234710693 L 11 1.069792866706848 L 1 4.870538234710693 L 1 15.09041023254395 C 1 16.09023094177246 1.500990033149719 17.21887969970703 2.489059925079346 18.44502067565918 C 3.345190048217773 19.50741958618164 4.552020072937012 20.62305068969727 6.076019763946533 21.76090049743652 C 8.085758209228516 23.26140213012695 10.12319850921631 24.40307426452637 11.00020122528076 24.87204360961914 M 11 26 C 11 26 -1.77635683940025e-15 20.51329040527344 -1.77635683940025e-15 15.09041023254395 L -1.77635683940025e-15 4.180819988250732 L 11 -1.77635683940025e-15 L 22 4.180819988250732 L 22 15.09041023254395 C 22 20.51329040527344 11 26 11 26 Z" stroke="none" fill="#000"/>
    </g>
    <g id="합치기_167" data-name="합치기 167" transform="translate(-4426.843 -10101.985)" fill="none">
      <path d="M0,11.608V3.216L8.509,0l8.509,3.216v8.392C17.019,15.779,8.509,20,8.509,20S0,15.779,0,11.608Z" stroke="none"/>
      <path d="M 8.50927734375 18.87167358398438 C 9.229803085327148 18.48430252075195 10.72028064727783 17.64066314697266 12.18984699249268 16.54903984069824 C 14.65882778167725 14.7150297164917 16.01855659484863 12.96026992797852 16.01855659484863 11.60799980163574 L 16.01855659484863 3.907102108001709 L 8.50927734375 1.069033622741699 L 0.9999973177909851 3.907102108001709 L 0.9999973177909851 11.60799980163574 C 0.9999973177909851 12.96026992797852 2.359727382659912 14.7150297164917 4.828707218170166 16.54903984069824 C 6.298274517059326 17.64066314697266 7.78875207901001 18.48430252075195 8.50927734375 18.87167358398438 M 8.50927734375 20 C 8.50927734375 20 -2.6562499897409e-06 15.77945995330811 -2.6562499897409e-06 11.60799980163574 L -2.6562499897409e-06 3.216010093688965 L 8.50927734375 0 L 17.01855659484863 3.216010093688965 L 17.01855659484863 11.60799980163574 C 17.01855659484863 15.77945995330811 8.50927734375 20 8.50927734375 20 Z" stroke="none" fill="#000"/>
    </g>
    <g id="타원_1335" data-name="타원 1335" transform="translate(-4424.167 -10098.881)" fill="none" stroke="#000" stroke-width="1">
      <circle cx="5.833" cy="5.833" r="5.833" stroke="none"/>
      <circle cx="5.833" cy="5.833" r="5.333" fill="none"/>
    </g>
    <path id="패스_10862" data-name="패스 10862" d="M-4551.656-10176.378h0l2.187,2.065,3.207-3.475" transform="translate(130.626 83.353)" fill="none" stroke="#000" stroke-linecap="round" stroke-linejoin="round" stroke-width="1"/>
  </g>
</svg>
