<svg xmlns="http://www.w3.org/2000/svg" xmlns:xlink="http://www.w3.org/1999/xlink" width="28" height="28" viewBox="0 0 28 28">
  <defs>
    <clipPath id="clip-path">
      <rect id="사각형_31260" data-name="사각형 31260" width="28" height="28" transform="translate(-4432 -10170)" fill="red" opacity="0.24"/>
    </clipPath>
  </defs>
  <g id="마스크_그룹_537" data-name="마스크 그룹 537" transform="translate(4432 10170)" clip-path="url(#clip-path)">
    <g id="합치기_165" data-name="합치기 165" transform="translate(-4423.833 -10161.917)" fill="none">
      <path d="M2.833,18.834a1,1,0,0,1-1-1V14.917L.315,12.694A.749.749,0,0,1,0,12.083V8.5A1.5,1.5,0,0,1,2.334,7.253V3.833A1.5,1.5,0,0,1,4.667,2.585V1.5a1.5,1.5,0,0,1,3-.079A1.5,1.5,0,0,1,10,2.667V3.753A1.5,1.5,0,0,1,12.334,5v6.333a1.5,1.5,0,0,1-.05.385h0l-.007.017a1.49,1.49,0,0,1-.128.314L10.833,15.3v2.534a1,1,0,0,1-1,1Z" stroke="none"/>
      <path d="M 9.833399772644043 17.83430099487305 L 9.83329963684082 17.83430099487305 L 9.83329963684082 15.10499095916748 L 11.24615955352783 11.62180042266846 L 11.27346038818359 11.5717306137085 C 11.29137992858887 11.53888034820557 11.30552005767822 11.50403022766113 11.31550025939941 11.46816062927246 L 11.31700038909912 11.46263027191162 C 11.32800960540771 11.42110061645508 11.33360004425049 11.37773036956787 11.33360004425049 11.33370018005371 L 11.33360004425049 5.000400543212891 C 11.33360004425049 4.724530696868896 11.10916996002197 4.500100612640381 10.83329963684082 4.500100612640381 C 10.70771026611328 4.500100612640381 10.61349010467529 4.545570373535156 10.55657005310059 4.583710670471191 L 8.999899864196777 5.626830577850342 L 8.999899864196777 2.666700601577759 C 8.999899864196777 2.391330480575562 8.775469779968262 2.167300462722778 8.499600410461426 2.167300462722778 C 8.373600006103516 2.167300462722778 8.279170036315918 2.213010549545288 8.222140312194824 2.251360416412354 L 6.756579875946045 3.23676061630249 L 6.66549015045166 1.473080515861511 C 6.651790142059326 1.207800507545471 6.432740211486816 1.000000476837158 6.166800022125244 1.000000476837158 C 5.89093017578125 1.000000476837158 5.666500091552734 1.224430441856384 5.666500091552734 1.500300526618958 L 5.666500091552734 4.457470417022705 L 4.110420227050781 3.416360378265381 C 4.053450107574463 3.378240585327148 3.95907998085022 3.332800388336182 3.833100080490112 3.332800388336182 C 3.557729959487915 3.332800388336182 3.333699941635132 3.557230472564697 3.333699941635132 3.833100557327271 L 3.333699941635132 9.126560211181641 L 1.77715003490448 8.083850860595703 C 1.720180034637451 8.045690536499023 1.625910043716431 8.000200271606445 1.500300049781799 8.000200271606445 C 1.224429965019226 8.000200271606445 1 8.224230766296387 1 8.499600410461426 L 1 11.95450115203857 L 1.040369987487793 11.98329067230225 L 2.833300113677979 14.60816097259521 L 2.833199977874756 17.83430099487305 L 9.833399772644043 17.83430099487305 M 9.833399772644043 18.83430099487305 L 2.833199977874756 18.83430099487305 C 2.280600070953369 18.83430099487305 1.833299994468689 18.38610076904297 1.833299994468689 17.83440017700195 L 1.833299994468689 14.91709041595459 L 0.3149400353431702 12.69419002532959 C 0.1243200227618217 12.55825042724609 2.212524385925008e-08 12.33533096313477 2.212524385925008e-08 12.08340072631836 L 2.212524385925008e-08 8.499600410461426 C 2.212524385925008e-08 7.671600341796875 0.6714000105857849 7.000200271606445 1.500300049781799 7.000200271606445 C 1.808680057525635 7.000200271606445 2.095360040664673 7.093380451202393 2.333699941635132 7.253040313720703 L 2.333699941635132 3.833100557327271 C 2.333699941635132 3.004200458526611 3.005100011825562 2.332800388336182 3.833100080490112 2.332800388336182 C 4.141560077667236 2.332800388336182 4.428150177001953 2.425760507583618 4.666500091552734 2.585230588912964 L 4.666500091552734 1.500300526618958 C 4.666500091552734 0.6714004874229431 5.337900161743164 4.974365310772555e-07 6.166800022125244 4.974365310772555e-07 C 6.968420028686523 4.974365310772555e-07 7.623239994049072 0.6292304992675781 7.664160251617432 1.421500444412231 C 7.902910232543945 1.26097047328949 8.190310478210449 1.167300462722778 8.499600410461426 1.167300462722778 C 9.328499794006348 1.167300462722778 9.999899864196777 1.838700532913208 9.999899864196777 2.666700601577759 L 9.999899864196777 3.752980470657349 C 10.23824024200439 3.593270540237427 10.52492046356201 3.500100612640381 10.83329963684082 3.500100612640381 C 11.66219997406006 3.500100612640381 12.33360004425049 4.171500682830811 12.33360004425049 5.000400543212891 L 12.33360004425049 11.33370018005371 C 12.33360004425049 11.46692085266113 12.31618976593018 11.59606075286865 12.28357028961182 11.71903038024902 L 12.2859001159668 11.71890068054199 L 12.27894973754883 11.73604011535645 C 12.24824047088623 11.84649085998535 12.20518016815186 11.95190048217773 12.15139007568359 12.05053043365479 L 10.83329963684082 15.30008029937744 L 10.83329963684082 17.83440017700195 C 10.83329963684082 18.38610076904297 10.38510036468506 18.83430099487305 9.833399772644043 18.83430099487305 Z" stroke="none" fill="#ea27c2"/>
    </g>
    <g id="사각형_31250" data-name="사각형 31250" transform="translate(-4421.5 -10154.277)" fill="none" stroke="#ea27c2" stroke-width="1">
      <rect width="1" height="3" rx="0.5" stroke="none"/>
      <rect x="0.5" y="0.5" height="2" fill="none"/>
    </g>
    <g id="사각형_31251" data-name="사각형 31251" transform="translate(-4419.167 -10159.683)" fill="none" stroke="#ea27c2" stroke-width="1">
      <rect width="1" height="6" rx="0.5" stroke="none"/>
      <rect x="0.5" y="0.5" height="5" fill="none"/>
    </g>
    <g id="사각형_31252" data-name="사각형 31252" transform="translate(-4414.85 -10159.683)" fill="none" stroke="#ea27c2" stroke-width="1">
      <rect width="1" height="6" rx="0.5" stroke="none"/>
      <rect x="0.5" y="0.5" height="5" fill="none"/>
    </g>
    <g id="사각형_31253" data-name="사각형 31253" transform="translate(-4417.1 -10159.683)" fill="none" stroke="#ea27c2" stroke-width="1">
      <rect width="1" height="6" rx="0.5" stroke="none"/>
      <rect x="0.5" y="0.5" height="5" fill="none"/>
    </g>
    <path id="패스_10852" data-name="패스 10852" d="M-4552.673-10207.588l-1.107-1.595-5.24-4.395,8.625-8.138,4.426,6.054,5.534,4.395-1.823,1.725" transform="translate(130.496 53.214)" fill="none" stroke="#ea27c2" stroke-linejoin="round" stroke-width="1"/>
    <line id="선_363" data-name="선 363" x2="1.167" y2="2.333" transform="translate(-4419.75 -10163.584)" fill="none" stroke="#ea27c2" stroke-linecap="round" stroke-width="1"/>
    <path id="패스_10853" data-name="패스 10853" d="M-4555.337-10215.242l3.228,2.137" transform="translate(131.11 54.293)" fill="none" stroke="#ea27c2" stroke-linecap="round" stroke-width="1"/>
    <path id="패스_10854" data-name="패스 10854" d="M-4544.149-10211.5l5.81,5.811" transform="translate(132.975 54.916)" fill="none" stroke="#ea27c2" stroke-linecap="round" stroke-width="1"/>
    <path id="패스_10855" data-name="패스 10855" d="M-4544.149-10211.5l2.967,3.085" transform="translate(135.308 60.749)" fill="none" stroke="#ea27c2" stroke-linecap="round" stroke-width="1"/>
    <path id="패스_10856" data-name="패스 10856" d="M-4544.149-10211.5l2.967,3.085" transform="translate(134.142 63.082)" fill="none" stroke="#ea27c2" stroke-linecap="round" stroke-width="1"/>
    <path id="패스_10857" data-name="패스 10857" d="M-4544.149-10211.5l2.967,3.085" transform="translate(130.183 63.082)" fill="none" stroke="#ea27c2" stroke-linecap="round" stroke-width="1"/>
    <g id="그룹_32353" data-name="그룹 32353" transform="translate(-4429.667 -10167.667)">
      <g id="사각형_31254" data-name="사각형 31254" transform="translate(1.167)" fill="#fff" stroke="#ea27c2" stroke-width="1">
        <rect width="1.167" height="3.5" rx="0.583" stroke="none"/>
        <rect x="0.5" y="0.5" width="0.167" height="2.5" rx="0.083" fill="none"/>
      </g>
      <g id="사각형_31255" data-name="사각형 31255" transform="translate(3.5 1.167) rotate(90)" fill="#fff" stroke="#ea27c2" stroke-width="1">
        <rect width="1.167" height="3.5" rx="0.583" stroke="none"/>
        <rect x="0.5" y="0.5" width="0.167" height="2.5" rx="0.083" fill="none"/>
      </g>
    </g>
    <g id="그룹_32354" data-name="그룹 32354" transform="translate(-4411 -10164.167)">
      <g id="사각형_31256" data-name="사각형 31256" transform="translate(1.167)" fill="#fff" stroke="#ea27c2" stroke-width="1">
        <rect width="1.167" height="3.5" rx="0.583" stroke="none"/>
        <rect x="0.5" y="0.5" width="0.167" height="2.5" rx="0.083" fill="none"/>
      </g>
      <g id="사각형_31257" data-name="사각형 31257" transform="translate(3.5 1.167) rotate(90)" fill="#fff" stroke="#ea27c2" stroke-width="1">
        <rect width="1.167" height="3.5" rx="0.583" stroke="none"/>
        <rect x="0.5" y="0.5" width="0.167" height="2.5" rx="0.083" fill="none"/>
      </g>
    </g>
    <g id="그룹_32355" data-name="그룹 32355" transform="translate(-4429.667 -10152.5)">
      <g id="사각형_31258" data-name="사각형 31258" transform="translate(1.167)" fill="#fff" stroke="#ea27c2" stroke-width="1">
        <rect width="1.167" height="3.5" rx="0.583" stroke="none"/>
        <rect x="0.5" y="0.5" width="0.167" height="2.5" rx="0.083" fill="none"/>
      </g>
      <g id="사각형_31259" data-name="사각형 31259" transform="translate(3.5 1.167) rotate(90)" fill="#fff" stroke="#ea27c2" stroke-width="1">
        <rect width="1.167" height="3.5" rx="0.583" stroke="none"/>
        <rect x="0.5" y="0.5" width="0.167" height="2.5" rx="0.083" fill="none"/>
      </g>
    </g>
  </g>
</svg>
