<svg xmlns="http://www.w3.org/2000/svg" xmlns:xlink="http://www.w3.org/1999/xlink" width="28" height="28" viewBox="0 0 28 28">
  <defs>
    <clipPath id="clip-path">
      <rect id="사각형_31212" data-name="사각형 31212" width="28" height="28" transform="translate(-4432 -10298)" fill="red" opacity="0.24"/>
    </clipPath>
  </defs>
  <g id="마스크_그룹_533" data-name="마스크 그룹 533" transform="translate(4432 10298)" clip-path="url(#clip-path)">
    <g id="사각형_31204" data-name="사각형 31204" transform="translate(-4425 -10296)" fill="none" stroke="#ea27c2" stroke-linejoin="round" stroke-width="1">
      <rect width="18" height="26" stroke="none"/>
      <rect x="0.5" y="0.5" width="17" height="25" fill="none"/>
    </g>
    <g id="사각형_31205" data-name="사각형 31205" transform="translate(-4429 -10282)" fill="none" stroke="#ea27c2" stroke-linejoin="round" stroke-width="1">
      <rect width="5" height="12" stroke="none"/>
      <rect x="0.5" y="0.5" width="4" height="11" fill="none"/>
    </g>
    <g id="사각형_31206" data-name="사각형 31206" transform="translate(-4422 -10293)" fill="none" stroke="#ea27c2" stroke-linejoin="round" stroke-width="1">
      <rect width="5" height="5" stroke="none"/>
      <rect x="0.5" y="0.5" width="4" height="4" fill="none"/>
    </g>
    <g id="사각형_31207" data-name="사각형 31207" transform="translate(-4422 -10287)" fill="none" stroke="#ea27c2" stroke-linejoin="round" stroke-width="1">
      <rect width="5" height="5" stroke="none"/>
      <rect x="0.5" y="0.5" width="4" height="4" fill="none"/>
    </g>
    <g id="사각형_31208" data-name="사각형 31208" transform="translate(-4415 -10293)" fill="none" stroke="#ea27c2" stroke-linejoin="round" stroke-width="1">
      <rect width="5" height="5" stroke="none"/>
      <rect x="0.5" y="0.5" width="4" height="4" fill="none"/>
    </g>
    <g id="사각형_31209" data-name="사각형 31209" transform="translate(-4415 -10287)" fill="none" stroke="#ea27c2" stroke-linejoin="round" stroke-width="1">
      <rect width="5" height="5" stroke="none"/>
      <rect x="0.5" y="0.5" width="4" height="4" fill="none"/>
    </g>
    <g id="사각형_31210" data-name="사각형 31210" transform="translate(-4420 -10279)" fill="none" stroke="#ea27c2" stroke-linejoin="round" stroke-width="1">
      <rect width="8" height="9" stroke="none"/>
      <rect x="0.5" y="0.5" width="7" height="8" fill="none"/>
    </g>
    <g id="사각형_31211" data-name="사각형 31211" transform="translate(-4432 -10271)" fill="#ea27c2" stroke="#ea27c2" stroke-width="1">
      <rect width="28" height="1" rx="0.5" stroke="none"/>
      <rect x="0.5" y="0.5" width="27" fill="none"/>
    </g>
  </g>
</svg>
