<svg xmlns="http://www.w3.org/2000/svg" xmlns:xlink="http://www.w3.org/1999/xlink" width="28" height="28" viewBox="0 0 28 28">
  <defs>
    <clipPath id="clip-path">
      <rect id="사각형_31288" data-name="사각형 31288" width="28" height="28" transform="translate(-4433 -10042)" fill="red" opacity="0.24"/>
    </clipPath>
  </defs>
  <g id="마스크_그룹_541" data-name="마스크 그룹 541" transform="translate(4433 10042)" clip-path="url(#clip-path)">
    <g id="그룹_32357" data-name="그룹 32357" transform="translate(-4431.833 -10040.833)">
      <g id="합치기_173" data-name="합치기 173" transform="translate(0 0)" fill="none">
        <path d="M2.833,26a3,3,0,0,1-3-3V.833a1,1,0,0,1,1-1h20a3,3,0,0,1,3,3v3h-14V21h15v2a3,3,0,0,1-3,3Z" stroke="none"/>
        <path d="M 21.83309936523438 25.00010108947754 C 22.93622970581055 25.00010108947754 23.83370018005371 24.10304069519043 23.83370018005371 23.00040054321289 L 23.83370018005371 21.99970054626465 L 8.833399772644043 21.99970054626465 L 8.833399772644043 4.832900524139404 L 22.83379936218262 4.832900524139404 L 22.83379936218262 2.833200454711914 C 22.83379936218262 1.730070352554321 21.93674087524414 0.8326003551483154 20.8341007232666 0.8326003551483154 L 0.8335000276565552 0.8334003686904907 L 0.8335000276565552 23.00040054321289 C 0.8335000276565552 24.10304069519043 1.730560064315796 25.00010108947754 2.833199977874756 25.00010108947754 L 21.83309936523438 25.00010108947754 M 21.83309936523438 26.00010108947754 L 2.833199977874756 26.00010108947754 C 1.176300048828125 26.00010108947754 -0.1664999574422836 24.65730094909668 -0.1664999574422836 23.00040054321289 L -0.1664999574422836 0.8334003686904907 C -0.1664999574422836 0.2808003723621368 0.2808000445365906 -0.1673996299505234 0.8334000706672668 -0.1673996299505234 L 20.8341007232666 -0.1673996299505234 C 22.4901008605957 -0.1673996299505234 23.83379936218262 1.176300406455994 23.83379936218262 2.833200454711914 L 23.83379936218262 5.832900524139404 L 9.833399772644043 5.832900524139404 L 9.833399772644043 20.99970054626465 L 24.83370018005371 20.99970054626465 L 24.83370018005371 23.00040054321289 C 24.83370018005371 24.65730094909668 23.48999977111816 26.00010108947754 21.83309936523438 26.00010108947754 Z" stroke="none" fill="#ea27c2"/>
      </g>
      <g id="사각형_31281" data-name="사각형 31281" transform="translate(11.834 4.833)" fill="none" stroke="#ea27c2" stroke-width="1">
        <path d="M0,0H8A0,0,0,0,1,8,0V2A2,2,0,0,1,6,4H2A2,2,0,0,1,0,2V0A0,0,0,0,1,0,0Z" stroke="none"/>
        <path d="M.5.5h7a0,0,0,0,1,0,0V2A1.5,1.5,0,0,1,6,3.5H2A1.5,1.5,0,0,1,.5,2V.5A0,0,0,0,1,.5.5Z" fill="none"/>
      </g>
      <g id="사각형_31282" data-name="사각형 31282" transform="translate(13.833 7.833)" fill="none" stroke="#ea27c2" stroke-linejoin="round" stroke-width="1">
        <rect width="4" height="3" stroke="none"/>
        <rect x="0.5" y="0.5" width="3" height="2" fill="none"/>
      </g>
      <g id="사각형_31283" data-name="사각형 31283" transform="translate(16.833 7.833)" fill="none" stroke="#ea27c2" stroke-linejoin="round" stroke-width="1">
        <rect width="5" height="1" stroke="none"/>
        <rect x="0.5" y="0.5" width="4" fill="none"/>
      </g>
      <g id="사각형_31284" data-name="사각형 31284" transform="translate(20.833 6.833)" fill="none" stroke="#ea27c2" stroke-width="1">
        <path d="M0,0H2.5A1.5,1.5,0,0,1,4,1.5v0A1.5,1.5,0,0,1,2.5,3H0A0,0,0,0,1,0,3V0A0,0,0,0,1,0,0Z" stroke="none"/>
        <path d="M.5.5h2a1,1,0,0,1,1,1v0a1,1,0,0,1-1,1H.5a0,0,0,0,1,0,0V.5A0,0,0,0,1,.5.5Z" fill="none"/>
      </g>
      <g id="사각형_31285" data-name="사각형 31285" transform="translate(11.667 12.833)" fill="none" stroke="#ea27c2" stroke-width="1">
        <path d="M0,0H9A0,0,0,0,1,9,0V6A3,3,0,0,1,6,9H3A3,3,0,0,1,0,6V0A0,0,0,0,1,0,0Z" stroke="none"/>
        <path d="M.5.5h8a0,0,0,0,1,0,0V6A2.5,2.5,0,0,1,6,8.5H3A2.5,2.5,0,0,1,.5,6V.5A0,0,0,0,1,.5.5Z" fill="none"/>
      </g>
      <g id="사각형_31286" data-name="사각형 31286" transform="translate(19.667 13.984)" fill="none" stroke="#ea27c2" stroke-width="1">
        <path d="M0,0H2.333A2.333,2.333,0,0,1,4.667,2.333v0A2.333,2.333,0,0,1,2.333,4.667H0a0,0,0,0,1,0,0V0A0,0,0,0,1,0,0Z" stroke="none"/>
        <path d="M.5.5H2.333A1.833,1.833,0,0,1,4.167,2.333v0A1.833,1.833,0,0,1,2.333,4.167H.5a0,0,0,0,1,0,0V.5A0,0,0,0,1,.5.5Z" fill="none"/>
      </g>
      <path id="패스_10869" data-name="패스 10869" d="M-4550.347-10143.312a3.174,3.174,0,0,1,3.449.474c1.921,1.4,4.369,0,4.369,0" transform="translate(4562.775 10159.231)" fill="none" stroke="#ea27c2" stroke-width="1"/>
      <g id="사각형_31287" data-name="사각형 31287" transform="translate(2.5 8.167)" fill="none" stroke="#ea27c2" stroke-linecap="round" stroke-linejoin="round" stroke-width="1">
        <rect width="4.667" height="10.5" stroke="none"/>
        <rect x="0.5" y="0.5" width="3.667" height="9.5" fill="none"/>
      </g>
    </g>
  </g>
</svg>
