<svg xmlns="http://www.w3.org/2000/svg" width="289" height="53.763" viewBox="0 0 289 53.763">
  <g id="그룹_24040" data-name="그룹 24040" transform="translate(-363 -7372.237)">
    <text id="빛나는_브랜드_집합소" data-name="빛나는 브랜드 집합소" transform="translate(363 7416)" font-size="33" font-family="S-CoreDream-7ExtraBold, 'S-Core Dream \37 '" font-weight="800" letter-spacing="-0.05em"><tspan x="0" y="0">빛나는 브랜드 집합소</tspan></text>
    <g id="패스_4693" data-name="패스 4693" transform="translate(272.966 7146.538)" fill="none" stroke-miterlimit="10">
      <path d="M184.033,225.7l-2.906,9.118-9.094,2.882,9.094,2.887,2.906,9.113,2.906-9.113,9.094-2.887-9.094-2.882Z" stroke="none"/>
      <path d="M 184.0332489013672 232.2855834960938 L 182.7185363769531 236.4106597900391 L 178.6479034423828 237.7008361816406 L 182.7185211181641 238.9931182861328 L 184.0332489013672 243.1160278320312 L 185.3479156494141 238.9931182861328 L 189.4185638427734 237.7008361816406 L 185.3479156494141 236.4106597900391 L 184.0332489013672 232.2855834960938 M 184.0332946777344 225.69921875 L 186.9391021728516 234.8169250488281 L 196.0332336425781 237.6992797851562 L 186.9391021728516 240.5863342285156 L 184.0332946777344 249.6992340087891 L 181.1273498535156 240.5863342285156 L 172.0332336425781 237.6992797851562 L 181.1273498535156 234.8169250488281 L 184.0332946777344 225.69921875 Z" stroke="none" fill="#1a1818"/>
    </g>
  </g>
</svg>
