<svg id="구성_요소_166_41" data-name="구성 요소 166 – 41" xmlns="http://www.w3.org/2000/svg" width="21" height="31.5" viewBox="0 0 21 31.5">
  <rect id="사각형_27086" data-name="사각형 27086" width="18" height="28" transform="translate(3 3.5)" fill="none"/>
  <g id="합치기_11" data-name="합치기 11" transform="translate(3 6.5)" fill="none">
    <path d="M0,22.834-.023,10.84H2.39A6.7,6.7,0,0,0,4.5,5.587C4.342,2.207,4.758.041,7.205,0c2.275-.038,4.247,2.83,3.929,7.569h3.246a3.1,3.1,0,0,1,3.063,3.125l-1.256,8.974a3.1,3.1,0,0,1-3.063,3.125H10.707l0,.041Z" stroke="none"/>
    <path d="M 8.616169929504395 20.83389663696289 L 8.614290237426758 20.79250717163086 L 13.12470054626465 20.79250717163086 C 13.71067047119141 20.79250717163086 14.18740081787109 20.28791618347168 14.18740081787109 19.66769790649414 L 14.18740081787109 19.52836608886719 L 15.43912696838379 10.58786296844482 C 15.38850593566895 10.01715278625488 14.93330860137939 9.568997383117676 14.38110065460205 9.568997383117676 L 8.996060371398926 9.568997383117676 L 9.139180183410645 7.435146808624268 C 9.314590454101562 4.820026874542236 8.662750244140625 3.124397039413452 7.994240283966064 2.409537076950073 C 7.819350242614746 2.222537040710449 7.548380374908447 1.999616980552673 7.250590324401855 1.999616980552673 L 7.239230632781982 1.999706983566284 C 7.025540351867676 2.003326892852783 6.881560325622559 2.039506912231445 6.849770545959473 2.073386907577515 C 6.73529052734375 2.195367097854614 6.371530532836914 2.802556991577148 6.496910572052002 5.493556976318359 C 6.580540657043457 7.277976989746094 6.134810447692871 9.018827438354492 5.207900524139404 10.52791690826416 C 4.52146053314209 11.64550685882568 3.800840377807617 12.26875686645508 3.663360357284546 12.38234710693359 L 3.10882043838501 12.84049701690674 L 1.981410145759583 12.84049701690674 L 1.997005939483643 20.83389663696289 L 8.616169929504395 20.83389663696289 M 10.7091007232666 22.83389663696289 L 0.0009004440507851541 22.83389663696289 L -0.02249955572187901 10.84049701690674 L 2.389500379562378 10.84049701690674 C 2.389500379562378 10.84049701690674 4.657500267028809 8.966696739196777 4.499100208282471 5.587196826934814 C 4.34160041809082 2.206796884536743 4.758300304412842 0.04139698669314384 7.205400466918945 -3.014526328115608e-06 C 9.480243682861328 -0.03848268836736679 11.4525899887085 2.829726934432983 11.13470077514648 7.568996906280518 L 14.38110065460205 7.568996906280518 C 16.07220077514648 7.568996906280518 17.44379997253418 8.968497276306152 17.44379997253418 10.69379711151123 L 16.18740081787109 19.66769790649414 C 16.18740081787109 21.39299774169922 14.81580066680908 22.79250717163086 13.12470054626465 22.79250717163086 L 10.70719051361084 22.79250717163086 C 10.70843029022217 22.8198070526123 10.7091007232666 22.83389663696289 10.7091007232666 22.83389663696289 Z" stroke="none" fill="#000"/>
  </g>
  <rect id="사각형_27196" data-name="사각형 27196" width="2" height="12" transform="translate(0 17.299)"/>
  <line id="선_7" data-name="선 7" x2="3" y2="3" transform="translate(4.5 2)" fill="none" stroke="#000" stroke-width="2"/>
  <line id="선_9" data-name="선 9" x1="3" y2="3" transform="translate(13.5 2)" fill="none" stroke="#000" stroke-width="2"/>
  <line id="선_8" data-name="선 8" y2="4" transform="translate(10.5)" fill="none" stroke="#000" stroke-width="2"/>
</svg>
