<svg id="구성_요소_169_23" data-name="구성 요소 169 – 23" xmlns="http://www.w3.org/2000/svg" width="26.001" height="21.002" viewBox="0 0 26.001 21.002">
  <circle id="타원_190" data-name="타원 190" cx="3" cy="3" r="3" transform="translate(20.001 0.001)"/>
  <g id="빼기_11" data-name="빼기 11" transform="translate(0.001 0.003)" fill="none">
    <path d="M10.5,21A10.5,10.5,0,0,1,3.074,3.073a10.5,10.5,0,0,1,14.537-.3L14.172,9.122l6.759.183A10.661,10.661,0,0,1,21,10.5,10.5,10.5,0,0,1,10.5,21Z" stroke="none"/>
    <path d="M 10.49849987030029 18.99880027770996 C 12.76978969573975 18.99880027770996 14.90460014343262 18.11490058898926 16.50967025756836 16.50992965698242 C 17.93581962585449 15.08385181427002 18.79269218444824 13.2393970489502 18.9660587310791 11.25262832641602 L 10.86242961883545 11.03372001647949 L 15.04444217681885 3.313167810440063 C 13.69430065155029 2.457431793212891 12.12391662597656 1.997299790382385 10.49849987030029 1.997299790382385 C 8.22815990447998 1.997299790382385 6.093790054321289 2.881439685821533 4.488580226898193 4.486839771270752 C 2.883209943771362 6.092399597167969 1.999099969863892 8.22737979888916 1.999099969863892 10.49849987030029 C 1.999099969863892 12.76982975006104 2.883169889450073 14.90472984313965 4.488450050354004 16.50992012023926 C 6.093530178070068 18.11490058898926 8.227939605712891 18.99880027770996 10.49849987030029 18.99880027770996 M 10.49849987030029 20.99880027770996 C 7.693749904632568 20.99880027770996 5.057109832763672 19.90687942504883 3.074280023574829 17.92417907714844 C 1.091220021247864 15.94122982025146 -0.000899995444342494 13.30406951904297 -0.000899995444342494 10.49849987030029 C -0.000899995444342494 7.693209648132324 1.091220021247864 5.056009769439697 3.074280023574829 3.072709798812866 C 5.057260036468506 1.089499711990356 7.693900108337402 -0.002700263867154717 10.49849987030029 -0.002700263867154717 C 13.14262008666992 -0.002700263867154717 15.66876983642578 0.9830697178840637 17.61160087585449 2.773009777069092 L 14.17230033874512 9.12239933013916 L 20.93173027038574 9.304999351501465 C 20.97656059265137 9.701529502868652 20.99880027770996 10.10277938842773 20.99880027770996 10.49849987030029 C 20.99880027770996 13.30420970916748 19.90675926208496 15.94137001037598 17.9238395690918 17.92417907714844 C 15.94102001190186 19.90687942504883 13.30397987365723 20.99880027770996 10.49849987030029 20.99880027770996 Z" stroke="none" fill="#000"/>
  </g>
  <circle id="타원_165" data-name="타원 165" cx="1.773" cy="1.773" r="1.773" transform="translate(5.959 5.171)"/>
</svg>
