<svg xmlns="http://www.w3.org/2000/svg" width="63.866" height="26" viewBox="0 0 63.866 26">
  <defs>
    <style>
      .cls-1 {
        fill: #fff;
      }

      .cls-2 {
        fill: #00c73c;
      }
    </style>
  </defs>
  <g id="그룹_30861" data-name="그룹 30861" transform="translate(-139.869 -13.667)">
    <g id="그룹_30467" data-name="그룹 30467" transform="translate(139.473 14)">
      <path id="패스_8613" data-name="패스 8613" class="cls-1" d="M401.33-286h5.17a6.523,6.523,0,0,1,2.124.311,4.127,4.127,0,0,1,1.493.863A3.467,3.467,0,0,1,411-283.51a4.6,4.6,0,0,1,.291,1.646v.422a4.4,4.4,0,0,1-.311,1.656,3.879,3.879,0,0,1-.911,1.355,4.345,4.345,0,0,1-1.492.924,5.777,5.777,0,0,1-2.073.341h-3.184v5.642H401.33Zm1.988,1.727v5.381h2.852q3.131,0,3.131-2.59v-.361a2.194,2.194,0,0,0-.753-1.837,3.427,3.427,0,0,0-2.159-.592Z" transform="translate(-368.949 291.428)"/>
      <path id="패스_8614" data-name="패스 8614" class="cls-1" d="M449.215-261.917a3.958,3.958,0,0,1-2.64-.823,2.812,2.812,0,0,1-.974-2.269v-.542a2.992,2.992,0,0,1,.943-2.289,4.377,4.377,0,0,1,3.052-.883h2.79v-.643a2.231,2.231,0,0,0-.532-1.637,2.388,2.388,0,0,0-1.737-.532,4.287,4.287,0,0,0-1.676.3,9.278,9.278,0,0,0-1.476.8L446-271.876a9.26,9.26,0,0,1,1.807-.974,6.106,6.106,0,0,1,2.329-.412,5.817,5.817,0,0,1,1.687.231,3.784,3.784,0,0,1,1.315.683,3.18,3.18,0,0,1,.863,1.1,3.391,3.391,0,0,1,.312,1.476v7.69h-1.867V-263.4h-.02a2.105,2.105,0,0,1-.432.552,3.133,3.133,0,0,1-.592.432,4.12,4.12,0,0,1-.954.371,5.057,5.057,0,0,1-1.235.131m3.172-5.16h-2.75a2.432,2.432,0,0,0-1.636.442,1.562,1.562,0,0,0-.492,1.225v.281a1.28,1.28,0,0,0,.562,1.165,2.432,2.432,0,0,0,1.345.362,4.117,4.117,0,0,0,1.255-.171,3.143,3.143,0,0,0,.973-.512,1.738,1.738,0,0,0,.572-.693,2.562,2.562,0,0,0,.171-1.014Z" transform="translate(-401.776 281.982)"/>
      <path id="패스_8615" data-name="패스 8615" class="cls-1" d="M490.933-263.711l2.891-8.774h2.048l-5.7,15.52-1.767-.622,1.426-3.755-4-11.143h2.108l2.911,8.774Z" transform="translate(-431.608 281.407)"/>
      <rect id="사각형_29516" data-name="사각형 29516" class="cls-1" width="25" height="26" transform="translate(0.397 -0.333)"/>
      <path id="패스_8616" data-name="패스 8616" class="cls-2" d="M308.18-268.834l-4.086-6v6h-4.261v-11.6h4.32l4.087,6v-6H312.5v11.6Z" transform="translate(-293.688 287.299)"/>
    </g>
  </g>
</svg>
