<svg id="그룹_30863" data-name="그룹 30863" xmlns="http://www.w3.org/2000/svg" width="69.294" height="21.334" viewBox="0 0 69.294 21.334">
  <defs>
    <style>
      .cls-1 {
        fill-rule: evenodd;
      }
    </style>
  </defs>
  <g id="그룹_27713" data-name="그룹 27713">
    <g id="그룹_27712" data-name="그룹 27712">
      <path id="패스_8617" data-name="패스 8617" class="cls-1" d="M358,256.262c-5.845,0-10.584,3.742-10.584,8.361,0,2.967,1.963,5.571,4.91,7.058l-1,3.723a.308.308,0,0,0,.076.317.3.3,0,0,0,.216.089.3.3,0,0,0,.184-.07l4.288-2.9a13.412,13.412,0,0,0,1.906.14c5.845,0,10.584-3.742,10.584-8.361S363.847,256.262,358,256.262Z" transform="translate(-347.418 -256.262)"/>
    </g>
  </g>
  <path id="패스_8618" data-name="패스 8618" d="M405.654,271.966v5.4h-3.845V257.456h2.712L405,258.72a5.46,5.46,0,0,1,4.056-1.685c3.766,0,5.556,2.818,5.53,7.373,0,4.766-2.765,7.821-6.715,7.821A8.421,8.421,0,0,1,405.654,271.966Zm0-11.3v8.611a11.183,11.183,0,0,0,1.237.079c2.738,0,3.793-1.923,3.793-4.951,0-2.66-.712-4.266-2.9-4.266A5,5,0,0,0,405.654,260.669Z" transform="translate(-375.567 -256.662)"/>
  <path id="패스_8619" data-name="패스 8619" d="M439.193,263.065h2.186v-.474c0-1.58-.9-2.318-2.449-2.318a9.641,9.641,0,0,0-3.95.948l-1.053-2.581a10.063,10.063,0,0,1,5.346-1.606c3.686,0,5.688,1.949,5.688,5.662v9.138h-2.712l-.4-1.211a7.269,7.269,0,0,1-4.265,1.607c-2.818,0-4.4-1.685-4.4-4.529C433.189,264.672,435.3,263.065,439.193,263.065Zm2.186,5.082v-2.633h-1.764c-1.975,0-2.976.711-2.976,2.133,0,1.08.553,1.607,1.685,1.607A5.3,5.3,0,0,0,441.379,268.148Z" transform="translate(-391.808 -256.662)"/>
  <path id="패스_8620" data-name="패스 8620" d="M471.43,270.218c-1.343,3.582-2.949,6.189-5.294,7.637l-2.37-2.186a13.306,13.306,0,0,0,3.187-3.9l-5.109-13.93,3.819-1.027,3.265,11.3,3.239-11.35,3.766,1.053Z" transform="translate(-406.638 -256.521)"/>
</svg>
